<svg width="997" height="491" viewBox="0 0 997 491" fill="none" xmlns="http://www.w3.org/2000/svg">
<g opacity="0.83">
<g filter="url(#filter0_f_74_472)">
<path d="M480.126 -131.84C559.322 -31.9827 543.389 112.52 444.54 190.917C345.691 269.313 216.65 237.774 240.523 94.6982C161.328 -5.1593 58.8973 -92.3031 157.747 -170.699C256.596 -249.096 400.93 -231.698 480.126 -131.84Z" fill="#0500FC" fill-opacity="0.54"/>
</g>
<g filter="url(#filter1_f_74_472)">
<path d="M769.427 5.10269C848.671 105.021 747.024 117.861 662.339 185.024C577.654 252.186 542.001 348.238 462.757 248.32C383.513 148.401 387.923 12.9556 472.608 -54.2069C557.293 -121.369 690.183 -94.8156 769.427 5.10269Z" fill="#FC1E00" fill-opacity="0.59"/>
</g>
<g filter="url(#filter2_f_74_472)">
<path d="M706.962 -320.678C786.233 -220.726 778.703 -82.761 690.144 -12.5257C601.585 57.7096 465.531 33.619 386.26 -66.3335C306.989 -166.286 446.073 -174.682 534.632 -244.917C623.191 -315.152 627.691 -420.631 706.962 -320.678Z" fill="#D20808" fill-opacity="0.64"/>
</g>
</g>
<defs>
<filter id="filter0_f_74_472" x="0.349503" y="-336.473" width="646.843" height="685.946" filterUnits="userSpaceOnUse" color-interpolation-filters="sRGB">
<feFlood flood-opacity="0" result="BackgroundImageFix"/>
<feBlend mode="normal" in="SourceGraphic" in2="BackgroundImageFix" result="shape"/>
<feGaussianBlur stdDeviation="58.35" result="effect1_foregroundBlur_74_472"/>
</filter>
<filter id="filter1_f_74_472" x="207.493" y="-289.902" width="789.15" height="779.946" filterUnits="userSpaceOnUse" color-interpolation-filters="sRGB">
<feFlood flood-opacity="0" result="BackgroundImageFix"/>
<feBlend mode="normal" in="SourceGraphic" in2="BackgroundImageFix" result="shape"/>
<feGaussianBlur stdDeviation="99.3" result="effect1_foregroundBlur_74_472"/>
</filter>
<filter id="filter2_f_74_472" x="172.016" y="-552.382" width="780.504" height="770.789" filterUnits="userSpaceOnUse" color-interpolation-filters="sRGB">
<feFlood flood-opacity="0" result="BackgroundImageFix"/>
<feBlend mode="normal" in="SourceGraphic" in2="BackgroundImageFix" result="shape"/>
<feGaussianBlur stdDeviation="95.35" result="effect1_foregroundBlur_74_472"/>
</filter>
</defs>
</svg>
