<svg width="1096" height="321" viewBox="0 0 1096 321" fill="none" xmlns="http://www.w3.org/2000/svg">
<rect x="1" y="113" width="171" height="53" rx="21.2" fill="#E4CCFF" stroke="#BD90EF" stroke-width="2" stroke-miterlimit="0"/>
<path d="M32.5972 147.506V137.524H34.3192V138.63H34.3612C34.8932 137.776 35.6352 137.328 36.6852 137.328C38.6312 137.328 39.9052 138.896 39.9052 141.276C39.9052 143.684 38.6452 145.238 36.6292 145.238C35.6352 145.238 34.8232 144.804 34.3612 144.048H34.3192C34.3472 144.328 34.3752 144.804 34.3752 145.504V147.506H32.5972ZM36.2932 143.824C37.4692 143.824 38.0992 142.788 38.0992 141.318C38.0992 139.834 37.4972 138.77 36.2792 138.77C34.9352 138.77 34.3052 139.904 34.3052 141.318C34.3052 142.732 34.9212 143.824 36.2932 143.824ZM42.8778 137.524V138.868H42.9198C43.3958 137.902 44.1098 137.412 45.0618 137.412C45.2718 137.412 45.4118 137.426 45.5378 137.482V139.078H45.4818C45.3138 139.036 45.1738 139.022 44.9918 139.022C43.8158 139.008 42.9338 139.806 42.9338 141.248V145H41.1558V137.524H42.8778ZM49.9455 145.224C47.6215 145.224 46.1235 143.488 46.1235 141.276C46.1235 139.05 47.6215 137.328 49.9455 137.328C52.2695 137.328 53.7395 139.05 53.7395 141.276C53.7395 143.488 52.2695 145.224 49.9455 145.224ZM49.9315 143.88C51.2335 143.88 51.9335 142.774 51.9335 141.276C51.9335 139.764 51.2335 138.644 49.9315 138.644C48.6155 138.644 47.9295 139.764 47.9295 141.276C47.9295 142.774 48.6155 143.88 49.9315 143.88ZM54.7677 147.464C54.4177 147.464 54.0257 147.422 53.7597 147.366V146.064H53.8297C53.9977 146.064 54.1517 146.078 54.2917 146.064C54.7537 146.036 54.9917 145.854 54.9917 145.322V137.524H56.7697V145.392C56.7697 146.246 56.5597 146.708 56.2377 147.002C55.8597 147.338 55.3557 147.464 54.7677 147.464ZM54.9637 136.306V134.584H56.7837V136.306H54.9637ZM61.826 145.224C59.446 145.224 58.018 143.488 58.018 141.276C58.018 139.05 59.516 137.328 61.728 137.328C62.82 137.328 63.674 137.706 64.304 138.378C65.032 139.148 65.382 140.324 65.368 141.71H59.782C59.908 142.998 60.594 143.866 61.84 143.866C62.694 143.866 63.254 143.502 63.492 142.886H65.228C64.864 144.23 63.66 145.224 61.826 145.224ZM61.728 138.616C60.566 138.616 59.964 139.414 59.81 140.59H63.534C63.464 139.358 62.806 138.616 61.728 138.616ZM70.0288 145.224C67.7188 145.224 66.2348 143.488 66.2348 141.276C66.2348 139.05 67.7048 137.328 70.0008 137.328C71.9048 137.328 73.1088 138.406 73.3748 140.016H71.6388C71.4708 139.204 70.9108 138.686 70.0148 138.686C68.7128 138.686 68.0408 139.764 68.0408 141.276C68.0408 142.746 68.7128 143.838 70.0148 143.838C70.9948 143.838 71.5828 143.264 71.6808 142.284H73.4168C73.3048 144.02 72.0308 145.224 70.0288 145.224ZM74.1355 138.742V137.524H75.2835V135.144H77.0335V137.524H78.5315V138.742H77.0335V142.928C77.0335 143.474 77.3275 143.628 77.8315 143.628C78.0135 143.628 78.2655 143.6 78.4055 143.572H78.4895V144.958C78.1955 145.014 77.7895 145.07 77.3135 145.07C76.1095 145.07 75.2835 144.636 75.2835 143.32V138.742H74.1355ZM83.3198 145V137.524H85.0418V138.658H85.0838C85.5598 137.818 86.3018 137.328 87.3238 137.328C88.2618 137.328 88.9758 137.804 89.3118 138.728H89.3398C89.9278 137.762 90.7678 137.328 91.6918 137.328C93.2178 137.328 94.1138 138.322 94.1138 139.932V145H92.3358V140.17C92.3358 139.316 91.8458 138.798 91.1178 138.798C90.2498 138.798 89.6058 139.526 89.6058 140.576V145H87.8278V140.17C87.8278 139.316 87.3938 138.798 86.6518 138.798C85.8258 138.798 85.0978 139.526 85.0978 140.576V145H83.3198ZM100.523 145C100.397 144.832 100.299 144.538 100.271 144.034H100.243C99.7532 144.692 99.0812 145.182 97.8912 145.182C96.4352 145.182 95.3432 144.426 95.3432 142.97C95.3432 141.276 96.6312 140.87 98.4092 140.66C99.6412 140.506 100.257 140.31 100.257 139.638C100.257 138.994 99.8092 138.56 98.9132 138.56C97.9192 138.56 97.4292 139.022 97.3872 139.764H95.7072C95.7632 138.49 96.7712 137.328 98.8992 137.328C99.7532 137.328 100.411 137.454 100.901 137.762C101.601 138.182 101.965 138.896 101.965 139.89V143.824C101.965 144.44 102.077 144.762 102.245 144.874V145H100.523ZM98.4092 143.964C99.6272 143.964 100.299 143.124 100.299 142.284V141.178C99.9492 141.402 99.3892 141.556 98.8432 141.668C97.7512 141.878 97.1212 142.102 97.1212 142.928C97.1212 143.726 97.7232 143.964 98.4092 143.964ZM105.345 137.524V138.616H105.387C105.877 137.79 106.661 137.328 107.711 137.328C109.321 137.328 110.287 138.322 110.287 139.932V145H108.509V140.226C108.509 139.344 107.991 138.798 107.081 138.798C106.087 138.798 105.387 139.554 105.387 140.618V145H103.609V137.524H105.345ZM116.697 145C116.571 144.832 116.473 144.538 116.445 144.034H116.417C115.927 144.692 115.255 145.182 114.065 145.182C112.609 145.182 111.517 144.426 111.517 142.97C111.517 141.276 112.805 140.87 114.583 140.66C115.815 140.506 116.431 140.31 116.431 139.638C116.431 138.994 115.983 138.56 115.087 138.56C114.093 138.56 113.603 139.022 113.561 139.764H111.881C111.937 138.49 112.945 137.328 115.073 137.328C115.927 137.328 116.585 137.454 117.075 137.762C117.775 138.182 118.139 138.896 118.139 139.89V143.824C118.139 144.44 118.251 144.762 118.419 144.874V145H116.697ZM114.583 143.964C115.801 143.964 116.473 143.124 116.473 142.284V141.178C116.123 141.402 115.563 141.556 115.017 141.668C113.925 141.878 113.295 142.102 113.295 142.928C113.295 143.726 113.897 143.964 114.583 143.964ZM123.101 147.604C121.099 147.604 119.867 146.792 119.685 145.378H121.393C121.519 145.994 122.093 146.302 123.073 146.302C124.263 146.302 124.879 145.742 124.879 144.664V144.482C124.879 144.076 124.893 143.698 124.907 143.446H124.865C124.403 144.188 123.745 144.594 122.751 144.594C120.931 144.594 119.489 143.222 119.489 140.996C119.489 138.756 120.861 137.328 122.653 137.328C123.703 137.328 124.417 137.692 124.865 138.49H124.893V137.524H126.615V144.51C126.615 145.56 126.265 146.33 125.677 146.848C125.061 147.366 124.151 147.604 123.101 147.604ZM123.073 143.222C124.431 143.222 124.949 142.242 124.949 140.94C124.949 139.61 124.333 138.714 123.059 138.714C121.897 138.714 121.253 139.596 121.253 140.968C121.253 142.34 121.911 143.222 123.073 143.222ZM131.689 145.224C129.309 145.224 127.881 143.488 127.881 141.276C127.881 139.05 129.379 137.328 131.591 137.328C132.683 137.328 133.537 137.706 134.167 138.378C134.895 139.148 135.245 140.324 135.231 141.71H129.645C129.771 142.998 130.457 143.866 131.703 143.866C132.557 143.866 133.117 143.502 133.355 142.886H135.091C134.727 144.23 133.523 145.224 131.689 145.224ZM131.591 138.616C130.429 138.616 129.827 139.414 129.673 140.59H133.397C133.327 139.358 132.669 138.616 131.591 138.616ZM138.198 137.524V138.868H138.24C138.716 137.902 139.43 137.412 140.382 137.412C140.592 137.412 140.732 137.426 140.858 137.482V139.078H140.802C140.634 139.036 140.494 139.022 140.312 139.022C139.136 139.008 138.254 139.806 138.254 141.248V145H136.476V137.524H138.198Z" fill="#2E2933"/>
<rect x="225" y="121" width="160" height="38" rx="3" fill="#E4CCFF" stroke="#B6A3CC" stroke-width="2" stroke-miterlimit="0"/>
<path d="M254.387 145.196C251.545 145.196 249.697 143.026 249.697 139.988C249.697 137.048 251.461 134.766 254.443 134.766C256.781 134.766 258.195 136.11 258.461 137.958H257.229C256.991 136.712 255.997 135.858 254.415 135.858C252.217 135.858 250.985 137.636 250.985 139.988C250.985 142.438 252.343 144.09 254.429 144.09C256.319 144.09 257.215 142.802 257.341 141.332H258.587C258.573 142.326 258.097 143.446 257.383 144.146C256.683 144.832 255.661 145.196 254.387 145.196ZM260.967 137.762V138.966H260.995C261.429 138.266 262.185 137.678 263.151 137.678C263.361 137.678 263.473 137.706 263.613 137.762V138.854H263.571C263.403 138.798 263.291 138.784 263.067 138.784C261.947 138.784 260.967 139.624 260.967 140.982V145H259.833V137.762H260.967ZM267.452 145.196C265.24 145.196 263.952 143.488 263.952 141.388C263.952 139.288 265.324 137.58 267.382 137.58C269.552 137.58 270.714 139.26 270.714 141.654H265.114C265.198 143.124 265.996 144.244 267.452 144.244C268.502 144.244 269.202 143.74 269.454 142.76H270.56C270.224 144.314 269.09 145.196 267.452 145.196ZM267.382 138.476C266.038 138.476 265.31 139.484 265.142 140.8H269.496C269.426 139.358 268.684 138.476 267.382 138.476ZM277.507 145.07C276.765 145.07 276.373 144.734 276.261 143.992H276.247C275.813 144.552 275.071 145.14 273.839 145.14C272.467 145.14 271.389 144.496 271.389 143.124C271.389 141.416 272.733 141.066 274.539 140.786C275.561 140.632 276.275 140.534 276.275 139.75C276.275 138.938 275.687 138.476 274.651 138.476C273.475 138.476 272.887 138.98 272.845 140.072H271.753C271.795 138.672 272.719 137.622 274.637 137.622C276.177 137.622 277.311 138.196 277.311 139.918V143.362C277.311 143.95 277.451 144.272 278.081 144.132H278.123V144.958C277.983 145.014 277.801 145.07 277.507 145.07ZM274.091 144.272C275.603 144.272 276.289 143.166 276.289 142.326V141.094C275.911 141.332 275.253 141.514 274.637 141.626C273.503 141.836 272.593 142.032 272.593 143.096C272.593 144.062 273.349 144.272 274.091 144.272ZM278.361 138.686V137.762H279.411V135.48H280.545V137.762H281.945V138.686H280.545V143.39C280.545 143.894 280.811 144.062 281.273 144.062C281.497 144.062 281.749 144.006 281.875 143.964H281.917V144.944C281.651 145 281.343 145.042 281.007 145.042C280.083 145.042 279.411 144.664 279.411 143.642V138.686H278.361ZM286.141 145.196C283.929 145.196 282.641 143.488 282.641 141.388C282.641 139.288 284.013 137.58 286.071 137.58C288.241 137.58 289.403 139.26 289.403 141.654H283.803C283.887 143.124 284.685 144.244 286.141 144.244C287.191 144.244 287.891 143.74 288.143 142.76H289.249C288.913 144.314 287.779 145.196 286.141 145.196ZM286.071 138.476C284.727 138.476 283.999 139.484 283.831 140.8H288.185C288.115 139.358 287.373 138.476 286.071 138.476ZM293.875 137.762V138.714H293.903C294.421 138.028 295.149 137.594 296.199 137.594C297.711 137.594 298.635 138.42 298.635 139.918V145H297.501V140.016C297.501 139.078 296.885 138.546 295.863 138.546C294.715 138.546 293.875 139.358 293.875 140.548V145H292.741V137.762H293.875ZM303.231 145.196C301.019 145.196 299.731 143.488 299.731 141.388C299.731 139.288 301.103 137.58 303.161 137.58C305.331 137.58 306.493 139.26 306.493 141.654H300.893C300.977 143.124 301.775 144.244 303.231 144.244C304.281 144.244 304.981 143.74 305.233 142.76H306.339C306.003 144.314 304.869 145.196 303.231 145.196ZM303.161 138.476C301.817 138.476 301.089 139.484 300.921 140.8H305.275C305.205 139.358 304.463 138.476 303.161 138.476ZM309.047 145L306.751 137.762H307.969L309.243 142.228C309.411 142.83 309.635 143.782 309.635 143.782H309.663C309.663 143.782 309.873 142.83 310.027 142.256L311.245 137.762H312.435L313.611 142.256C313.765 142.844 313.961 143.782 313.961 143.782H313.989C313.989 143.782 314.213 142.83 314.395 142.228L315.739 137.762H316.915L314.549 145H313.387L312.183 140.618C312.015 140.016 311.833 139.106 311.833 139.106H311.805C311.805 139.106 311.609 140.016 311.441 140.618L310.223 145H309.047ZM319.975 147.324V137.762H321.109V138.784H321.137C321.683 138.042 322.411 137.594 323.461 137.594C325.295 137.594 326.569 138.994 326.569 141.402C326.569 143.726 325.379 145.21 323.419 145.21C322.439 145.21 321.739 144.916 321.137 144.146H321.109V147.324H319.975ZM323.335 144.258C324.721 144.258 325.407 143.054 325.407 141.416C325.407 139.792 324.721 138.56 323.349 138.56C321.767 138.56 321.039 139.848 321.039 141.416C321.039 142.984 321.669 144.258 323.335 144.258ZM328.834 137.762V138.966H328.862C329.296 138.266 330.052 137.678 331.018 137.678C331.228 137.678 331.34 137.706 331.48 137.762V138.854H331.438C331.27 138.798 331.158 138.784 330.934 138.784C329.814 138.784 328.834 139.624 328.834 140.982V145H327.7V137.762H328.834ZM335.319 145.196C333.163 145.196 331.819 143.488 331.819 141.388C331.819 139.288 333.163 137.58 335.319 137.58C337.489 137.58 338.805 139.288 338.805 141.388C338.805 143.488 337.489 145.196 335.319 145.196ZM335.319 144.244C336.859 144.244 337.643 142.984 337.643 141.388C337.643 139.792 336.859 138.518 335.319 138.518C333.779 138.518 332.981 139.792 332.981 141.388C332.981 142.984 333.779 144.244 335.319 144.244ZM339.404 147.058C339.152 147.058 338.956 147.03 338.774 147.002V146.078H338.802C338.942 146.106 339.068 146.12 339.194 146.12C339.684 146.12 339.936 145.91 339.936 145.42V137.762H341.07V145.476C341.07 146.82 340.328 147.058 339.404 147.058ZM339.936 136.39V134.99H341.07V136.39H339.936ZM345.71 145.196C343.498 145.196 342.21 143.488 342.21 141.388C342.21 139.288 343.582 137.58 345.64 137.58C347.81 137.58 348.972 139.26 348.972 141.654H343.372C343.456 143.124 344.254 144.244 345.71 144.244C346.76 144.244 347.46 143.74 347.712 142.76H348.818C348.482 144.314 347.348 145.196 345.71 145.196ZM345.64 138.476C344.296 138.476 343.568 139.484 343.4 140.8H347.754C347.684 139.358 346.942 138.476 345.64 138.476ZM353.175 145.196C351.019 145.196 349.675 143.488 349.675 141.388C349.675 139.288 351.019 137.58 353.175 137.58C354.883 137.58 356.017 138.56 356.269 140.1H355.121C354.953 139.12 354.267 138.518 353.175 138.518C351.635 138.518 350.837 139.792 350.837 141.388C350.837 142.984 351.635 144.244 353.175 144.244C354.351 144.244 355.051 143.572 355.149 142.452H356.269C356.115 144.188 354.981 145.196 353.175 145.196ZM356.878 138.686V137.762H357.928V135.48H359.062V137.762H360.462V138.686H359.062V143.39C359.062 143.894 359.328 144.062 359.79 144.062C360.014 144.062 360.266 144.006 360.392 143.964H360.434V144.944C360.168 145 359.86 145.042 359.524 145.042C358.6 145.042 357.928 144.664 357.928 143.642V138.686H356.878Z" fill="black" fill-opacity="0.8"/>
<path d="M176.003 138.205C175.175 138.203 174.502 138.873 174.5 139.701C174.498 140.53 175.168 141.203 175.997 141.205L176.003 138.205ZM222.058 140.871C222.645 140.286 222.648 139.336 222.063 138.749L212.539 129.182C211.955 128.594 211.005 128.592 210.418 129.177C209.831 129.761 209.828 130.711 210.413 131.298L218.879 139.803L210.374 148.269C209.787 148.853 209.785 149.803 210.369 150.39C210.954 150.977 211.903 150.979 212.49 150.395L222.058 140.871ZM175.997 141.205L220.997 141.308L221.003 138.308L176.003 138.205L175.997 141.205Z" fill="#BDE3FF"/>
<rect x="489" y="63" width="160" height="38" rx="8" fill="#E4CCFF" stroke="#B6A3CC" stroke-width="2" stroke-miterlimit="0"/>
<path d="M517.569 87V76.99H518.829V87H517.569ZM521.692 79.762V80.714H521.72C522.238 80.028 522.966 79.594 524.016 79.594C525.528 79.594 526.452 80.42 526.452 81.918V87H525.318V82.016C525.318 81.078 524.702 80.546 523.68 80.546C522.532 80.546 521.692 81.358 521.692 82.548V87H520.558V79.762H521.692ZM529.61 87L527.076 79.762H528.294L529.792 84.354C530.002 84.998 530.268 85.88 530.268 85.88H530.296C530.296 85.88 530.562 84.984 530.772 84.354L532.298 79.762H533.474L530.87 87H529.61ZM534.271 87V79.762H535.405V87H534.271ZM534.271 78.39V76.99H535.405V78.39H534.271ZM536.489 80.686V79.762H537.539V77.48H538.673V79.762H540.073V80.686H538.673V85.39C538.673 85.894 538.939 86.062 539.401 86.062C539.625 86.062 539.877 86.006 540.003 85.964H540.045V86.944C539.779 87 539.471 87.042 539.135 87.042C538.211 87.042 537.539 86.664 537.539 85.642V80.686H536.489ZM544.269 87.196C542.057 87.196 540.769 85.488 540.769 83.388C540.769 81.288 542.141 79.58 544.199 79.58C546.369 79.58 547.531 81.26 547.531 83.654H541.931C542.015 85.124 542.813 86.244 544.269 86.244C545.319 86.244 546.019 85.74 546.271 84.76H547.377C547.041 86.314 545.907 87.196 544.269 87.196ZM544.199 80.476C542.855 80.476 542.127 81.484 541.959 82.8H546.313C546.243 81.358 545.501 80.476 544.199 80.476ZM553.963 87.196C551.807 87.196 550.463 85.488 550.463 83.388C550.463 81.288 551.807 79.58 553.963 79.58C555.671 79.58 556.805 80.56 557.057 82.1H555.909C555.741 81.12 555.055 80.518 553.963 80.518C552.423 80.518 551.625 81.792 551.625 83.388C551.625 84.984 552.423 86.244 553.963 86.244C555.139 86.244 555.839 85.572 555.937 84.452H557.057C556.903 86.188 555.769 87.196 553.963 87.196ZM561.222 87.196C559.066 87.196 557.722 85.488 557.722 83.388C557.722 81.288 559.066 79.58 561.222 79.58C563.392 79.58 564.708 81.288 564.708 83.388C564.708 85.488 563.392 87.196 561.222 87.196ZM561.222 86.244C562.762 86.244 563.546 84.984 563.546 83.388C563.546 81.792 562.762 80.518 561.222 80.518C559.682 80.518 558.884 81.792 558.884 83.388C558.884 84.984 559.682 86.244 561.222 86.244ZM565.881 87V76.99H567.015V87H565.881ZM568.643 87V76.99H569.777V87H568.643ZM577.047 87.07C576.305 87.07 575.913 86.734 575.801 85.992H575.787C575.353 86.552 574.611 87.14 573.379 87.14C572.007 87.14 570.929 86.496 570.929 85.124C570.929 83.416 572.273 83.066 574.079 82.786C575.101 82.632 575.815 82.534 575.815 81.75C575.815 80.938 575.227 80.476 574.191 80.476C573.015 80.476 572.427 80.98 572.385 82.072H571.293C571.335 80.672 572.259 79.622 574.177 79.622C575.717 79.622 576.851 80.196 576.851 81.918V85.362C576.851 85.95 576.991 86.272 577.621 86.132H577.663V86.958C577.523 87.014 577.341 87.07 577.047 87.07ZM573.631 86.272C575.143 86.272 575.829 85.166 575.829 84.326V83.094C575.451 83.332 574.793 83.514 574.177 83.626C573.043 83.836 572.133 84.032 572.133 85.096C572.133 86.062 572.889 86.272 573.631 86.272ZM581.943 87.21C580.963 87.21 580.249 86.86 579.661 86.048H579.633V87H578.499V76.99H579.633V80.798H579.661C580.207 80.056 580.935 79.594 581.985 79.594C583.819 79.594 585.065 80.994 585.065 83.402C585.065 85.726 583.903 87.21 581.943 87.21ZM581.859 86.258C583.245 86.258 583.903 85.054 583.903 83.416C583.903 81.792 583.245 80.56 581.873 80.56C580.291 80.56 579.563 81.848 579.563 83.416C579.563 85.04 580.319 86.258 581.859 86.258ZM589.291 87.196C587.135 87.196 585.791 85.488 585.791 83.388C585.791 81.288 587.135 79.58 589.291 79.58C591.461 79.58 592.777 81.288 592.777 83.388C592.777 85.488 591.461 87.196 589.291 87.196ZM589.291 86.244C590.831 86.244 591.615 84.984 591.615 83.388C591.615 81.792 590.831 80.518 589.291 80.518C587.751 80.518 586.953 81.792 586.953 83.388C586.953 84.984 587.751 86.244 589.291 86.244ZM595.042 79.762V80.966H595.07C595.504 80.266 596.26 79.678 597.226 79.678C597.436 79.678 597.548 79.706 597.688 79.762V80.854H597.646C597.478 80.798 597.366 80.784 597.142 80.784C596.022 80.784 595.042 81.624 595.042 82.982V87H593.908V79.762H595.042ZM604.117 87.07C603.375 87.07 602.983 86.734 602.871 85.992H602.857C602.423 86.552 601.681 87.14 600.449 87.14C599.077 87.14 597.999 86.496 597.999 85.124C597.999 83.416 599.343 83.066 601.149 82.786C602.171 82.632 602.885 82.534 602.885 81.75C602.885 80.938 602.297 80.476 601.261 80.476C600.085 80.476 599.497 80.98 599.455 82.072H598.363C598.405 80.672 599.329 79.622 601.247 79.622C602.787 79.622 603.921 80.196 603.921 81.918V85.362C603.921 85.95 604.061 86.272 604.691 86.132H604.733V86.958C604.593 87.014 604.411 87.07 604.117 87.07ZM600.701 86.272C602.213 86.272 602.899 85.166 602.899 84.326V83.094C602.521 83.332 601.863 83.514 601.247 83.626C600.113 83.836 599.203 84.032 599.203 85.096C599.203 86.062 599.959 86.272 600.701 86.272ZM604.971 80.686V79.762H606.021V77.48H607.155V79.762H608.555V80.686H607.155V85.39C607.155 85.894 607.421 86.062 607.883 86.062C608.107 86.062 608.359 86.006 608.485 85.964H608.527V86.944C608.261 87 607.953 87.042 607.617 87.042C606.693 87.042 606.021 86.664 606.021 85.642V80.686H604.971ZM612.752 87.196C610.596 87.196 609.252 85.488 609.252 83.388C609.252 81.288 610.596 79.58 612.752 79.58C614.922 79.58 616.238 81.288 616.238 83.388C616.238 85.488 614.922 87.196 612.752 87.196ZM612.752 86.244C614.292 86.244 615.076 84.984 615.076 83.388C615.076 81.792 614.292 80.518 612.752 80.518C611.212 80.518 610.414 81.792 610.414 83.388C610.414 84.984 611.212 86.244 612.752 86.244ZM618.503 79.762V80.966H618.531C618.965 80.266 619.721 79.678 620.687 79.678C620.897 79.678 621.009 79.706 621.149 79.762V80.854H621.107C620.939 80.798 620.827 80.784 620.603 80.784C619.483 80.784 618.503 81.624 618.503 82.982V87H617.369V79.762H618.503Z" fill="black" fill-opacity="0.8"/>
<path d="M389 138.5C388.172 138.5 387.5 139.172 387.5 140C387.5 140.828 388.172 141.5 389 141.5V138.5ZM486.061 83.0607C486.646 82.4749 486.646 81.5251 486.061 80.9393L476.515 71.3934C475.929 70.8076 474.979 70.8076 474.393 71.3934C473.808 71.9792 473.808 72.9289 474.393 73.5147L482.879 82L474.393 90.4853C473.808 91.0711 473.808 92.0208 474.393 92.6066C474.979 93.1924 475.929 93.1924 476.515 92.6066L486.061 83.0607ZM389 141.5H417V138.5H389V141.5ZM442.5 116V106H439.5V116H442.5ZM465 83.5H485V80.5H465V83.5ZM442.5 106C442.5 93.5736 452.574 83.5 465 83.5V80.5C450.917 80.5 439.5 91.9167 439.5 106H442.5ZM417 141.5C431.083 141.5 442.5 130.083 442.5 116H439.5C439.5 128.426 429.426 138.5 417 138.5V141.5Z" fill="#BDE3FF"/>
<rect x="489" y="121" width="160" height="38" rx="8" fill="#E4CCFF" stroke="#B6A3CC" stroke-width="2" stroke-miterlimit="0"/>
<path d="M518.291 145.196C515.449 145.196 513.601 143.026 513.601 139.988C513.601 137.048 515.365 134.766 518.347 134.766C520.685 134.766 522.099 136.11 522.365 137.958H521.133C520.895 136.712 519.901 135.858 518.319 135.858C516.121 135.858 514.889 137.636 514.889 139.988C514.889 142.438 516.247 144.09 518.333 144.09C520.223 144.09 521.119 142.802 521.245 141.332H522.491C522.477 142.326 522.001 143.446 521.287 144.146C520.587 144.832 519.565 145.196 518.291 145.196ZM524.871 137.762V138.966H524.899C525.333 138.266 526.089 137.678 527.055 137.678C527.265 137.678 527.377 137.706 527.517 137.762V138.854H527.475C527.307 138.798 527.195 138.784 526.971 138.784C525.851 138.784 524.871 139.624 524.871 140.982V145H523.737V137.762H524.871ZM531.356 145.196C529.144 145.196 527.856 143.488 527.856 141.388C527.856 139.288 529.228 137.58 531.286 137.58C533.456 137.58 534.618 139.26 534.618 141.654H529.018C529.102 143.124 529.9 144.244 531.356 144.244C532.406 144.244 533.106 143.74 533.358 142.76H534.464C534.128 144.314 532.994 145.196 531.356 145.196ZM531.286 138.476C529.942 138.476 529.214 139.484 529.046 140.8H533.4C533.33 139.358 532.588 138.476 531.286 138.476ZM541.411 145.07C540.669 145.07 540.277 144.734 540.165 143.992H540.151C539.717 144.552 538.975 145.14 537.743 145.14C536.371 145.14 535.293 144.496 535.293 143.124C535.293 141.416 536.637 141.066 538.443 140.786C539.465 140.632 540.179 140.534 540.179 139.75C540.179 138.938 539.591 138.476 538.555 138.476C537.379 138.476 536.791 138.98 536.749 140.072H535.657C535.699 138.672 536.623 137.622 538.541 137.622C540.081 137.622 541.215 138.196 541.215 139.918V143.362C541.215 143.95 541.355 144.272 541.985 144.132H542.027V144.958C541.887 145.014 541.705 145.07 541.411 145.07ZM537.995 144.272C539.507 144.272 540.193 143.166 540.193 142.326V141.094C539.815 141.332 539.157 141.514 538.541 141.626C537.407 141.836 536.497 142.032 536.497 143.096C536.497 144.062 537.253 144.272 537.995 144.272ZM542.265 138.686V137.762H543.315V135.48H544.449V137.762H545.849V138.686H544.449V143.39C544.449 143.894 544.715 144.062 545.177 144.062C545.401 144.062 545.653 144.006 545.779 143.964H545.821V144.944C545.555 145 545.247 145.042 544.911 145.042C543.987 145.042 543.315 144.664 543.315 143.642V138.686H542.265ZM550.046 145.196C547.834 145.196 546.546 143.488 546.546 141.388C546.546 139.288 547.918 137.58 549.976 137.58C552.146 137.58 553.308 139.26 553.308 141.654H547.708C547.792 143.124 548.59 144.244 550.046 144.244C551.096 144.244 551.796 143.74 552.048 142.76H553.154C552.818 144.314 551.684 145.196 550.046 145.196ZM549.976 138.476C548.632 138.476 547.904 139.484 547.736 140.8H552.09C552.02 139.358 551.278 138.476 549.976 138.476ZM556.645 145V137.762H557.779V138.798H557.807C558.255 138.098 559.025 137.594 559.935 137.594C560.817 137.594 561.517 138.042 561.825 138.882H561.853C562.315 138.056 563.183 137.594 564.065 137.594C565.353 137.594 566.263 138.42 566.263 139.918V145H565.129V139.974C565.129 139.078 564.527 138.546 563.799 138.546C562.861 138.546 562.021 139.358 562.021 140.492V145H560.887V139.974C560.887 139.078 560.383 138.546 559.641 138.546C558.759 138.546 557.779 139.358 557.779 140.492V145H556.645ZM570.854 145.196C568.698 145.196 567.354 143.488 567.354 141.388C567.354 139.288 568.698 137.58 570.854 137.58C573.024 137.58 574.34 139.288 574.34 141.388C574.34 143.488 573.024 145.196 570.854 145.196ZM570.854 144.244C572.394 144.244 573.178 142.984 573.178 141.388C573.178 139.792 572.394 138.518 570.854 138.518C569.314 138.518 568.516 139.792 568.516 141.388C568.516 142.984 569.314 144.244 570.854 144.244ZM578.565 145.196C576.409 145.196 575.065 143.488 575.065 141.388C575.065 139.288 576.409 137.58 578.565 137.58C580.735 137.58 582.051 139.288 582.051 141.388C582.051 143.488 580.735 145.196 578.565 145.196ZM578.565 144.244C580.105 144.244 580.889 142.984 580.889 141.388C580.889 139.792 580.105 138.518 578.565 138.518C577.025 138.518 576.227 139.792 576.227 141.388C576.227 142.984 577.025 144.244 578.565 144.244ZM585.982 145.21C584.008 145.21 582.776 143.726 582.776 141.402C582.776 138.994 584.162 137.594 585.954 137.594C586.976 137.594 587.76 138.098 588.222 138.784H588.25V134.99H589.384V145H588.25V144.118H588.222C587.676 144.818 587.004 145.21 585.982 145.21ZM586.024 144.258C587.634 144.258 588.32 143.054 588.32 141.416C588.32 139.736 587.508 138.56 586.01 138.56C584.638 138.56 583.938 139.792 583.938 141.416C583.938 143.054 584.638 144.258 586.024 144.258ZM594.364 145.21C593.384 145.21 592.67 144.86 592.082 144.048H592.054V145H590.92V134.99H592.054V138.798H592.082C592.628 138.056 593.356 137.594 594.406 137.594C596.24 137.594 597.486 138.994 597.486 141.402C597.486 143.726 596.324 145.21 594.364 145.21ZM594.28 144.258C595.666 144.258 596.324 143.054 596.324 141.416C596.324 139.792 595.666 138.56 594.294 138.56C592.712 138.56 591.984 139.848 591.984 141.416C591.984 143.04 592.74 144.258 594.28 144.258ZM601.712 145.196C599.556 145.196 598.212 143.488 598.212 141.388C598.212 139.288 599.556 137.58 601.712 137.58C603.882 137.58 605.198 139.288 605.198 141.388C605.198 143.488 603.882 145.196 601.712 145.196ZM601.712 144.244C603.252 144.244 604.036 142.984 604.036 141.388C604.036 139.792 603.252 138.518 601.712 138.518C600.172 138.518 599.374 139.792 599.374 141.388C599.374 142.984 600.172 144.244 601.712 144.244ZM612.013 145.07C611.271 145.07 610.879 144.734 610.767 143.992H610.753C610.319 144.552 609.577 145.14 608.345 145.14C606.973 145.14 605.895 144.496 605.895 143.124C605.895 141.416 607.239 141.066 609.045 140.786C610.067 140.632 610.781 140.534 610.781 139.75C610.781 138.938 610.193 138.476 609.157 138.476C607.981 138.476 607.393 138.98 607.351 140.072H606.259C606.301 138.672 607.225 137.622 609.143 137.622C610.683 137.622 611.817 138.196 611.817 139.918V143.362C611.817 143.95 611.957 144.272 612.587 144.132H612.629V144.958C612.489 145.014 612.307 145.07 612.013 145.07ZM608.597 144.272C610.109 144.272 610.795 143.166 610.795 142.326V141.094C610.417 141.332 609.759 141.514 609.143 141.626C608.009 141.836 607.099 142.032 607.099 143.096C607.099 144.062 607.855 144.272 608.597 144.272ZM614.599 137.762V138.966H614.627C615.061 138.266 615.817 137.678 616.783 137.678C616.993 137.678 617.105 137.706 617.245 137.762V138.854H617.203C617.035 138.798 616.923 138.784 616.699 138.784C615.579 138.784 614.599 139.624 614.599 140.982V145H613.465V137.762H614.599ZM620.791 145.21C618.817 145.21 617.585 143.726 617.585 141.402C617.585 138.994 618.971 137.594 620.763 137.594C621.785 137.594 622.569 138.098 623.031 138.784H623.059V134.99H624.193V145H623.059V144.118H623.031C622.485 144.818 621.813 145.21 620.791 145.21ZM620.833 144.258C622.443 144.258 623.129 143.054 623.129 141.416C623.129 139.736 622.317 138.56 620.819 138.56C619.447 138.56 618.747 139.792 618.747 141.416C618.747 143.054 619.447 144.258 620.833 144.258Z" fill="black" fill-opacity="0.8"/>
<path d="M389 138.5C388.172 138.5 387.5 139.172 387.5 140C387.5 140.828 388.172 141.5 389 141.5V138.5ZM486.061 141.061C486.646 140.475 486.646 139.525 486.061 138.939L476.515 129.393C475.929 128.808 474.979 128.808 474.393 129.393C473.808 129.979 473.808 130.929 474.393 131.515L482.879 140L474.393 148.485C473.808 149.071 473.808 150.021 474.393 150.607C474.979 151.192 475.929 151.192 476.515 150.607L486.061 141.061ZM389 141.5H485V138.5H389V141.5Z" fill="#BDE3FF"/>
<rect x="489" y="178" width="160" height="38" rx="8" fill="#E4CCFF" stroke="#B6A3CC" stroke-width="2" stroke-miterlimit="0"/>
<path d="M544.691 202.196C541.849 202.196 540.001 200.026 540.001 196.988C540.001 194.048 541.765 191.766 544.747 191.766C547.085 191.766 548.499 193.11 548.765 194.958H547.533C547.295 193.712 546.301 192.858 544.719 192.858C542.521 192.858 541.289 194.636 541.289 196.988C541.289 199.438 542.647 201.09 544.733 201.09C546.623 201.09 547.519 199.802 547.645 198.332H548.891C548.877 199.326 548.401 200.446 547.687 201.146C546.987 201.832 545.965 202.196 544.691 202.196ZM551.271 194.762V195.966H551.299C551.733 195.266 552.489 194.678 553.455 194.678C553.665 194.678 553.777 194.706 553.917 194.762V195.854H553.875C553.707 195.798 553.595 195.784 553.371 195.784C552.251 195.784 551.271 196.624 551.271 197.982V202H550.137V194.762H551.271ZM557.757 202.196C555.545 202.196 554.257 200.488 554.257 198.388C554.257 196.288 555.629 194.58 557.687 194.58C559.857 194.58 561.019 196.26 561.019 198.654H555.419C555.503 200.124 556.301 201.244 557.757 201.244C558.807 201.244 559.507 200.74 559.759 199.76H560.865C560.529 201.314 559.395 202.196 557.757 202.196ZM557.687 195.476C556.343 195.476 555.615 196.484 555.447 197.8H559.801C559.731 196.358 558.989 195.476 557.687 195.476ZM567.811 202.07C567.069 202.07 566.677 201.734 566.565 200.992H566.551C566.117 201.552 565.375 202.14 564.143 202.14C562.771 202.14 561.693 201.496 561.693 200.124C561.693 198.416 563.037 198.066 564.843 197.786C565.865 197.632 566.579 197.534 566.579 196.75C566.579 195.938 565.991 195.476 564.955 195.476C563.779 195.476 563.191 195.98 563.149 197.072H562.057C562.099 195.672 563.023 194.622 564.941 194.622C566.481 194.622 567.615 195.196 567.615 196.918V200.362C567.615 200.95 567.755 201.272 568.385 201.132H568.427V201.958C568.287 202.014 568.105 202.07 567.811 202.07ZM564.395 201.272C565.907 201.272 566.593 200.166 566.593 199.326V198.094C566.215 198.332 565.557 198.514 564.941 198.626C563.807 198.836 562.897 199.032 562.897 200.096C562.897 201.062 563.653 201.272 564.395 201.272ZM568.665 195.686V194.762H569.715V192.48H570.849V194.762H572.249V195.686H570.849V200.39C570.849 200.894 571.115 201.062 571.577 201.062C571.801 201.062 572.053 201.006 572.179 200.964H572.221V201.944C571.955 202 571.647 202.042 571.311 202.042C570.387 202.042 569.715 201.664 569.715 200.642V195.686H568.665ZM576.446 202.196C574.234 202.196 572.946 200.488 572.946 198.388C572.946 196.288 574.318 194.58 576.376 194.58C578.546 194.58 579.708 196.26 579.708 198.654H574.108C574.192 200.124 574.99 201.244 576.446 201.244C577.496 201.244 578.196 200.74 578.448 199.76H579.554C579.218 201.314 578.084 202.196 576.446 202.196ZM576.376 195.476C575.032 195.476 574.304 196.484 574.136 197.8H578.49C578.42 196.358 577.678 195.476 576.376 195.476ZM583.087 202V191.99H584.221V202H583.087ZM585.807 202V194.762H586.941V202H585.807ZM585.807 193.39V191.99H586.941V193.39H585.807ZM591.231 202.21C589.243 202.21 588.137 201.272 588.025 199.648H589.187C589.341 200.908 590.181 201.258 591.259 201.258C592.449 201.258 592.939 200.74 592.939 200.068C592.939 199.256 592.379 199.046 591.049 198.766C589.621 198.472 588.347 198.178 588.347 196.596C588.347 195.392 589.271 194.608 590.951 194.608C592.743 194.608 593.625 195.462 593.793 196.876H592.631C592.519 195.924 592.001 195.504 590.923 195.504C589.887 195.504 589.467 195.966 589.467 196.54C589.467 197.324 590.167 197.478 591.413 197.73C592.869 198.024 594.087 198.346 594.087 200.012C594.087 201.468 592.897 202.21 591.231 202.21ZM594.574 195.686V194.762H595.624V192.48H596.758V194.762H598.158V195.686H596.758V200.39C596.758 200.894 597.024 201.062 597.486 201.062C597.71 201.062 597.962 201.006 598.088 200.964H598.13V201.944C597.864 202 597.556 202.042 597.22 202.042C596.296 202.042 595.624 201.664 595.624 200.642V195.686H594.574Z" fill="black" fill-opacity="0.8"/>
<path d="M389 138.5C388.172 138.5 387.5 139.172 387.5 140C387.5 140.828 388.172 141.5 389 141.5V138.5ZM486.061 198.061C486.646 197.475 486.646 196.525 486.061 195.939L476.515 186.393C475.929 185.808 474.979 185.808 474.393 186.393C473.808 186.979 473.808 187.929 474.393 188.515L482.879 197L474.393 205.485C473.808 206.071 473.808 207.021 474.393 207.607C474.979 208.192 475.929 208.192 476.515 207.607L486.061 198.061ZM389 141.5H414V138.5H389V141.5ZM436.5 164V173H439.5V164H436.5ZM462 198.5H485V195.5H462V198.5ZM436.5 173C436.5 187.083 447.917 198.5 462 198.5V195.5C449.574 195.5 439.5 185.426 439.5 173H436.5ZM414 141.5C426.426 141.5 436.5 151.574 436.5 164H439.5C439.5 149.917 428.083 138.5 414 138.5V141.5Z" fill="#BDE3FF"/>
<rect x="708" y="113" width="150" height="43" rx="3" fill="#76B80A" stroke="#538206" stroke-width="2" stroke-miterlimit="0"/>
<path d="M737.337 140V129.99H740.977C743.987 129.99 745.415 132.034 745.415 135.03C745.415 138.026 743.889 140 740.879 140H737.337ZM738.597 138.894H740.837C743.189 138.894 744.127 137.382 744.127 135.03C744.127 132.678 743.287 131.082 740.935 131.082H738.597V138.894ZM749.567 140.196C747.411 140.196 746.067 138.488 746.067 136.388C746.067 134.288 747.411 132.58 749.567 132.58C751.737 132.58 753.053 134.288 753.053 136.388C753.053 138.488 751.737 140.196 749.567 140.196ZM749.567 139.244C751.107 139.244 751.891 137.984 751.891 136.388C751.891 134.792 751.107 133.518 749.567 133.518C748.027 133.518 747.229 134.792 747.229 136.388C747.229 137.984 748.027 139.244 749.567 139.244ZM755.363 140L753.067 132.762H754.285L755.559 137.228C755.727 137.83 755.951 138.782 755.951 138.782H755.979C755.979 138.782 756.189 137.83 756.343 137.256L757.561 132.762H758.751L759.927 137.256C760.081 137.844 760.277 138.782 760.277 138.782H760.305C760.305 138.782 760.529 137.83 760.711 137.228L762.055 132.762H763.231L760.865 140H759.703L758.499 135.618C758.331 135.016 758.149 134.106 758.149 134.106H758.121C758.121 134.106 757.925 135.016 757.757 135.618L756.539 140H755.363ZM764.931 132.762V133.714H764.959C765.477 133.028 766.205 132.594 767.255 132.594C768.767 132.594 769.691 133.42 769.691 134.918V140H768.557V135.016C768.557 134.078 767.941 133.546 766.919 133.546C765.771 133.546 764.931 134.358 764.931 135.548V140H763.797V132.762H764.931ZM770.969 140V129.99H772.103V140H770.969ZM776.517 140.196C774.361 140.196 773.017 138.488 773.017 136.388C773.017 134.288 774.361 132.58 776.517 132.58C778.687 132.58 780.003 134.288 780.003 136.388C780.003 138.488 778.687 140.196 776.517 140.196ZM776.517 139.244C778.057 139.244 778.841 137.984 778.841 136.388C778.841 134.792 778.057 133.518 776.517 133.518C774.977 133.518 774.179 134.792 774.179 136.388C774.179 137.984 774.977 139.244 776.517 139.244ZM786.552 140.07C785.81 140.07 785.418 139.734 785.306 138.992H785.292C784.858 139.552 784.116 140.14 782.884 140.14C781.512 140.14 780.434 139.496 780.434 138.124C780.434 136.416 781.778 136.066 783.584 135.786C784.606 135.632 785.32 135.534 785.32 134.75C785.32 133.938 784.732 133.476 783.696 133.476C782.52 133.476 781.932 133.98 781.89 135.072H780.798C780.84 133.672 781.764 132.622 783.682 132.622C785.222 132.622 786.356 133.196 786.356 134.918V138.362C786.356 138.95 786.496 139.272 787.126 139.132H787.168V139.958C787.028 140.014 786.846 140.07 786.552 140.07ZM783.136 139.272C784.648 139.272 785.334 138.166 785.334 137.326V136.094C784.956 136.332 784.298 136.514 783.682 136.626C782.548 136.836 781.638 137.032 781.638 138.096C781.638 139.062 782.394 139.272 783.136 139.272ZM790.539 140.21C788.565 140.21 787.333 138.726 787.333 136.402C787.333 133.994 788.719 132.594 790.511 132.594C791.533 132.594 792.317 133.098 792.779 133.784H792.807V129.99H793.941V140H792.807V139.118H792.779C792.233 139.818 791.561 140.21 790.539 140.21ZM790.581 139.258C792.191 139.258 792.877 138.054 792.877 136.416C792.877 134.736 792.065 133.56 790.567 133.56C789.195 133.56 788.495 134.792 788.495 136.416C788.495 138.054 789.195 139.258 790.581 139.258ZM802.227 142.324V139.118H802.199C801.653 139.818 800.995 140.21 799.959 140.21C797.999 140.21 796.809 138.726 796.809 136.402C796.809 133.994 798.153 132.594 799.917 132.594C800.967 132.594 801.695 133.014 802.199 133.728H802.227V132.762H803.361V142.324H802.227ZM800.015 139.258C801.681 139.258 802.297 138.054 802.297 136.416C802.297 134.736 801.583 133.56 800.001 133.56C798.629 133.56 797.971 134.792 797.971 136.416C797.971 138.054 798.629 139.258 800.015 139.258ZM810.372 140H809.238V139.006H809.21C808.692 139.706 808.076 140.168 807.026 140.168C805.542 140.168 804.59 139.272 804.59 137.774V132.762H805.724V137.746C805.724 138.684 806.326 139.23 807.348 139.23C808.496 139.23 809.238 138.362 809.238 137.214V132.762H810.372V140ZM814.733 140.196C812.577 140.196 811.233 138.488 811.233 136.388C811.233 134.288 812.577 132.58 814.733 132.58C816.903 132.58 818.219 134.288 818.219 136.388C818.219 138.488 816.903 140.196 814.733 140.196ZM814.733 139.244C816.273 139.244 817.057 137.984 817.057 136.388C817.057 134.792 816.273 133.518 814.733 133.518C813.193 133.518 812.395 134.792 812.395 136.388C812.395 137.984 813.193 139.244 814.733 139.244ZM818.486 133.686V132.762H819.536V130.48H820.67V132.762H822.07V133.686H820.67V138.39C820.67 138.894 820.936 139.062 821.398 139.062C821.622 139.062 821.874 139.006 822 138.964H822.042V139.944C821.776 140 821.468 140.042 821.132 140.042C820.208 140.042 819.536 139.664 819.536 138.642V133.686H818.486ZM826 140.196C823.788 140.196 822.5 138.488 822.5 136.388C822.5 134.288 823.872 132.58 825.93 132.58C828.1 132.58 829.262 134.26 829.262 136.654H823.662C823.746 138.124 824.544 139.244 826 139.244C827.05 139.244 827.75 138.74 828.002 137.76H829.108C828.772 139.314 827.638 140.196 826 140.196ZM825.93 133.476C824.586 133.476 823.858 134.484 823.69 135.8H828.044C827.974 134.358 827.232 133.476 825.93 133.476Z" fill="#314A09"/>
<path d="M653 195.5C652.172 195.5 651.5 196.172 651.5 197C651.5 197.828 652.172 198.5 653 198.5V195.5ZM705.061 135.561C705.646 134.975 705.646 134.025 705.061 133.439L695.515 123.893C694.929 123.308 693.979 123.308 693.393 123.893C692.808 124.479 692.808 125.429 693.393 126.015L701.879 134.5L693.393 142.985C692.808 143.571 692.808 144.521 693.393 145.107C693.979 145.692 694.929 145.692 695.515 145.107L705.061 135.561ZM667.5 184V158.5H664.5V184H667.5ZM690 136H704V133H690V136ZM667.5 158.5C667.5 146.074 677.574 136 690 136V133C675.917 133 664.5 144.417 664.5 158.5H667.5ZM653 198.5C661.008 198.5 667.5 192.008 667.5 184H664.5C664.5 190.351 659.351 195.5 653 195.5V198.5Z" fill="#BDE3FF"/>
<path d="M989.993 55.1319C992.087 53.6227 994.913 53.6227 997.007 55.1319L1071.51 107.132C1074.83 109.526 1074.83 114.474 1071.51 116.868L997.007 168.868C994.913 170.377 992.087 170.377 989.993 168.868L915.493 116.868C912.169 114.474 912.169 109.526 915.493 107.132L989.993 55.1319Z" fill="#E6E6E6" stroke="#B8B8B8" stroke-width="4" stroke-miterlimit="0" stroke-dasharray="6 4"/>
<path d="M975.29 102.493C975.237 102.022 975.019 101.658 974.634 101.399C974.25 101.137 973.766 101.006 973.182 101.006C972.765 101.006 972.404 101.073 972.099 101.205C971.794 101.335 971.557 101.513 971.388 101.742C971.222 101.968 971.139 102.224 971.139 102.513C971.139 102.755 971.195 102.964 971.308 103.139C971.424 103.315 971.575 103.462 971.761 103.582C971.949 103.698 972.152 103.795 972.367 103.875C972.583 103.951 972.79 104.014 972.989 104.064L973.983 104.322C974.308 104.402 974.641 104.51 974.982 104.646C975.324 104.781 975.64 104.96 975.932 105.183C976.223 105.405 976.459 105.68 976.638 106.008C976.82 106.336 976.911 106.729 976.911 107.186C976.911 107.763 976.762 108.275 976.464 108.722C976.169 109.17 975.739 109.523 975.176 109.781C974.616 110.04 973.938 110.169 973.143 110.169C972.38 110.169 971.721 110.048 971.164 109.806C970.607 109.564 970.171 109.221 969.856 108.777C969.542 108.33 969.368 107.799 969.334 107.186H970.876C970.905 107.554 971.025 107.861 971.234 108.106C971.446 108.348 971.716 108.528 972.044 108.648C972.375 108.764 972.738 108.822 973.133 108.822C973.567 108.822 973.953 108.754 974.291 108.618C974.632 108.479 974.901 108.286 975.096 108.041C975.292 107.793 975.39 107.503 975.39 107.171C975.39 106.87 975.304 106.623 975.131 106.43C974.962 106.238 974.732 106.079 974.44 105.953C974.152 105.827 973.825 105.716 973.461 105.62L972.258 105.292C971.442 105.07 970.796 104.743 970.319 104.312C969.845 103.882 969.608 103.312 969.608 102.602C969.608 102.016 969.767 101.504 970.085 101.066C970.403 100.629 970.834 100.289 971.378 100.047C971.921 99.8016 972.534 99.679 973.217 99.679C973.907 99.679 974.515 99.8 975.042 100.042C975.572 100.284 975.99 100.617 976.295 101.041C976.6 101.462 976.759 101.946 976.772 102.493H975.29ZM981.653 110.154C980.9 110.154 980.252 109.993 979.709 109.672C979.169 109.347 978.751 108.891 978.456 108.305C978.164 107.715 978.019 107.024 978.019 106.232C978.019 105.449 978.164 104.76 978.456 104.163C978.751 103.567 979.162 103.101 979.689 102.766C980.219 102.432 980.839 102.264 981.548 102.264C981.979 102.264 982.397 102.335 982.801 102.478C983.206 102.621 983.568 102.844 983.89 103.149C984.211 103.454 984.465 103.85 984.651 104.337C984.836 104.821 984.929 105.41 984.929 106.102V106.629H978.859V105.516H983.472C983.472 105.125 983.393 104.778 983.234 104.477C983.075 104.172 982.851 103.931 982.563 103.756C982.278 103.58 981.943 103.492 981.558 103.492C981.141 103.492 980.776 103.595 980.465 103.8C980.156 104.003 979.918 104.268 979.749 104.596C979.583 104.921 979.5 105.274 979.5 105.655V106.525C979.5 107.035 979.59 107.469 979.769 107.827C979.951 108.185 980.204 108.459 980.529 108.648C980.854 108.833 981.233 108.926 981.668 108.926C981.949 108.926 982.206 108.886 982.438 108.807C982.67 108.724 982.871 108.601 983.04 108.439C983.209 108.277 983.338 108.076 983.428 107.837L984.835 108.091C984.722 108.505 984.52 108.868 984.228 109.18C983.94 109.488 983.577 109.728 983.139 109.901C982.705 110.07 982.21 110.154 981.653 110.154ZM987.799 105.466V110H986.312V102.364H987.739V103.607H987.834C988.009 103.202 988.284 102.877 988.659 102.632C989.037 102.387 989.512 102.264 990.086 102.264C990.606 102.264 991.062 102.374 991.453 102.592C991.844 102.808 992.147 103.129 992.363 103.557C992.578 103.984 992.686 104.513 992.686 105.143V110H991.199V105.322C991.199 104.768 991.055 104.336 990.767 104.024C990.479 103.709 990.082 103.552 989.579 103.552C989.234 103.552 988.927 103.626 988.659 103.776C988.394 103.925 988.183 104.143 988.028 104.432C987.875 104.717 987.799 105.062 987.799 105.466ZM997.272 110.149C996.656 110.149 996.106 109.992 995.622 109.677C995.141 109.359 994.763 108.906 994.488 108.32C994.216 107.73 994.08 107.022 994.08 106.197C994.08 105.371 994.218 104.665 994.493 104.079C994.771 103.492 995.153 103.043 995.637 102.732C996.12 102.42 996.669 102.264 997.282 102.264C997.756 102.264 998.137 102.344 998.426 102.503C998.717 102.659 998.943 102.841 999.102 103.05C999.264 103.259 999.39 103.442 999.48 103.602H999.569V99.8182H1001.06V110H999.604V108.812H999.48C999.39 108.974 999.261 109.16 999.092 109.369C998.926 109.577 998.697 109.76 998.406 109.915C998.114 110.071 997.736 110.149 997.272 110.149ZM997.6 108.881C998.028 108.881 998.389 108.769 998.684 108.543C998.982 108.315 999.208 107.998 999.36 107.594C999.516 107.189 999.594 106.719 999.594 106.182C999.594 105.652 999.518 105.187 999.365 104.79C999.213 104.392 998.989 104.082 998.694 103.86C998.399 103.638 998.035 103.527 997.6 103.527C997.153 103.527 996.78 103.643 996.482 103.875C996.183 104.107 995.958 104.424 995.806 104.825C995.656 105.226 995.582 105.678 995.582 106.182C995.582 106.692 995.658 107.151 995.811 107.559C995.963 107.967 996.188 108.29 996.487 108.528C996.788 108.764 997.16 108.881 997.6 108.881ZM1009.91 102.364V103.557H1005.74V102.364H1009.91ZM1006.86 100.534H1008.35V107.758C1008.35 108.046 1008.39 108.263 1008.48 108.409C1008.56 108.552 1008.68 108.649 1008.81 108.702C1008.95 108.752 1009.1 108.777 1009.26 108.777C1009.38 108.777 1009.49 108.769 1009.58 108.752C1009.67 108.736 1009.74 108.722 1009.79 108.712L1010.05 109.94C1009.97 109.973 1009.85 110.007 1009.69 110.04C1009.53 110.076 1009.33 110.096 1009.09 110.099C1008.7 110.106 1008.33 110.036 1008 109.891C1007.66 109.745 1007.38 109.519 1007.18 109.214C1006.97 108.91 1006.86 108.527 1006.86 108.066V100.534ZM1014.43 110.154C1013.71 110.154 1013.09 109.99 1012.55 109.662C1012.02 109.334 1011.61 108.875 1011.31 108.285C1011.02 107.695 1010.87 107.005 1010.87 106.217C1010.87 105.424 1011.02 104.732 1011.31 104.138C1011.61 103.545 1012.02 103.085 1012.55 102.756C1013.09 102.428 1013.71 102.264 1014.43 102.264C1015.14 102.264 1015.77 102.428 1016.3 102.756C1016.84 103.085 1017.25 103.545 1017.55 104.138C1017.84 104.732 1017.99 105.424 1017.99 106.217C1017.99 107.005 1017.84 107.695 1017.55 108.285C1017.25 108.875 1016.84 109.334 1016.3 109.662C1015.77 109.99 1015.14 110.154 1014.43 110.154ZM1014.43 108.906C1014.9 108.906 1015.28 108.784 1015.59 108.538C1015.89 108.293 1016.12 107.967 1016.26 107.559C1016.41 107.151 1016.49 106.702 1016.49 106.212C1016.49 105.724 1016.41 105.277 1016.26 104.869C1016.12 104.458 1015.89 104.129 1015.59 103.88C1015.28 103.631 1014.9 103.507 1014.43 103.507C1013.97 103.507 1013.58 103.631 1013.27 103.88C1012.96 104.129 1012.74 104.458 1012.59 104.869C1012.44 105.277 1012.37 105.724 1012.37 106.212C1012.37 106.702 1012.44 107.151 1012.59 107.559C1012.74 107.967 1012.96 108.293 1013.27 108.538C1013.58 108.784 1013.97 108.906 1014.43 108.906ZM980.026 130.154C979.287 130.154 978.651 129.987 978.117 129.652C977.587 129.314 977.179 128.848 976.894 128.255C976.609 127.662 976.467 126.982 976.467 126.217C976.467 125.441 976.613 124.757 976.904 124.163C977.196 123.567 977.607 123.101 978.137 122.766C978.668 122.432 979.292 122.264 980.012 122.264C980.592 122.264 981.109 122.372 981.563 122.587C982.017 122.799 982.383 123.098 982.661 123.482C982.943 123.867 983.11 124.316 983.163 124.83H981.717C981.637 124.472 981.455 124.163 981.17 123.905C980.888 123.646 980.51 123.517 980.036 123.517C979.622 123.517 979.259 123.626 978.948 123.845C978.639 124.061 978.399 124.369 978.227 124.77C978.054 125.168 977.968 125.638 977.968 126.182C977.968 126.739 978.053 127.219 978.222 127.624C978.391 128.028 978.629 128.341 978.938 128.563C979.249 128.785 979.615 128.896 980.036 128.896C980.318 128.896 980.573 128.845 980.802 128.742C981.034 128.636 981.228 128.485 981.384 128.29C981.543 128.094 981.654 127.859 981.717 127.584H983.163C983.11 128.078 982.95 128.518 982.681 128.906C982.413 129.294 982.053 129.599 981.602 129.821C981.155 130.043 980.63 130.154 980.026 130.154ZM985.974 119.818V130H984.487V119.818H985.974ZM987.707 130V122.364H989.194V130H987.707ZM988.458 121.185C988.2 121.185 987.978 121.099 987.792 120.927C987.61 120.751 987.519 120.542 987.519 120.3C987.519 120.055 987.61 119.846 987.792 119.674C987.978 119.498 988.2 119.411 988.458 119.411C988.717 119.411 988.937 119.498 989.119 119.674C989.305 119.846 989.398 120.055 989.398 120.3C989.398 120.542 989.305 120.751 989.119 120.927C988.937 121.099 988.717 121.185 988.458 121.185ZM994.219 130.154C993.467 130.154 992.819 129.993 992.275 129.672C991.735 129.347 991.317 128.891 991.022 128.305C990.731 127.715 990.585 127.024 990.585 126.232C990.585 125.449 990.731 124.76 991.022 124.163C991.317 123.567 991.728 123.101 992.255 122.766C992.786 122.432 993.405 122.264 994.115 122.264C994.545 122.264 994.963 122.335 995.367 122.478C995.772 122.621 996.135 122.844 996.456 123.149C996.778 123.454 997.031 123.85 997.217 124.337C997.402 124.821 997.495 125.41 997.495 126.102V126.629H991.425V125.516H996.039C996.039 125.125 995.959 124.778 995.8 124.477C995.641 124.172 995.417 123.931 995.129 123.756C994.844 123.58 994.509 123.492 994.125 123.492C993.707 123.492 993.342 123.595 993.031 123.8C992.723 124.003 992.484 124.268 992.315 124.596C992.149 124.921 992.066 125.274 992.066 125.655V126.525C992.066 127.035 992.156 127.469 992.335 127.827C992.517 128.185 992.771 128.459 993.095 128.648C993.42 128.833 993.8 128.926 994.234 128.926C994.516 128.926 994.773 128.886 995.005 128.807C995.237 128.724 995.437 128.601 995.606 128.439C995.775 128.277 995.904 128.076 995.994 127.837L997.401 128.091C997.288 128.505 997.086 128.868 996.794 129.18C996.506 129.488 996.143 129.728 995.706 129.901C995.271 130.07 994.776 130.154 994.219 130.154ZM1000.37 125.466V130H998.879V122.364H1000.31V123.607H1000.4C1000.58 123.202 1000.85 122.877 1001.23 122.632C1001.6 122.387 1002.08 122.264 1002.65 122.264C1003.17 122.264 1003.63 122.374 1004.02 122.592C1004.41 122.808 1004.71 123.129 1004.93 123.557C1005.14 123.984 1005.25 124.513 1005.25 125.143V130H1003.77V125.322C1003.77 124.768 1003.62 124.336 1003.33 124.024C1003.04 123.709 1002.65 123.552 1002.14 123.552C1001.8 123.552 1001.49 123.626 1001.23 123.776C1000.96 123.925 1000.75 124.143 1000.59 124.432C1000.44 124.717 1000.37 125.062 1000.37 125.466ZM1010.54 122.364V123.557H1006.37V122.364H1010.54ZM1007.49 120.534H1008.98V127.758C1008.98 128.046 1009.02 128.263 1009.11 128.409C1009.19 128.552 1009.3 128.649 1009.44 128.702C1009.58 128.752 1009.73 128.777 1009.89 128.777C1010.01 128.777 1010.12 128.769 1010.21 128.752C1010.3 128.736 1010.37 128.722 1010.42 128.712L1010.68 129.94C1010.6 129.973 1010.47 130.007 1010.32 130.04C1010.16 130.076 1009.96 130.096 1009.72 130.099C1009.33 130.106 1008.96 130.036 1008.63 129.891C1008.29 129.745 1008.01 129.519 1007.81 129.214C1007.6 128.91 1007.49 128.527 1007.49 128.066V120.534Z" fill="black" fill-opacity="0.8"/>
<path d="M992 50C992 50.8284 992.672 51.5 993.5 51.5C994.328 51.5 995 50.8284 995 50H992ZM567.939 60.0607C568.525 60.6464 569.475 60.6464 570.061 60.0607L579.607 50.5147C580.192 49.9289 580.192 48.9792 579.607 48.3934C579.021 47.8076 578.071 47.8076 577.485 48.3934L569 56.8787L560.515 48.3934C559.929 47.8076 558.979 47.8076 558.393 48.3934C557.808 48.9792 557.808 49.9289 558.393 50.5147L567.939 60.0607ZM995 50V44H992V50H995ZM969.5 18.5H833.443V21.5H969.5V18.5ZM733.443 18.5H593V21.5H733.443V18.5ZM567.5 44V59H570.5V44H567.5ZM593 18.5C578.917 18.5 567.5 29.9167 567.5 44H570.5C570.5 31.5736 580.574 21.5 593 21.5V18.5ZM995 44C995 29.9167 983.583 18.5 969.5 18.5V21.5C981.926 21.5 992 31.5736 992 44H995Z" fill="#EE9393"/>
<path d="M742.323 25V13.56H744.675L748.483 19.944C748.851 20.568 749.283 21.544 749.283 21.544H749.315C749.315 21.544 749.251 20.36 749.251 19.56V13.56H751.539V25H749.299L745.395 18.68C745.027 18.072 744.579 17.096 744.579 17.096H744.547C744.547 17.096 744.611 18.296 744.611 19.096V25H742.323ZM756.828 25.24C754.284 25.24 752.54 23.352 752.54 20.904C752.54 18.456 754.284 16.568 756.828 16.568C759.372 16.568 761.116 18.456 761.116 20.904C761.116 23.352 759.372 25.24 756.828 25.24ZM756.828 23.576C758.156 23.576 758.908 22.504 758.908 20.904C758.908 19.304 758.156 18.216 756.828 18.216C755.484 18.216 754.748 19.304 754.748 20.904C754.748 22.504 755.484 23.576 756.828 23.576ZM761.315 18.232V16.792H762.451V14.232H764.579V16.792H765.987V18.232H764.579V22.584C764.579 23.192 764.915 23.4 765.395 23.4C765.667 23.4 766.035 23.384 766.035 23.384V24.984C766.035 24.984 765.539 25.016 764.675 25.016C763.619 25.016 762.451 24.6 762.451 23.048V18.232H761.315ZM774.611 25C774.483 24.84 774.403 24.456 774.355 24.088H774.323C773.907 24.712 773.315 25.192 771.907 25.192C770.227 25.192 769.043 24.312 769.043 22.68C769.043 20.872 770.515 20.296 772.339 20.04C773.699 19.848 774.323 19.736 774.323 19.112C774.323 18.52 773.859 18.136 772.947 18.136C771.923 18.136 771.427 18.504 771.363 19.288H769.427C769.491 17.848 770.563 16.584 772.963 16.584C775.427 16.584 776.419 17.688 776.419 19.608V23.784C776.419 24.408 776.515 24.776 776.707 24.92V25H774.611ZM772.435 23.672C773.683 23.672 774.371 22.904 774.371 22.104V20.872C773.987 21.096 773.395 21.224 772.851 21.352C771.715 21.608 771.155 21.864 771.155 22.632C771.155 23.4 771.667 23.672 772.435 23.672ZM777.626 27.688V16.792H779.722V17.816H779.77C780.298 17.096 781.066 16.568 782.186 16.568C784.362 16.568 785.754 18.344 785.754 20.904C785.754 23.56 784.314 25.24 782.202 25.24C781.05 25.24 780.298 24.776 779.834 24.072H779.802V27.688H777.626ZM781.738 23.432C782.842 23.432 783.546 22.52 783.546 20.968C783.546 19.416 783.002 18.328 781.658 18.328C780.298 18.328 779.754 19.496 779.754 20.968C779.754 22.456 780.442 23.432 781.738 23.432ZM786.591 27.688V16.792H788.687V17.816H788.735C789.263 17.096 790.031 16.568 791.151 16.568C793.327 16.568 794.719 18.344 794.719 20.904C794.719 23.56 793.279 25.24 791.167 25.24C790.015 25.24 789.263 24.776 788.799 24.072H788.767V27.688H786.591ZM790.703 23.432C791.807 23.432 792.511 22.52 792.511 20.968C792.511 19.416 791.967 18.328 790.623 18.328C789.263 18.328 788.719 19.496 788.719 20.968C788.719 22.456 789.407 23.432 790.703 23.432ZM797.651 16.792V18.104H797.699C798.195 17.176 798.755 16.696 799.715 16.696C799.955 16.696 800.099 16.712 800.227 16.76V18.664H800.179C798.755 18.52 797.731 19.272 797.731 21V25H795.555V16.792H797.651ZM804.642 25.24C802.098 25.24 800.354 23.352 800.354 20.904C800.354 18.456 802.098 16.568 804.642 16.568C807.186 16.568 808.93 18.456 808.93 20.904C808.93 23.352 807.186 25.24 804.642 25.24ZM804.642 23.576C805.97 23.576 806.722 22.504 806.722 20.904C806.722 19.304 805.97 18.216 804.642 18.216C803.298 18.216 802.562 19.304 802.562 20.904C802.562 22.504 803.298 23.576 804.642 23.576ZM811.708 25L808.86 16.792H811.068L812.38 21.048C812.62 21.832 812.748 22.36 812.748 22.36H812.78C812.78 22.36 812.892 21.832 813.132 21.048L814.476 16.792H816.652L813.788 25H811.708ZM820.837 25.24C818.117 25.24 816.581 23.336 816.581 20.888C816.581 18.456 818.229 16.568 820.629 16.568C823.269 16.568 824.677 18.584 824.677 21.512H818.725C818.885 22.776 819.589 23.56 820.821 23.56C821.669 23.56 822.165 23.176 822.405 22.552H824.549C824.245 24.008 822.949 25.24 820.837 25.24ZM820.661 18.248C819.509 18.248 818.949 18.936 818.757 20.008H822.405C822.341 18.968 821.653 18.248 820.661 18.248Z" fill="#CD6A6A"/>
<path d="M862 133C861.172 133 860.5 133.672 860.5 134.5C860.5 135.328 861.172 136 862 136V133ZM910.061 113.061C910.646 112.475 910.646 111.525 910.061 110.939L900.515 101.393C899.929 100.808 898.979 100.808 898.393 101.393C897.808 101.979 897.808 102.929 898.393 103.515L906.879 112L898.393 120.485C897.808 121.071 897.808 122.021 898.393 122.607C898.979 123.192 899.929 123.192 900.515 122.607L910.061 113.061ZM885.5 123.25H887H885.5ZM885.5 123.25H887H885.5ZM862 136H874.25V133H862V136ZM896.75 113.5H909V110.5H896.75V113.5ZM887 123.25C887 117.865 891.365 113.5 896.75 113.5V110.5C889.708 110.5 884 116.208 884 123.25H887ZM874.25 136C881.292 136 887 130.292 887 123.25H884C884 128.635 879.635 133 874.25 133V136Z" fill="#B3B3B3"/>
<rect x="893" y="274" width="202" height="46" rx="18.4" fill="#76B80A" stroke="#538206" stroke-width="2" stroke-miterlimit="0"/>
<path d="M954.824 293.096V291.99H962.748V293.096H959.416V302H958.156V293.096H954.824ZM967.635 302.07C966.893 302.07 966.501 301.734 966.389 300.992H966.375C965.941 301.552 965.199 302.14 963.967 302.14C962.595 302.14 961.517 301.496 961.517 300.124C961.517 298.416 962.861 298.066 964.667 297.786C965.689 297.632 966.403 297.534 966.403 296.75C966.403 295.938 965.815 295.476 964.779 295.476C963.603 295.476 963.015 295.98 962.973 297.072H961.881C961.923 295.672 962.847 294.622 964.765 294.622C966.305 294.622 967.439 295.196 967.439 296.918V300.362C967.439 300.95 967.579 301.272 968.209 301.132H968.251V301.958C968.111 302.014 967.929 302.07 967.635 302.07ZM964.219 301.272C965.731 301.272 966.417 300.166 966.417 299.326V298.094C966.039 298.332 965.381 298.514 964.765 298.626C963.631 298.836 962.721 299.032 962.721 300.096C962.721 301.062 963.477 301.272 964.219 301.272ZM973.582 302L971.02 298.094L969.956 299.102V302H968.822V291.99H969.956V297.856L973.134 294.762H974.576L971.804 297.366L974.912 302H973.582ZM978.076 302.196C975.864 302.196 974.576 300.488 974.576 298.388C974.576 296.288 975.948 294.58 978.006 294.58C980.176 294.58 981.338 296.26 981.338 298.654H975.738C975.822 300.124 976.62 301.244 978.076 301.244C979.126 301.244 979.826 300.74 980.078 299.76H981.184C980.848 301.314 979.714 302.196 978.076 302.196ZM978.006 295.476C976.662 295.476 975.934 296.484 975.766 297.8H980.12C980.05 296.358 979.308 295.476 978.006 295.476ZM984.143 304.324V294.762H985.277V295.784H985.305C985.851 295.042 986.579 294.594 987.629 294.594C989.463 294.594 990.737 295.994 990.737 298.402C990.737 300.726 989.547 302.21 987.587 302.21C986.607 302.21 985.907 301.916 985.305 301.146H985.277V304.324H984.143ZM987.503 301.258C988.889 301.258 989.575 300.054 989.575 298.416C989.575 296.792 988.889 295.56 987.517 295.56C985.935 295.56 985.207 296.848 985.207 298.416C985.207 299.984 985.837 301.258 987.503 301.258ZM997.286 302.07C996.544 302.07 996.152 301.734 996.04 300.992H996.026C995.592 301.552 994.85 302.14 993.618 302.14C992.246 302.14 991.168 301.496 991.168 300.124C991.168 298.416 992.512 298.066 994.318 297.786C995.34 297.632 996.054 297.534 996.054 296.75C996.054 295.938 995.466 295.476 994.43 295.476C993.254 295.476 992.666 295.98 992.624 297.072H991.532C991.574 295.672 992.498 294.622 994.416 294.622C995.956 294.622 997.09 295.196 997.09 296.918V300.362C997.09 300.95 997.23 301.272 997.86 301.132H997.902V301.958C997.762 302.014 997.58 302.07 997.286 302.07ZM993.87 301.272C995.382 301.272 996.068 300.166 996.068 299.326V298.094C995.69 298.332 995.032 298.514 994.416 298.626C993.282 298.836 992.372 299.032 992.372 300.096C992.372 301.062 993.128 301.272 993.87 301.272ZM999.26 304.394C998.826 304.394 998.546 304.366 998.238 304.24V303.232H998.294C998.448 303.316 998.686 303.386 999.064 303.386C999.54 303.386 999.862 303.204 1000.14 302.504L1000.42 301.79L997.594 294.762H998.826L1000.53 299.27C1000.76 299.872 1001.02 300.684 1001.02 300.684H1001.05C1001.05 300.684 1001.3 299.872 1001.53 299.27L1003.18 294.762H1004.38L1001.29 302.588C1000.7 304.086 1000.14 304.394 999.26 304.394ZM1004.92 302V294.762H1006.05V295.798H1006.08C1006.53 295.098 1007.3 294.594 1008.21 294.594C1009.09 294.594 1009.79 295.042 1010.1 295.882H1010.13C1010.59 295.056 1011.46 294.594 1012.34 294.594C1013.63 294.594 1014.54 295.42 1014.54 296.918V302H1013.4V296.974C1013.4 296.078 1012.8 295.546 1012.07 295.546C1011.14 295.546 1010.3 296.358 1010.3 297.492V302H1009.16V296.974C1009.16 296.078 1008.66 295.546 1007.92 295.546C1007.03 295.546 1006.05 296.358 1006.05 297.492V302H1004.92ZM1018.86 302.196C1016.65 302.196 1015.36 300.488 1015.36 298.388C1015.36 296.288 1016.73 294.58 1018.79 294.58C1020.96 294.58 1022.12 296.26 1022.12 298.654H1016.52C1016.61 300.124 1017.41 301.244 1018.86 301.244C1019.91 301.244 1020.61 300.74 1020.86 299.76H1021.97C1021.63 301.314 1020.5 302.196 1018.86 302.196ZM1018.79 295.476C1017.45 295.476 1016.72 296.484 1016.55 297.8H1020.91C1020.84 296.358 1020.09 295.476 1018.79 295.476ZM1024.1 294.762V295.714H1024.13C1024.65 295.028 1025.38 294.594 1026.43 294.594C1027.94 294.594 1028.86 295.42 1028.86 296.918V302H1027.73V297.016C1027.73 296.078 1027.11 295.546 1026.09 295.546C1024.94 295.546 1024.1 296.358 1024.1 297.548V302H1022.97V294.762H1024.1ZM1029.5 295.686V294.762H1030.55V292.48H1031.68V294.762H1033.08V295.686H1031.68V300.39C1031.68 300.894 1031.95 301.062 1032.41 301.062C1032.64 301.062 1032.89 301.006 1033.01 300.964H1033.06V301.944C1032.79 302 1032.48 302.042 1032.15 302.042C1031.22 302.042 1030.55 301.664 1030.55 300.642V295.686H1029.5Z" fill="black" fill-opacity="0.8"/>
<path d="M995.167 173.883C995.165 173.055 994.492 172.385 993.663 172.387C992.835 172.389 992.165 173.063 992.167 173.891L995.167 173.883ZM992.869 271.063C993.457 271.648 994.407 271.645 994.991 271.058L1004.51 261.486C1005.1 260.899 1005.09 259.949 1004.51 259.365C1003.92 258.781 1002.97 258.783 1002.38 259.37L993.922 267.879L985.413 259.416C984.826 258.832 983.876 258.835 983.292 259.422C982.708 260.009 982.71 260.959 983.298 261.543L992.869 271.063ZM992.167 173.891L992.193 183.356L995.193 183.348L995.167 173.883L992.167 173.891ZM992.301 223.356L992.427 270.004L995.427 269.996L995.301 223.348L992.301 223.356Z" fill="#B3B3B3"/>
<path d="M964.295 208.352L968.279 196.912H970.679L974.711 208.352H972.295L971.527 205.92H967.399L966.647 208.352H964.295ZM968.967 200.848L967.943 204.144H970.967L969.943 200.848C969.751 200.24 969.479 199.088 969.479 199.088H969.447C969.447 199.088 969.159 200.24 968.967 200.848ZM975.322 211.04V200.144H977.418V201.168H977.466C977.994 200.448 978.762 199.92 979.882 199.92C982.058 199.92 983.45 201.696 983.45 204.256C983.45 206.912 982.01 208.592 979.898 208.592C978.746 208.592 977.994 208.128 977.53 207.424H977.498V211.04H975.322ZM979.434 206.784C980.538 206.784 981.242 205.872 981.242 204.32C981.242 202.768 980.698 201.68 979.354 201.68C977.994 201.68 977.45 202.848 977.45 204.32C977.45 205.808 978.138 206.784 979.434 206.784ZM984.287 211.04V200.144H986.383V201.168H986.431C986.959 200.448 987.727 199.92 988.847 199.92C991.023 199.92 992.415 201.696 992.415 204.256C992.415 206.912 990.975 208.592 988.863 208.592C987.711 208.592 986.959 208.128 986.495 207.424H986.463V211.04H984.287ZM988.399 206.784C989.503 206.784 990.207 205.872 990.207 204.32C990.207 202.768 989.663 201.68 988.319 201.68C986.959 201.68 986.415 202.848 986.415 204.32C986.415 205.808 987.103 206.784 988.399 206.784ZM995.347 200.144V201.456H995.395C995.891 200.528 996.451 200.048 997.411 200.048C997.651 200.048 997.795 200.064 997.923 200.112V202.016H997.875C996.451 201.872 995.427 202.624 995.427 204.352V208.352H993.251V200.144H995.347ZM1002.34 208.592C999.794 208.592 998.05 206.704 998.05 204.256C998.05 201.808 999.794 199.92 1002.34 199.92C1004.88 199.92 1006.63 201.808 1006.63 204.256C1006.63 206.704 1004.88 208.592 1002.34 208.592ZM1002.34 206.928C1003.67 206.928 1004.42 205.856 1004.42 204.256C1004.42 202.656 1003.67 201.568 1002.34 201.568C1000.99 201.568 1000.26 202.656 1000.26 204.256C1000.26 205.856 1000.99 206.928 1002.34 206.928ZM1009.4 208.352L1006.56 200.144H1008.76L1010.08 204.4C1010.32 205.184 1010.44 205.712 1010.44 205.712H1010.48C1010.48 205.712 1010.59 205.184 1010.83 204.4L1012.17 200.144H1014.35L1011.48 208.352H1009.4ZM1018.53 208.592C1015.81 208.592 1014.28 206.688 1014.28 204.24C1014.28 201.808 1015.92 199.92 1018.32 199.92C1020.96 199.92 1022.37 201.936 1022.37 204.864H1016.42C1016.58 206.128 1017.28 206.912 1018.52 206.912C1019.36 206.912 1019.86 206.528 1020.1 205.904H1022.24C1021.94 207.36 1020.64 208.592 1018.53 208.592ZM1018.36 201.6C1017.2 201.6 1016.64 202.288 1016.45 203.36H1020.1C1020.04 202.32 1019.35 201.6 1018.36 201.6Z" fill="#333333"/>
</svg>
