<svg width="20" height="20" viewBox="0 0 20 20" fill="none" xmlns="http://www.w3.org/2000/svg">
<g clip-path="url(#clip0_3_2)">
<path d="M10 0C4.47715 0 0 4.47715 0 10C0 15.5228 4.47715 20 10 20C15.5228 20 20 15.5228 20 10C20 4.47715 15.5228 0 10 0ZM10 0.666667C15.1547 0.666667 19.3333 4.84534 19.3333 10C19.3333 15.1547 15.1547 19.3333 10 19.3333C4.84534 19.3333 0.666667 15.1547 0.666667 10C0.666667 4.84534 4.84534 0.666667 10 0.666667Z" fill="black"/>
<path d="M4.34314 12.8481C4.28282 12.9084 4.24493 12.9917 4.24493 13.0838V15.4212C4.24493 15.5065 4.27806 15.5918 4.34314 15.6569C4.40823 15.7219 4.49354 15.7551 4.57885 15.7551H6.91623C7.00827 15.7551 7.09161 15.7172 7.15193 15.6569C7.21225 15.5965 7.24523 15.5181 7.24523 15.4261C7.24523 15.334 7.21225 15.2458 7.15193 15.1854C7.09161 15.1251 7.00336 15.0924 6.91132 15.0921L5.38416 15.0872L15.0872 5.38416L15.0921 6.91132C15.0924 7.00336 15.1251 7.09161 15.1854 7.15193C15.2458 7.21225 15.334 7.24523 15.4261 7.24523C15.5181 7.24523 15.5965 7.21225 15.6569 7.15193C15.7172 7.09161 15.7551 7.00827 15.7551 6.91623V4.57885C15.7551 4.49354 15.7219 4.40823 15.6569 4.34314C15.5918 4.27806 15.5065 4.24493 15.4212 4.24493H13.0838C12.9917 4.24493 12.9084 4.28282 12.8481 4.34314C12.7877 4.40346 12.7548 4.48189 12.7548 4.57394C12.7548 4.66598 12.7877 4.75423 12.8481 4.81455C12.9084 4.87487 12.9966 4.90755 13.0887 4.90785L14.6158 4.91276L4.91276 14.6158L4.90785 13.0887C4.90756 12.9966 4.87487 12.9084 4.81455 12.8481C4.75423 12.7877 4.66598 12.7548 4.57394 12.7548C4.48189 12.7548 4.40346 12.7877 4.34314 12.8481Z" fill="black"/>
</g>
<defs>
<clipPath id="clip0_3_2">
<rect width="20" height="20" fill="white"/>
</clipPath>
</defs>
</svg>
