<svg width="387" height="27" viewBox="0 0 387 27" fill="none" xmlns="http://www.w3.org/2000/svg">
<g clip-path="url(#clip0_480_1131)">
<path d="M16.4428 26.6371C14.2107 26.6371 12.7971 25.7662 11.4207 24.9315C10.1559 24.1694 8.96543 23.4073 7.06819 23.4073C4.53853 23.4073 2.71569 24.3508 1.52527 26.3105L0.483643 25.6936C1.86007 23.371 4.09212 22.2097 7.06819 22.2097C9.30023 22.2097 10.7139 23.0807 12.0903 23.9154C13.3551 24.6775 14.5455 25.4396 16.4428 25.4396C18.34 25.4396 19.6793 24.7137 21.0557 23.9154C22.5437 23.0807 24.069 22.246 26.301 22.246C29.2771 22.246 31.4347 23.4436 32.6995 25.7662L31.6207 26.3105C30.5419 24.3508 28.7935 23.4073 26.2638 23.4073C24.3666 23.4073 23.0273 24.1331 21.6137 24.9315C20.1257 25.7662 18.6004 26.6008 16.3684 26.6008L16.4428 26.6371Z" fill="#7C3559" stroke="#7D355A" stroke-width="0.2" stroke-miterlimit="10"/>
<path d="M16.4428 19.4153C14.2107 19.4153 12.7971 18.5444 11.4207 17.7097C10.1559 16.9476 8.96543 16.1855 7.06819 16.1855C4.53853 16.1855 2.71569 17.129 1.52527 19.0887L0.483643 18.4718C1.86007 16.1492 4.09212 14.9879 7.06819 14.9879C9.30023 14.9879 10.7139 15.8589 12.0903 16.6936C13.3551 17.4557 14.5455 18.2178 16.4428 18.2178C18.34 18.2178 19.6793 17.4919 21.0557 16.6936C22.5437 15.8589 24.069 15.0242 26.301 15.0242C29.2771 15.0242 31.4347 16.2218 32.6995 18.5444L31.6207 19.0887C30.5419 17.129 28.7935 16.1855 26.2638 16.1855C24.3666 16.1855 23.0273 16.9113 21.6137 17.7097C20.1257 18.5444 18.6004 19.379 16.3684 19.379L16.4428 19.4153Z" fill="#C27B2A" stroke="#C27B2A" stroke-width="0.2" stroke-miterlimit="10"/>
<path d="M66.5895 26.0202L59.7445 18.0726H52.1556V26.0202H44.6782V0.834717H62.795C69.4168 0.834717 74.5133 3.66536 74.5133 9.43552C74.5133 13.6452 71.7976 16.2944 67.7055 17.4557L75.2945 26.0202H66.5523H66.5895ZM62.237 12.7379C64.9155 12.7379 66.8871 12.0121 66.8871 9.58069C66.8871 7.14923 64.9155 6.42343 62.237 6.42343H52.1184V12.7742H62.237V12.7379Z" fill="#1E1E1E"/>
<path d="M77.5637 13.4274C77.5637 4.89919 84.1855 0 94.3785 0C104.572 0 111.23 4.89919 111.23 13.4274C111.23 21.9556 104.572 26.8548 94.3785 26.8548C84.1855 26.8548 77.5637 21.9556 77.5637 13.4274ZM103.567 13.4274C103.567 8.67339 100.07 5.9879 94.3785 5.9879C88.6868 5.9879 85.1899 8.67339 85.1899 13.4274C85.1899 18.1815 88.6868 20.8669 94.3785 20.8669C100.07 20.8669 103.567 18.1815 103.567 13.4274Z" fill="#1E1E1E"/>
<path d="M123.135 20.7944C127.599 20.7944 129.31 18.3267 129.31 14.3347V0.834717H136.825V14.9517C136.825 21.9194 132.212 26.8549 123.209 26.8549C117.852 26.8549 114.281 25.1129 111.789 22.2097L116.848 17.9275C118.448 19.8871 120.233 20.7944 123.135 20.7944Z" fill="#1E1E1E"/>
<path d="M143.074 13.4275C143.074 5.29844 148.803 0.0726318 158.513 0.0726318C168.222 0.0726318 173.951 5.29844 173.951 13.4275C173.951 21.5565 168.222 26.7823 158.513 26.7823C148.803 26.7823 143.074 21.5565 143.074 13.4275ZM171.942 13.4275C171.942 6.06054 166.622 1.85086 158.513 1.85086C150.403 1.85086 145.046 6.06054 145.046 13.4275C145.046 20.7944 150.366 25.0041 158.513 25.0041C166.66 25.0041 171.942 20.7944 171.942 13.4275Z" fill="#1E1E1E"/>
<path d="M205.981 26.0202L196.941 15.8952H183.102V26.0202H181.131V0.834717H198.057C203.823 0.834717 207.655 3.62907 207.655 8.34681C207.655 12.7742 204.344 15.496 199.285 15.8589L208.473 26.0202H205.981ZM197.945 14.1896C202.707 14.1896 205.683 12.121 205.683 8.34681C205.683 4.57262 202.707 2.54036 197.945 2.54036H183.028V14.1533H197.945V14.1896Z" fill="#1E1E1E"/>
<path d="M242.995 19.3791C241.061 23.6251 235.89 26.7823 228.636 26.7823C218.778 26.7823 213.049 21.5202 213.049 13.4275C213.049 5.33473 218.778 0.0726318 228.562 0.0726318C234.774 0.0726318 239.015 2.25005 241.545 5.4436L239.871 6.5686C237.49 3.48392 233.695 1.85086 228.524 1.85086C220.303 1.85086 214.983 5.91537 214.983 13.4275C214.983 20.9396 220.34 25.0041 228.636 25.0041C234.328 25.0041 239.089 22.9718 241.024 18.8347V15.0242H228.338V13.2823H242.958V19.3428L242.995 19.3791Z" fill="#1E1E1E"/>
<path d="M270.227 18.5807H251.961L247.72 26.0202H245.562L260.034 0.834717H262.191L276.662 26.0202H274.505L270.227 18.5807ZM269.259 16.8388L261.075 2.54036L252.928 16.8388H269.259Z" fill="#1E1E1E"/>
<path d="M308.692 0.834717V26.0202H306.981L283.917 3.19359V26.0202H282.019V0.834717H284.177L306.795 23.2621V0.834717H308.692Z" fill="#1E1E1E"/>
<path d="M317.918 26.0202V0.834717H319.852V26.0202H317.918Z" fill="#1E1E1E"/>
<path d="M353.519 20.0323L355.342 20.9396C352.924 24.5686 348.572 26.8186 342.433 26.8186C332.836 26.8186 327.107 21.5565 327.107 13.4638C327.107 5.37102 332.798 0.0726318 342.471 0.0726318C348.572 0.0726318 352.887 2.32263 355.305 5.95166L353.482 6.85892C351.25 3.52021 347.456 1.85086 342.396 1.85086C334.324 1.85086 329.004 5.95166 329.004 13.4275C329.004 20.9033 334.324 25.0041 342.396 25.0041C347.456 25.0041 351.287 23.3347 353.482 19.996L353.519 20.0323Z" fill="#1E1E1E"/>
<path d="M387 19.0162C387 23.4073 382.35 26.7823 373.905 26.7823C367.916 26.7823 362.559 24.9315 359.211 21.3751L360.625 20.0323C363.787 23.4436 368.474 25.0041 373.98 25.0041C381.085 25.0041 385.066 22.5363 385.066 19.0888C385.066 15.6412 380.75 14.6251 373.347 13.9355C366.651 13.3186 360.178 11.9396 360.178 7.18554C360.178 2.4315 366.353 0.0726318 373.012 0.0726318C378.63 0.0726318 382.982 1.85086 385.661 4.50005L384.135 5.73392C381.569 3.04844 377.625 1.88715 373.05 1.85086C368.065 1.85086 362.113 3.52021 362.113 7.22183C362.113 10.7057 367.507 11.6492 373.942 12.2299C381.643 12.8831 386.963 14.3347 386.963 19.0162H387Z" fill="#1E1E1E"/>
<path d="M16.4428 12.2298C14.2107 12.2298 12.7971 11.3588 11.4207 10.5241C10.1559 9.76205 8.96543 8.99995 7.06819 8.99995C4.53853 8.99995 2.71569 9.9435 1.52527 11.9032L0.483643 11.2862C1.86007 8.96366 4.09212 7.80237 7.06819 7.80237C9.30023 7.80237 10.7139 8.67334 12.0903 9.50801C13.3551 10.2701 14.5455 11.0322 16.4428 11.0322C18.34 11.0322 19.6793 10.3064 21.0557 9.50801C22.5437 8.67334 24.069 7.83866 26.301 7.83866C29.2771 7.83866 31.4347 9.03624 32.6995 11.3588L31.6207 11.9032C30.5419 9.9435 28.7935 8.99995 26.2638 8.99995C24.3666 8.99995 23.0273 9.72576 21.6137 10.5241C20.1257 11.3588 18.6004 12.1935 16.3684 12.1935L16.4428 12.2298Z" fill="#FFD23C" stroke="#FFD23D" stroke-width="0.2" stroke-miterlimit="10"/>
<path d="M16.4428 5.00804C14.2107 5.00804 12.7971 4.13707 11.4207 3.30239C10.1559 2.5403 8.96543 1.7782 7.06819 1.7782C4.53853 1.7782 2.71569 2.72175 1.52527 4.68142L0.483643 4.06449C1.89727 1.81449 4.12932 0.653198 7.06819 0.653198C9.30023 0.653198 10.7139 1.52417 12.0903 2.35884C13.3551 3.12094 14.5455 3.88304 16.4428 3.88304C18.34 3.88304 19.6793 3.15723 21.0557 2.35884C22.5437 1.52417 24.069 0.689489 26.301 0.689489C29.2771 0.689489 31.4347 1.88707 32.6995 4.20965L31.6207 4.754C30.5419 2.79433 28.7935 1.85078 26.2638 1.85078C24.3666 1.85078 23.0273 2.57659 21.6137 3.37497C20.1257 4.20965 18.6004 5.04433 16.3684 5.04433L16.4428 5.00804Z" fill="#49A259" stroke="#48A258" stroke-width="0.2" stroke-miterlimit="10"/>
</g>
<defs>
<clipPath id="clip0_480_1131">
<rect width="387" height="27" fill="white"/>
</clipPath>
</defs>
</svg>
