<svg width="949" height="274" viewBox="0 0 949 274" fill="none" xmlns="http://www.w3.org/2000/svg">
<rect x="591" y="110" width="138" height="55" rx="10" fill="#CAFF73"/>
<path d="M634.525 143L638.011 132.99H640.111L643.639 143H641.525L640.853 140.872H637.241L636.583 143H634.525ZM638.613 136.434L637.717 139.318H640.363L639.467 136.434C639.299 135.902 639.061 134.894 639.061 134.894H639.033C639.033 134.894 638.781 135.902 638.613 136.434ZM643.217 137.078V135.818H644.211V133.578H646.073V135.818H647.305V137.078H646.073V140.886C646.073 141.418 646.367 141.6 646.787 141.6C647.025 141.6 647.347 141.586 647.347 141.586V142.986C647.347 142.986 646.913 143.014 646.157 143.014C645.233 143.014 644.211 142.65 644.211 141.292V137.078H643.217ZM647.463 137.078V135.818H648.457V133.578H650.319V135.818H651.551V137.078H650.319V140.886C650.319 141.418 650.613 141.6 651.033 141.6C651.271 141.6 651.593 141.586 651.593 141.586V142.986C651.593 142.986 651.159 143.014 650.403 143.014C649.479 143.014 648.457 142.65 648.457 141.292V137.078H647.463ZM655.599 143.21C653.373 143.21 651.847 141.558 651.847 139.416C651.847 137.274 653.373 135.622 655.599 135.622C657.825 135.622 659.351 137.274 659.351 139.416C659.351 141.558 657.825 143.21 655.599 143.21ZM655.599 141.754C656.761 141.754 657.419 140.816 657.419 139.416C657.419 138.016 656.761 137.064 655.599 137.064C654.423 137.064 653.779 138.016 653.779 139.416C653.779 140.816 654.423 141.754 655.599 141.754ZM661.804 135.818V136.966H661.846C662.28 136.154 662.77 135.734 663.61 135.734C663.82 135.734 663.946 135.748 664.058 135.79V137.456H664.016C662.77 137.33 661.874 137.988 661.874 139.5V143H659.97V135.818H661.804ZM666.475 135.818V136.798H666.517C667.007 136.028 667.665 135.622 668.645 135.622C670.129 135.622 671.123 136.742 671.123 138.31V143H669.219V138.59C669.219 137.82 668.771 137.274 667.973 137.274C667.133 137.274 666.517 137.946 666.517 138.926V143H664.613V135.818H666.475ZM675.404 143.21C673.024 143.21 671.68 141.544 671.68 139.402C671.68 137.274 673.122 135.622 675.222 135.622C677.532 135.622 678.764 137.386 678.764 139.948H673.556C673.696 141.054 674.312 141.74 675.39 141.74C676.132 141.74 676.566 141.404 676.776 140.858H678.652C678.386 142.132 677.252 143.21 675.404 143.21ZM675.25 137.092C674.242 137.092 673.752 137.694 673.584 138.632H676.776C676.72 137.722 676.118 137.092 675.25 137.092ZM679.328 145.352V143.854H680C680.756 143.854 681.064 143.462 681.064 142.874C681.064 142.482 680.924 142.02 680.518 140.928L678.586 135.818H680.588L681.652 139.052C681.876 139.71 682.114 140.62 682.114 140.62H682.142C682.142 140.62 682.338 139.71 682.562 139.052L683.57 135.818H685.488L682.982 143.182C682.436 144.778 681.904 145.352 680.448 145.352H679.328Z" fill="black" fill-opacity="0.8"/>
<rect x="811" width="138" height="40" rx="3" fill="#CAFF73"/>
<path d="M867.046 25V14.99H871.526C872.604 14.99 873.43 15.256 873.948 15.718C874.494 16.208 874.746 16.81 874.746 17.594C874.746 18.616 874.116 19.274 873.178 19.596V19.638C874.284 19.96 875.04 20.884 875.04 22.116C875.04 23.054 874.746 23.698 874.158 24.202C873.584 24.706 872.702 25 871.638 25H867.046ZM869.076 20.52V23.32H871.414C872.394 23.32 872.982 22.774 872.982 21.962C872.982 21.01 872.282 20.52 871.358 20.52H869.076ZM869.076 19.022H871.274C872.156 19.022 872.758 18.602 872.758 17.818C872.758 17.076 872.212 16.642 871.316 16.642H869.076V19.022ZM875.841 25V14.99H877.745V25H875.841ZM882.135 25.21C879.909 25.21 878.383 23.558 878.383 21.416C878.383 19.274 879.909 17.622 882.135 17.622C884.361 17.622 885.887 19.274 885.887 21.416C885.887 23.558 884.361 25.21 882.135 25.21ZM882.135 23.754C883.297 23.754 883.955 22.816 883.955 21.416C883.955 20.016 883.297 19.064 882.135 19.064C880.959 19.064 880.315 20.016 880.315 21.416C880.315 22.816 880.959 23.754 882.135 23.754ZM889.67 27.45C887.71 27.45 886.506 26.61 886.31 25.21H888.2C888.354 25.658 888.76 26.008 889.642 26.008C890.72 26.008 891.238 25.49 891.238 24.51V23.726H891.196C890.776 24.202 890.23 24.566 889.32 24.566C887.724 24.566 886.156 23.306 886.156 21.136C886.156 18.994 887.444 17.622 889.264 17.622C890.16 17.622 890.818 17.972 891.252 18.574H891.28V17.818H893.114V24.454C893.114 25.462 892.792 26.148 892.26 26.638C891.658 27.198 890.734 27.45 889.67 27.45ZM889.642 23.04C890.846 23.04 891.336 22.158 891.336 21.094C891.336 20.044 890.776 19.148 889.628 19.148C888.662 19.148 888.018 19.904 888.018 21.108C888.018 22.326 888.662 23.04 889.642 23.04Z" fill="black" fill-opacity="0.8"/>
<rect x="811" y="59" width="138" height="40" rx="3" fill="#CAFF73"/>
<path d="M860.749 84L864.235 73.99H866.335L869.863 84H867.749L867.077 81.872H863.465L862.807 84H860.749ZM864.837 77.434L863.941 80.318H866.587L865.691 77.434C865.523 76.902 865.285 75.894 865.285 75.894H865.257C865.257 75.894 865.005 76.902 864.837 77.434ZM872.12 76.818V77.966H872.162C872.596 77.154 873.086 76.734 873.926 76.734C874.136 76.734 874.262 76.748 874.374 76.79V78.456H874.332C873.086 78.33 872.19 78.988 872.19 80.5V84H870.286V76.818H872.12ZM874.576 78.078V76.818H875.57V74.578H877.432V76.818H878.664V78.078H877.432V81.886C877.432 82.418 877.726 82.6 878.146 82.6C878.384 82.6 878.706 82.586 878.706 82.586V83.986C878.706 83.986 878.272 84.014 877.516 84.014C876.592 84.014 875.57 83.65 875.57 82.292V78.078H874.576ZM879.379 84V76.818H881.283V84H879.379ZM879.379 75.698V73.99H881.283V75.698H879.379ZM885.576 84.21C883.308 84.21 881.894 82.558 881.894 80.416C881.894 78.274 883.294 76.622 885.478 76.622C887.34 76.622 888.488 77.7 888.74 79.254H886.878C886.752 78.624 886.262 78.148 885.562 78.148C884.414 78.148 883.826 79.03 883.826 80.416C883.826 81.774 884.372 82.684 885.534 82.684C886.304 82.684 886.85 82.278 886.976 81.466H888.81C888.684 82.992 887.494 84.21 885.576 84.21ZM889.402 84V73.99H891.306V84H889.402ZM895.668 84.21C893.288 84.21 891.944 82.544 891.944 80.402C891.944 78.274 893.386 76.622 895.486 76.622C897.796 76.622 899.028 78.386 899.028 80.948H893.82C893.96 82.054 894.576 82.74 895.654 82.74C896.396 82.74 896.83 82.404 897.04 81.858H898.916C898.65 83.132 897.516 84.21 895.668 84.21ZM895.514 78.092C894.506 78.092 894.016 78.694 893.848 79.632H897.04C896.984 78.722 896.382 78.092 895.514 78.092Z" fill="black" fill-opacity="0.8"/>
<rect x="811" y="117" width="138" height="40" rx="3" fill="#CAFF73"/>
<path d="M867.142 142V131.99H871.538C872.7 131.99 873.568 132.326 874.156 132.928C874.716 133.502 875.052 134.286 875.052 135.21C875.052 137.1 873.806 138.374 871.706 138.374H869.242V142H867.142ZM869.242 133.754V136.722H871.342C872.406 136.722 872.966 136.134 872.966 135.224C872.966 134.286 872.378 133.754 871.37 133.754H869.242ZM878.833 142.21C876.607 142.21 875.081 140.558 875.081 138.416C875.081 136.274 876.607 134.622 878.833 134.622C881.059 134.622 882.585 136.274 882.585 138.416C882.585 140.558 881.059 142.21 878.833 142.21ZM878.833 140.754C879.995 140.754 880.653 139.816 880.653 138.416C880.653 137.016 879.995 136.064 878.833 136.064C877.657 136.064 877.013 137.016 877.013 138.416C877.013 139.816 877.657 140.754 878.833 140.754ZM886.116 142.21C884.03 142.21 882.868 141.202 882.756 139.676H884.52C884.646 140.502 885.234 140.866 886.088 140.866C886.928 140.866 887.404 140.544 887.404 140.04C887.404 139.354 886.494 139.284 885.514 139.088C884.226 138.836 882.966 138.486 882.966 136.918C882.966 135.364 884.254 134.622 885.892 134.622C887.782 134.622 888.832 135.56 888.972 137.002H887.25C887.166 136.232 886.676 135.952 885.864 135.952C885.122 135.952 884.632 136.232 884.632 136.75C884.632 137.366 885.584 137.422 886.606 137.632C887.81 137.884 889.14 138.22 889.14 139.9C889.14 141.342 887.908 142.21 886.116 142.21ZM889.176 136.078V134.818H890.17V132.578H892.032V134.818H893.264V136.078H892.032V139.886C892.032 140.418 892.326 140.6 892.746 140.6C892.984 140.6 893.306 140.586 893.306 140.586V141.986C893.306 141.986 892.872 142.014 892.116 142.014C891.192 142.014 890.17 141.65 890.17 140.292V136.078H889.176Z" fill="black" fill-opacity="0.8"/>
<rect x="811" y="175" width="138" height="40" rx="3" fill="#CAFF73"/>
<path d="M864.052 200V189.99H866.11L869.442 195.576C869.764 196.122 870.142 196.976 870.142 196.976H870.17C870.17 196.976 870.114 195.94 870.114 195.24V189.99H872.116V200H870.156L866.74 194.47C866.418 193.938 866.026 193.084 866.026 193.084H865.998C865.998 193.084 866.054 194.134 866.054 194.834V200H864.052ZM876.603 200.21C874.223 200.21 872.879 198.544 872.879 196.402C872.879 194.274 874.321 192.622 876.421 192.622C878.731 192.622 879.963 194.386 879.963 196.948H874.755C874.895 198.054 875.511 198.74 876.589 198.74C877.331 198.74 877.765 198.404 877.975 197.858H879.851C879.585 199.132 878.451 200.21 876.603 200.21ZM876.449 194.092C875.441 194.092 874.951 194.694 874.783 195.632H877.975C877.919 194.722 877.317 194.092 876.449 194.092ZM881.982 200L879.882 192.818H881.772L882.64 196.15C882.794 196.738 882.962 197.494 882.962 197.494H882.99C882.99 197.494 883.144 196.724 883.298 196.136L884.194 192.818H885.818L886.756 196.136C886.91 196.738 887.092 197.494 887.092 197.494H887.12C887.12 197.494 887.288 196.738 887.442 196.15L888.352 192.818H890.2L888.058 200H886.322L885.37 196.472C885.216 195.898 885.048 195.226 885.048 195.226H885.02C885.02 195.226 884.838 195.898 884.684 196.472L883.704 200H881.982ZM893.451 200.21C891.365 200.21 890.203 199.202 890.091 197.676H891.855C891.981 198.502 892.569 198.866 893.423 198.866C894.263 198.866 894.739 198.544 894.739 198.04C894.739 197.354 893.829 197.284 892.849 197.088C891.561 196.836 890.301 196.486 890.301 194.918C890.301 193.364 891.589 192.622 893.227 192.622C895.117 192.622 896.167 193.56 896.307 195.002H894.585C894.501 194.232 894.011 193.952 893.199 193.952C892.457 193.952 891.967 194.232 891.967 194.75C891.967 195.366 892.919 195.422 893.941 195.632C895.145 195.884 896.475 196.22 896.475 197.9C896.475 199.342 895.243 200.21 893.451 200.21Z" fill="black" fill-opacity="0.8"/>
<rect x="811" y="234" width="138" height="40" rx="3" fill="#CAFF73"/>
<path d="M861.426 259V248.99H865.822C866.984 248.99 867.852 249.326 868.44 249.928C869 250.502 869.336 251.286 869.336 252.21C869.336 254.1 868.09 255.374 865.99 255.374H863.526V259H861.426ZM863.526 250.754V253.722H865.626C866.69 253.722 867.25 253.134 867.25 252.224C867.25 251.286 866.662 250.754 865.654 250.754H863.526ZM871.754 251.818V252.966H871.796C872.23 252.154 872.72 251.734 873.56 251.734C873.77 251.734 873.896 251.748 874.008 251.79V253.456H873.966C872.72 253.33 871.824 253.988 871.824 255.5V259H869.92V251.818H871.754ZM877.759 259.21C875.533 259.21 874.007 257.558 874.007 255.416C874.007 253.274 875.533 251.622 877.759 251.622C879.985 251.622 881.511 253.274 881.511 255.416C881.511 257.558 879.985 259.21 877.759 259.21ZM877.759 257.754C878.921 257.754 879.579 256.816 879.579 255.416C879.579 254.016 878.921 253.064 877.759 253.064C876.583 253.064 875.939 254.016 875.939 255.416C875.939 256.816 876.583 257.754 877.759 257.754ZM881.532 253.134V251.818H882.512V251.174C882.512 249.424 883.87 248.808 885.704 249.004V250.474C884.808 250.432 884.416 250.544 884.416 251.286V251.818H885.704V253.134H884.416V259H882.512V253.134H881.532ZM886.558 259V251.818H888.462V259H886.558ZM886.558 250.698V248.99H888.462V250.698H886.558ZM889.453 259V248.99H891.357V259H889.453ZM895.719 259.21C893.339 259.21 891.995 257.544 891.995 255.402C891.995 253.274 893.437 251.622 895.537 251.622C897.847 251.622 899.079 253.386 899.079 255.948H893.871C894.011 257.054 894.627 257.74 895.705 257.74C896.447 257.74 896.881 257.404 897.091 256.858H898.967C898.701 258.132 897.567 259.21 895.719 259.21ZM895.565 253.092C894.557 253.092 894.067 253.694 893.899 254.632H897.091C897.035 253.722 896.433 253.092 895.565 253.092Z" fill="black" fill-opacity="0.8"/>
<rect y="87" width="192" height="99" rx="10" fill="#FDE49A"/>
<path d="M28.966 145V134.99H30.226V145H28.966ZM35.3181 137.762V138.714H35.3461C35.8641 138.028 36.5921 137.594 37.6421 137.594C39.1541 137.594 40.0781 138.42 40.0781 139.918V145H38.9441V140.016C38.9441 139.078 38.3281 138.546 37.3061 138.546C36.1581 138.546 35.3181 139.358 35.3181 140.548V145H34.1841V137.762H35.3181ZM44.6745 145.196C42.4625 145.196 41.1745 143.488 41.1745 141.388C41.1745 139.288 42.5465 137.58 44.6045 137.58C46.7745 137.58 47.9365 139.26 47.9365 141.654H42.3365C42.4205 143.124 43.2185 144.244 44.6745 144.244C45.7245 144.244 46.4245 143.74 46.6765 142.76H47.7825C47.4465 144.314 46.3125 145.196 44.6745 145.196ZM44.6045 138.476C43.2605 138.476 42.5325 139.484 42.3645 140.8H46.7185C46.6485 139.358 45.9065 138.476 44.6045 138.476ZM52.1394 145.196C49.9274 145.196 48.6394 143.488 48.6394 141.388C48.6394 139.288 50.0114 137.58 52.0694 137.58C54.2394 137.58 55.4014 139.26 55.4014 141.654H49.8014C49.8854 143.124 50.6834 144.244 52.1394 144.244C53.1894 144.244 53.8894 143.74 54.1414 142.76H55.2474C54.9114 144.314 53.7774 145.196 52.1394 145.196ZM52.0694 138.476C50.7254 138.476 49.9974 139.484 49.8294 140.8H54.1834C54.1134 139.358 53.3714 138.476 52.0694 138.476ZM59.3102 145.21C57.3362 145.21 56.1042 143.726 56.1042 141.402C56.1042 138.994 57.4902 137.594 59.2822 137.594C60.3042 137.594 61.0882 138.098 61.5502 138.784H61.5782V134.99H62.7122V145H61.5782V144.118H61.5502C61.0042 144.818 60.3322 145.21 59.3102 145.21ZM59.3522 144.258C60.9622 144.258 61.6482 143.054 61.6482 141.416C61.6482 139.736 60.8362 138.56 59.3382 138.56C57.9662 138.56 57.2662 139.792 57.2662 141.416C57.2662 143.054 57.9662 144.258 59.3522 144.258ZM72.161 145.07C71.419 145.07 71.027 144.734 70.915 143.992H70.901C70.467 144.552 69.725 145.14 68.493 145.14C67.121 145.14 66.043 144.496 66.043 143.124C66.043 141.416 67.387 141.066 69.193 140.786C70.215 140.632 70.929 140.534 70.929 139.75C70.929 138.938 70.341 138.476 69.305 138.476C68.129 138.476 67.541 138.98 67.499 140.072H66.407C66.449 138.672 67.373 137.622 69.291 137.622C70.831 137.622 71.965 138.196 71.965 139.918V143.362C71.965 143.95 72.105 144.272 72.735 144.132H72.777V144.958C72.637 145.014 72.455 145.07 72.161 145.07ZM68.745 144.272C70.257 144.272 70.943 143.166 70.943 142.326V141.094C70.565 141.332 69.907 141.514 69.291 141.626C68.157 141.836 67.247 142.032 67.247 143.096C67.247 144.062 68.003 144.272 68.745 144.272ZM75.8843 145V134.99H77.0183V145H75.8843ZM84.288 145.07C83.546 145.07 83.154 144.734 83.042 143.992H83.028C82.594 144.552 81.852 145.14 80.62 145.14C79.248 145.14 78.17 144.496 78.17 143.124C78.17 141.416 79.514 141.066 81.32 140.786C82.342 140.632 83.056 140.534 83.056 139.75C83.056 138.938 82.468 138.476 81.432 138.476C80.256 138.476 79.668 138.98 79.626 140.072H78.534C78.576 138.672 79.5 137.622 81.418 137.622C82.958 137.622 84.092 138.196 84.092 139.918V143.362C84.092 143.95 84.232 144.272 84.862 144.132H84.904V144.958C84.764 145.014 84.582 145.07 84.288 145.07ZM80.872 144.272C82.384 144.272 83.07 143.166 83.07 142.326V141.094C82.692 141.332 82.034 141.514 81.418 141.626C80.284 141.836 79.374 142.032 79.374 143.096C79.374 144.062 80.13 144.272 80.872 144.272ZM87.186 145L84.89 137.762H86.108L87.382 142.228C87.55 142.83 87.774 143.782 87.774 143.782H87.802C87.802 143.782 88.012 142.83 88.166 142.256L89.384 137.762H90.574L91.75 142.256C91.904 142.844 92.1 143.782 92.1 143.782H92.128C92.128 143.782 92.352 142.83 92.534 142.228L93.878 137.762H95.054L92.688 145H91.526L90.322 140.618C90.154 140.016 89.972 139.106 89.972 139.106H89.944C89.944 139.106 89.748 140.016 89.58 140.618L88.362 145H87.186ZM97.0143 147.394C96.5803 147.394 96.3003 147.366 95.9923 147.24V146.232H96.0483C96.2023 146.316 96.4403 146.386 96.8183 146.386C97.2943 146.386 97.6163 146.204 97.8963 145.504L98.1763 144.79L95.3483 137.762H96.5803L98.2883 142.27C98.5123 142.872 98.7783 143.684 98.7783 143.684H98.8063C98.8063 143.684 99.0583 142.872 99.2823 142.27L100.934 137.762H102.138L99.0443 145.588C98.4563 147.086 97.8963 147.394 97.0143 147.394ZM105.897 145.196C103.685 145.196 102.397 143.488 102.397 141.388C102.397 139.288 103.769 137.58 105.827 137.58C107.997 137.58 109.159 139.26 109.159 141.654H103.559C103.643 143.124 104.441 144.244 105.897 144.244C106.947 144.244 107.647 143.74 107.899 142.76H109.005C108.669 144.314 107.535 145.196 105.897 145.196ZM105.827 138.476C104.483 138.476 103.755 139.484 103.587 140.8H107.941C107.871 139.358 107.129 138.476 105.827 138.476ZM111.402 137.762V138.966H111.43C111.864 138.266 112.62 137.678 113.586 137.678C113.796 137.678 113.908 137.706 114.048 137.762V138.854H114.006C113.838 138.798 113.726 138.784 113.502 138.784C112.382 138.784 111.402 139.624 111.402 140.982V145H110.268V137.762H111.402ZM116.833 138.686V137.762H117.883V135.48H119.017V137.762H120.417V138.686H119.017V143.39C119.017 143.894 119.283 144.062 119.745 144.062C119.969 144.062 120.221 144.006 120.347 143.964H120.389V144.944C120.123 145 119.815 145.042 119.479 145.042C118.555 145.042 117.883 144.664 117.883 143.642V138.686H116.833ZM124.614 145.196C122.458 145.196 121.114 143.488 121.114 141.388C121.114 139.288 122.458 137.58 124.614 137.58C126.784 137.58 128.1 139.288 128.1 141.388C128.1 143.488 126.784 145.196 124.614 145.196ZM124.614 144.244C126.154 144.244 126.938 142.984 126.938 141.388C126.938 139.792 126.154 138.518 124.614 138.518C123.074 138.518 122.276 139.792 122.276 141.388C122.276 142.984 123.074 144.244 124.614 144.244ZM31.514 165.21C29.526 165.21 28.42 164.272 28.308 162.648H29.47C29.624 163.908 30.464 164.258 31.542 164.258C32.732 164.258 33.222 163.74 33.222 163.068C33.222 162.256 32.662 162.046 31.332 161.766C29.904 161.472 28.63 161.178 28.63 159.596C28.63 158.392 29.554 157.608 31.234 157.608C33.026 157.608 33.908 158.462 34.076 159.876H32.914C32.802 158.924 32.284 158.504 31.206 158.504C30.17 158.504 29.75 158.966 29.75 159.54C29.75 160.324 30.45 160.478 31.696 160.73C33.152 161.024 34.37 161.346 34.37 163.012C34.37 164.468 33.18 165.21 31.514 165.21ZM38.6863 165.196C36.4743 165.196 35.1863 163.488 35.1863 161.388C35.1863 159.288 36.5583 157.58 38.6163 157.58C40.7863 157.58 41.9483 159.26 41.9483 161.654H36.3483C36.4323 163.124 37.2303 164.244 38.6863 164.244C39.7363 164.244 40.4363 163.74 40.6883 162.76H41.7943C41.4583 164.314 40.3243 165.196 38.6863 165.196ZM38.6163 158.476C37.2723 158.476 36.5443 159.484 36.3763 160.8H40.7303C40.6603 159.358 39.9183 158.476 38.6163 158.476ZM42.4584 158.686V157.762H43.5084V155.48H44.6424V157.762H46.0424V158.686H44.6424V163.39C44.6424 163.894 44.9084 164.062 45.3704 164.062C45.5944 164.062 45.8464 164.006 45.9724 163.964H46.0144V164.944C45.7484 165 45.4404 165.042 45.1044 165.042C44.1804 165.042 43.5084 164.664 43.5084 163.642V158.686H42.4584ZM46.5463 158.686V157.762H47.5963V155.48H48.7303V157.762H50.1303V158.686H48.7303V163.39C48.7303 163.894 48.9963 164.062 49.4583 164.062C49.6823 164.062 49.9343 164.006 50.0603 163.964H50.1023V164.944C49.8363 165 49.5283 165.042 49.1923 165.042C48.2683 165.042 47.5963 164.664 47.5963 163.642V158.686H46.5463ZM51.3433 165V154.99H52.4773V165H51.3433ZM57.157 165.196C54.945 165.196 53.657 163.488 53.657 161.388C53.657 159.288 55.029 157.58 57.087 157.58C59.257 157.58 60.419 159.26 60.419 161.654H54.819C54.903 163.124 55.701 164.244 57.157 164.244C58.207 164.244 58.907 163.74 59.159 162.76H60.265C59.929 164.314 58.795 165.196 57.157 165.196ZM57.087 158.476C55.743 158.476 55.015 159.484 54.847 160.8H59.201C59.131 159.358 58.389 158.476 57.087 158.476ZM63.7563 165V157.762H64.8903V158.798H64.9183C65.3663 158.098 66.1363 157.594 67.0463 157.594C67.9283 157.594 68.6283 158.042 68.9363 158.882H68.9643C69.4263 158.056 70.2943 157.594 71.1763 157.594C72.4643 157.594 73.3743 158.42 73.3743 159.918V165H72.2403V159.974C72.2403 159.078 71.6383 158.546 70.9103 158.546C69.9723 158.546 69.1323 159.358 69.1323 160.492V165H67.9983V159.974C67.9983 159.078 67.4943 158.546 66.7523 158.546C65.8703 158.546 64.8903 159.358 64.8903 160.492V165H63.7563ZM75.6588 167.394C75.2248 167.394 74.9448 167.366 74.6368 167.24V166.232H74.6928C74.8468 166.316 75.0848 166.386 75.4628 166.386C75.9388 166.386 76.2608 166.204 76.5408 165.504L76.8208 164.79L73.9928 157.762H75.2248L76.9328 162.27C77.1568 162.872 77.4228 163.684 77.4228 163.684H77.4508C77.4508 163.684 77.7028 162.872 77.9268 162.27L79.5788 157.762H80.7828L77.6888 165.588C77.1008 167.086 76.5408 167.394 75.6588 167.394ZM86.613 165.21C84.639 165.21 83.407 163.726 83.407 161.402C83.407 158.994 84.793 157.594 86.585 157.594C87.607 157.594 88.391 158.098 88.853 158.784H88.881V154.99H90.015V165H88.881V164.118H88.853C88.307 164.818 87.635 165.21 86.613 165.21ZM86.655 164.258C88.265 164.258 88.951 163.054 88.951 161.416C88.951 159.736 88.139 158.56 86.641 158.56C85.269 158.56 84.569 159.792 84.569 161.416C84.569 163.054 85.269 164.258 86.655 164.258ZM91.5513 165V157.762H92.6853V165H91.5513ZM91.5513 156.39V154.99H92.6853V156.39H91.5513ZM96.0229 165L93.4889 157.762H94.7069L96.2049 162.354C96.4149 162.998 96.6809 163.88 96.6809 163.88H96.7089C96.7089 163.88 96.9749 162.984 97.1849 162.354L98.7109 157.762H99.8869L97.2829 165H96.0229ZM103.641 165.196C101.485 165.196 100.141 163.488 100.141 161.388C100.141 159.288 101.485 157.58 103.641 157.58C105.811 157.58 107.127 159.288 107.127 161.388C107.127 163.488 105.811 165.196 103.641 165.196ZM103.641 164.244C105.181 164.244 105.965 162.984 105.965 161.388C105.965 159.792 105.181 158.518 103.641 158.518C102.101 158.518 101.303 159.792 101.303 161.388C101.303 162.984 102.101 164.244 103.641 164.244ZM109.392 157.762V158.966H109.42C109.854 158.266 110.61 157.678 111.576 157.678C111.786 157.678 111.898 157.706 112.038 157.762V158.854H111.996C111.828 158.798 111.716 158.784 111.492 158.784C110.372 158.784 109.392 159.624 109.392 160.982V165H108.258V157.762H109.392ZM115.878 165.196C113.722 165.196 112.378 163.488 112.378 161.388C112.378 159.288 113.722 157.58 115.878 157.58C117.586 157.58 118.72 158.56 118.972 160.1H117.824C117.656 159.12 116.97 158.518 115.878 158.518C114.338 158.518 113.54 159.792 113.54 161.388C113.54 162.984 114.338 164.244 115.878 164.244C117.054 164.244 117.754 163.572 117.852 162.452H118.972C118.818 164.188 117.684 165.196 115.878 165.196ZM123.137 165.196C120.925 165.196 119.637 163.488 119.637 161.388C119.637 159.288 121.009 157.58 123.067 157.58C125.237 157.58 126.399 159.26 126.399 161.654H120.799C120.883 163.124 121.681 164.244 123.137 164.244C124.187 164.244 124.887 163.74 125.139 162.76H126.245C125.909 164.314 124.775 165.196 123.137 165.196ZM123.067 158.476C121.723 158.476 120.995 159.484 120.827 160.8H125.181C125.111 159.358 124.369 158.476 123.067 158.476ZM132.831 165.196C130.675 165.196 129.331 163.488 129.331 161.388C129.331 159.288 130.675 157.58 132.831 157.58C134.539 157.58 135.673 158.56 135.925 160.1H134.777C134.609 159.12 133.923 158.518 132.831 158.518C131.291 158.518 130.493 159.792 130.493 161.388C130.493 162.984 131.291 164.244 132.831 164.244C134.007 164.244 134.707 163.572 134.805 162.452H135.925C135.771 164.188 134.637 165.196 132.831 165.196ZM142.817 165.07C142.075 165.07 141.683 164.734 141.571 163.992H141.557C141.123 164.552 140.381 165.14 139.149 165.14C137.777 165.14 136.699 164.496 136.699 163.124C136.699 161.416 138.043 161.066 139.849 160.786C140.871 160.632 141.585 160.534 141.585 159.75C141.585 158.938 140.997 158.476 139.961 158.476C138.785 158.476 138.197 158.98 138.155 160.072H137.063C137.105 158.672 138.029 157.622 139.947 157.622C141.487 157.622 142.621 158.196 142.621 159.918V163.362C142.621 163.95 142.761 164.272 143.391 164.132H143.433V164.958C143.293 165.014 143.111 165.07 142.817 165.07ZM139.401 164.272C140.913 164.272 141.599 163.166 141.599 162.326V161.094C141.221 161.332 140.563 161.514 139.947 161.626C138.813 161.836 137.903 162.032 137.903 163.096C137.903 164.062 138.659 164.272 139.401 164.272ZM147.014 165.21C145.026 165.21 143.92 164.272 143.808 162.648H144.97C145.124 163.908 145.964 164.258 147.042 164.258C148.232 164.258 148.722 163.74 148.722 163.068C148.722 162.256 148.162 162.046 146.832 161.766C145.404 161.472 144.13 161.178 144.13 159.596C144.13 158.392 145.054 157.608 146.734 157.608C148.526 157.608 149.408 158.462 149.576 159.876H148.414C148.302 158.924 147.784 158.504 146.706 158.504C145.67 158.504 145.25 158.966 145.25 159.54C145.25 160.324 145.95 160.478 147.196 160.73C148.652 161.024 149.87 161.346 149.87 163.012C149.87 164.468 148.68 165.21 147.014 165.21ZM154.186 165.196C151.974 165.196 150.686 163.488 150.686 161.388C150.686 159.288 152.058 157.58 154.116 157.58C156.286 157.58 157.448 159.26 157.448 161.654H151.848C151.932 163.124 152.73 164.244 154.186 164.244C155.236 164.244 155.936 163.74 156.188 162.76H157.294C156.958 164.314 155.824 165.196 154.186 165.196ZM154.116 158.476C152.772 158.476 152.044 159.484 151.876 160.8H156.23C156.16 159.358 155.418 158.476 154.116 158.476Z" fill="black"/>
<path d="M28.7256 108.698V106.99H36.7756V108.698H33.7656V117H31.7356V108.698H28.7256ZM39.5522 106.99V110.756H39.5942C40.1122 110 40.7002 109.622 41.6802 109.622C43.1642 109.622 44.1582 110.742 44.1582 112.31V117H42.2542V112.59C42.2542 111.82 41.8062 111.274 41.0082 111.274C40.1682 111.274 39.5522 111.946 39.5522 112.926V117H37.6482V106.99H39.5522ZM48.7058 117.21C46.3258 117.21 44.9818 115.544 44.9818 113.402C44.9818 111.274 46.4238 109.622 48.5238 109.622C50.8338 109.622 52.0658 111.386 52.0658 113.948H46.8578C46.9978 115.054 47.6138 115.74 48.6918 115.74C49.4338 115.74 49.8678 115.404 50.0778 114.858H51.9538C51.6878 116.132 50.5538 117.21 48.7058 117.21ZM48.5518 111.092C47.5438 111.092 47.0538 111.694 46.8858 112.632H50.0778C50.0218 111.722 49.4198 111.092 48.5518 111.092ZM57.1606 109.818V110.798H57.2026C57.6926 110.028 58.3506 109.622 59.3306 109.622C60.8146 109.622 61.8086 110.742 61.8086 112.31V117H59.9046V112.59C59.9046 111.82 59.4566 111.274 58.6586 111.274C57.8186 111.274 57.2026 111.946 57.2026 112.926V117H55.2986V109.818H57.1606ZM66.3562 117.21C63.9762 117.21 62.6322 115.544 62.6322 113.402C62.6322 111.274 64.0742 109.622 66.1742 109.622C68.4842 109.622 69.7162 111.386 69.7162 113.948H64.5082C64.6482 115.054 65.2642 115.74 66.3422 115.74C67.0842 115.74 67.5182 115.404 67.7282 114.858H69.6042C69.3382 116.132 68.2042 117.21 66.3562 117.21ZM66.2022 111.092C65.1942 111.092 64.7042 111.694 64.5362 112.632H67.7282C67.6722 111.722 67.0702 111.092 66.2022 111.092ZM73.9714 117.21C71.5914 117.21 70.2474 115.544 70.2474 113.402C70.2474 111.274 71.6894 109.622 73.7894 109.622C76.0994 109.622 77.3314 111.386 77.3314 113.948H72.1234C72.2634 115.054 72.8794 115.74 73.9574 115.74C74.6994 115.74 75.1334 115.404 75.3434 114.858H77.2194C76.9534 116.132 75.8194 117.21 73.9714 117.21ZM73.8174 111.092C72.8094 111.092 72.3194 111.694 72.1514 112.632H75.3434C75.2874 111.722 74.6854 111.092 73.8174 111.092ZM80.9007 117.21C79.0947 117.21 77.8627 115.74 77.8627 113.416C77.8627 111.176 79.1367 109.622 80.9287 109.622C81.9367 109.622 82.5667 110.084 82.9587 110.686H83.0007V106.99H84.9047V117H83.0707V116.062H83.0427C82.6227 116.748 81.9087 117.21 80.9007 117.21ZM81.3207 115.614C82.4547 115.614 83.0427 114.774 83.0427 113.458C83.0427 112.086 82.5947 111.162 81.3767 111.162C80.3267 111.162 79.7947 112.086 79.7947 113.416C79.7947 114.802 80.3407 115.614 81.3207 115.614Z" fill="black"/>
<path d="M28.4736 118.75H85.5207V119.45H28.4736V118.75Z" fill="black"/>
<rect x="342" y="15" width="128" height="74" rx="10" fill="#D0B3F0"/>
<path d="M366.578 68.196C363.764 68.196 362.42 66.628 362.308 64.612H363.54C363.708 66.306 364.744 67.188 366.634 67.188C368.02 67.188 369.014 66.558 369.014 65.312C369.014 63.94 367.81 63.618 366.018 63.226C364.254 62.834 362.742 62.33 362.742 60.44C362.742 58.788 364.114 57.794 366.144 57.794C368.65 57.794 369.686 59.068 369.938 60.916H368.748C368.566 59.488 367.642 58.774 366.172 58.774C364.814 58.774 363.918 59.348 363.918 60.384C363.918 61.518 365.038 61.854 366.536 62.148C368.482 62.54 370.26 63.016 370.26 65.27C370.26 67.146 368.734 68.196 366.578 68.196ZM374.628 68.196C372.416 68.196 371.128 66.488 371.128 64.388C371.128 62.288 372.5 60.58 374.558 60.58C376.728 60.58 377.89 62.26 377.89 64.654H372.29C372.374 66.124 373.172 67.244 374.628 67.244C375.678 67.244 376.378 66.74 376.63 65.76H377.736C377.4 67.314 376.266 68.196 374.628 68.196ZM374.558 61.476C373.214 61.476 372.486 62.484 372.318 63.8H376.672C376.602 62.358 375.86 61.476 374.558 61.476ZM380.133 60.762V61.966H380.161C380.595 61.266 381.351 60.678 382.317 60.678C382.527 60.678 382.639 60.706 382.779 60.762V61.854H382.737C382.569 61.798 382.457 61.784 382.233 61.784C381.113 61.784 380.133 62.624 380.133 63.982V68H378.999V60.762H380.133ZM385.589 68L383.055 60.762H384.273L385.771 65.354C385.981 65.998 386.247 66.88 386.247 66.88H386.275C386.275 66.88 386.541 65.984 386.751 65.354L388.277 60.762H389.453L386.849 68H385.589ZM390.25 68V60.762H391.384V68H390.25ZM390.25 59.39V57.99H391.384V59.39H390.25ZM396.024 68.196C393.868 68.196 392.524 66.488 392.524 64.388C392.524 62.288 393.868 60.58 396.024 60.58C397.732 60.58 398.866 61.56 399.118 63.1H397.97C397.802 62.12 397.116 61.518 396.024 61.518C394.484 61.518 393.686 62.792 393.686 64.388C393.686 65.984 394.484 67.244 396.024 67.244C397.2 67.244 397.9 66.572 397.998 65.452H399.118C398.964 67.188 397.83 68.196 396.024 68.196ZM403.284 68.196C401.072 68.196 399.784 66.488 399.784 64.388C399.784 62.288 401.156 60.58 403.214 60.58C405.384 60.58 406.546 62.26 406.546 64.654H400.946C401.03 66.124 401.828 67.244 403.284 67.244C404.334 67.244 405.034 66.74 405.286 65.76H406.392C406.056 67.314 404.922 68.196 403.284 68.196ZM403.214 61.476C401.87 61.476 401.142 62.484 400.974 63.8H405.328C405.258 62.358 404.516 61.476 403.214 61.476ZM415.567 68.07C414.825 68.07 414.433 67.734 414.321 66.992H414.307C413.873 67.552 413.131 68.14 411.899 68.14C410.527 68.14 409.449 67.496 409.449 66.124C409.449 64.416 410.793 64.066 412.599 63.786C413.621 63.632 414.335 63.534 414.335 62.75C414.335 61.938 413.747 61.476 412.711 61.476C411.535 61.476 410.947 61.98 410.905 63.072H409.813C409.855 61.672 410.779 60.622 412.697 60.622C414.237 60.622 415.371 61.196 415.371 62.918V66.362C415.371 66.95 415.511 67.272 416.141 67.132H416.183V67.958C416.043 68.014 415.861 68.07 415.567 68.07ZM412.151 67.272C413.663 67.272 414.349 66.166 414.349 65.326V64.094C413.971 64.332 413.313 64.514 412.697 64.626C411.563 64.836 410.653 65.032 410.653 66.096C410.653 67.062 411.409 67.272 412.151 67.272ZM418.154 60.762V61.966H418.182C418.616 61.266 419.372 60.678 420.338 60.678C420.548 60.678 420.66 60.706 420.8 60.762V61.854H420.758C420.59 61.798 420.478 61.784 420.254 61.784C419.134 61.784 418.154 62.624 418.154 63.982V68H417.02V60.762H418.154ZM424.639 68.196C422.427 68.196 421.139 66.488 421.139 64.388C421.139 62.288 422.511 60.58 424.569 60.58C426.739 60.58 427.901 62.26 427.901 64.654H422.301C422.385 66.124 423.183 67.244 424.639 67.244C425.689 67.244 426.389 66.74 426.641 65.76H427.747C427.411 67.314 426.277 68.196 424.639 68.196ZM424.569 61.476C423.225 61.476 422.497 62.484 422.329 63.8H426.683C426.613 62.358 425.871 61.476 424.569 61.476ZM434.694 68.07C433.952 68.07 433.56 67.734 433.448 66.992H433.434C433 67.552 432.258 68.14 431.026 68.14C429.654 68.14 428.576 67.496 428.576 66.124C428.576 64.416 429.92 64.066 431.726 63.786C432.748 63.632 433.462 63.534 433.462 62.75C433.462 61.938 432.874 61.476 431.838 61.476C430.662 61.476 430.074 61.98 430.032 63.072H428.94C428.982 61.672 429.906 60.622 431.824 60.622C433.364 60.622 434.498 61.196 434.498 62.918V66.362C434.498 66.95 434.638 67.272 435.268 67.132H435.31V67.958C435.17 68.014 434.988 68.07 434.694 68.07ZM431.278 67.272C432.79 67.272 433.476 66.166 433.476 65.326V64.094C433.098 64.332 432.44 64.514 431.824 64.626C430.69 64.836 429.78 65.032 429.78 66.096C429.78 67.062 430.536 67.272 431.278 67.272Z" fill="black"/>
<rect x="346" y="191" width="128" height="74" rx="10" fill="#D0B3F0"/>
<path d="M474 51C473.448 51 473 51.4477 473 52C473 52.5523 473.448 53 474 53V51ZM587.707 138.207C588.098 137.817 588.098 137.183 587.707 136.793L581.343 130.429C580.953 130.038 580.319 130.038 579.929 130.429C579.538 130.819 579.538 131.453 579.929 131.843L585.586 137.5L579.929 143.157C579.538 143.547 579.538 144.181 579.929 144.571C580.319 144.962 580.953 144.962 581.343 144.571L587.707 138.207ZM474 53H481V51H474V53ZM504 76V113.5H506V76H504ZM529 138.5H587V136.5H529V138.5ZM504 113.5C504 127.307 515.193 138.5 529 138.5V136.5C516.297 136.5 506 126.203 506 113.5H504ZM481 53C493.703 53 504 63.2975 504 76H506C506 62.1929 494.807 51 481 51V53Z" fill="#B3B3B3"/>
<path d="M733 136.5C732.448 136.5 732 136.948 732 137.5C732 138.052 732.448 138.5 733 138.5V136.5ZM807.707 20.7071C808.098 20.3166 808.098 19.6834 807.707 19.2929L801.343 12.9289C800.953 12.5384 800.319 12.5384 799.929 12.9289C799.538 13.3195 799.538 13.9526 799.929 14.3431L805.586 20L799.929 25.6569C799.538 26.0474 799.538 26.6805 799.929 27.0711C800.319 27.4616 800.953 27.4616 801.343 27.0711L807.707 20.7071ZM733 138.5H746V136.5H733V138.5ZM771 113.5V44H769V113.5H771ZM794 21H807V19H794V21ZM771 44C771 31.2975 781.297 21 794 21V19C780.193 19 769 30.1929 769 44H771ZM746 138.5C759.807 138.5 771 127.307 771 113.5H769C769 126.203 758.703 136.5 746 136.5V138.5Z" fill="#B3B3B3"/>
<path d="M733 136.5C732.448 136.5 732 136.948 732 137.5C732 138.052 732.448 138.5 733 138.5V136.5ZM807.707 79.7071C808.098 79.3166 808.098 78.6834 807.707 78.2929L801.343 71.9289C800.953 71.5384 800.319 71.5384 799.929 71.9289C799.538 72.3195 799.538 72.9526 799.929 73.3431L805.586 79L799.929 84.6569C799.538 85.0474 799.538 85.6805 799.929 86.0711C800.319 86.4616 800.953 86.4616 801.343 86.0711L807.707 79.7071ZM733 138.5H746V136.5H733V138.5ZM771 113.5V103H769V113.5H771ZM794 80H807V78H794V80ZM771 103C771 90.2975 781.297 80 794 80V78C780.193 78 769 89.1929 769 103H771ZM746 138.5C759.807 138.5 771 127.307 771 113.5H769C769 126.203 758.703 136.5 746 136.5V138.5Z" fill="#B3B3B3"/>
<path d="M733 136.5C732.448 136.5 732 136.948 732 137.5C732 138.052 732.448 138.5 733 138.5V136.5ZM807.707 138.207C808.098 137.817 808.098 137.183 807.707 136.793L801.343 130.429C800.953 130.038 800.319 130.038 799.929 130.429C799.538 130.819 799.538 131.453 799.929 131.843L805.586 137.5L799.929 143.157C799.538 143.547 799.538 144.181 799.929 144.571C800.319 144.962 800.953 144.962 801.343 144.571L807.707 138.207ZM733 138.5H807V136.5H733V138.5Z" fill="#B3B3B3"/>
<path d="M733 136.5C732.448 136.5 732 136.948 732 137.5C732 138.052 732.448 138.5 733 138.5V136.5ZM807.707 195.707C808.098 195.317 808.098 194.683 807.707 194.293L801.343 187.929C800.953 187.538 800.319 187.538 799.929 187.929C799.538 188.319 799.538 188.953 799.929 189.343L805.586 195L799.929 200.657C799.538 201.047 799.538 201.681 799.929 202.071C800.319 202.462 800.953 202.462 801.343 202.071L807.707 195.707ZM733 138.5H746V136.5H733V138.5ZM769 161.5V171H771V161.5H769ZM794 196H807V194H794V196ZM769 171C769 184.807 780.193 196 794 196V194C781.297 194 771 183.703 771 171H769ZM746 138.5C758.703 138.5 769 148.797 769 161.5H771C771 147.693 759.807 136.5 746 136.5V138.5Z" fill="#B3B3B3"/>
<path d="M733 136.5C732.448 136.5 732 136.948 732 137.5C732 138.052 732.448 138.5 733 138.5V136.5ZM807.707 254.707C808.098 254.317 808.098 253.683 807.707 253.293L801.343 246.929C800.953 246.538 800.319 246.538 799.929 246.929C799.538 247.319 799.538 247.953 799.929 248.343L805.586 254L799.929 259.657C799.538 260.047 799.538 260.681 799.929 261.071C800.319 261.462 800.953 261.462 801.343 261.071L807.707 254.707ZM733 138.5H746V136.5H733V138.5ZM769 161.5V230H771V161.5H769ZM794 255H807V253H794V255ZM769 230C769 243.807 780.193 255 794 255V253C781.297 253 771 242.703 771 230H769ZM746 138.5C758.703 138.5 769 148.797 769 161.5H771C771 147.693 759.807 136.5 746 136.5V138.5Z" fill="#B3B3B3"/>
<path d="M192 136C191.448 136 191 136.448 191 137C191 137.552 191.448 138 192 138V136ZM342.707 228.707C343.098 228.317 343.098 227.683 342.707 227.293L336.343 220.929C335.953 220.538 335.319 220.538 334.929 220.929C334.538 221.319 334.538 221.953 334.929 222.343L340.586 228L334.929 233.657C334.538 234.047 334.538 234.681 334.929 235.071C335.319 235.462 335.953 235.462 336.343 235.071L342.707 228.707ZM192 138H233V136H192V138ZM256 161V208H258V161H256ZM297.318 229H342V227H297.318V229ZM233 138C245.703 138 256 148.297 256 161H258C258 147.193 246.807 136 233 136V138Z" fill="#A7B0BF"/>
<rect width="45" height="40" transform="translate(252.318 208)" fill="#BDE3FF"/>
<path d="M261.174 232V225.455H262.448V232H261.174ZM261.818 224.445C261.596 224.445 261.406 224.371 261.247 224.223C261.09 224.072 261.012 223.893 261.012 223.686C261.012 223.476 261.09 223.297 261.247 223.149C261.406 222.999 261.596 222.923 261.818 222.923C262.039 222.923 262.228 222.999 262.385 223.149C262.544 223.297 262.623 223.476 262.623 223.686C262.623 223.893 262.544 224.072 262.385 224.223C262.228 224.371 262.039 224.445 261.818 224.445ZM265.305 228.114V232H264.031V225.455H265.254V226.52H265.335C265.485 226.173 265.721 225.895 266.042 225.685C266.366 225.474 266.773 225.369 267.265 225.369C267.711 225.369 268.102 225.463 268.437 225.651C268.772 225.835 269.032 226.111 269.217 226.477C269.401 226.844 269.494 227.297 269.494 227.837V232H268.219V227.99C268.219 227.516 268.096 227.145 267.849 226.878C267.602 226.608 267.262 226.473 266.83 226.473C266.535 226.473 266.272 226.537 266.042 226.665C265.815 226.793 265.634 226.98 265.501 227.227C265.37 227.472 265.305 227.767 265.305 228.114ZM271.07 234.455V225.455H272.315V226.516H272.421C272.495 226.379 272.602 226.222 272.741 226.043C272.88 225.864 273.073 225.707 273.32 225.574C273.568 225.438 273.894 225.369 274.301 225.369C274.829 225.369 275.301 225.503 275.715 225.77C276.13 226.037 276.455 226.422 276.691 226.925C276.93 227.428 277.049 228.033 277.049 228.74C277.049 229.447 276.931 230.054 276.695 230.56C276.46 231.062 276.136 231.45 275.724 231.723C275.312 231.993 274.842 232.128 274.313 232.128C273.916 232.128 273.59 232.061 273.337 231.928C273.087 231.794 272.891 231.638 272.749 231.459C272.607 231.28 272.498 231.121 272.421 230.982H272.345V234.455H271.07ZM272.319 228.727C272.319 229.187 272.386 229.591 272.519 229.938C272.653 230.284 272.846 230.555 273.099 230.751C273.352 230.945 273.661 231.041 274.028 231.041C274.409 231.041 274.727 230.94 274.982 230.739C275.238 230.534 275.431 230.257 275.562 229.908C275.695 229.558 275.762 229.165 275.762 228.727C275.762 228.295 275.697 227.908 275.566 227.564C275.438 227.22 275.245 226.949 274.987 226.75C274.731 226.551 274.411 226.452 274.028 226.452C273.659 226.452 273.346 226.547 273.09 226.737C272.837 226.928 272.646 227.193 272.515 227.534C272.384 227.875 272.319 228.273 272.319 228.727ZM282.491 229.286V225.455H283.769V232H282.517V230.866H282.448C282.298 231.216 282.056 231.507 281.724 231.74C281.394 231.97 280.984 232.085 280.492 232.085C280.072 232.085 279.7 231.993 279.376 231.808C279.055 231.621 278.802 231.344 278.617 230.977C278.436 230.611 278.345 230.158 278.345 229.618V225.455H279.619V229.464C279.619 229.911 279.742 230.266 279.99 230.53C280.237 230.794 280.558 230.926 280.953 230.926C281.191 230.926 281.428 230.866 281.664 230.747C281.903 230.628 282.1 230.447 282.257 230.206C282.416 229.964 282.494 229.658 282.491 229.286ZM288.405 225.455V226.477H284.83V225.455H288.405ZM285.788 223.886H287.062V230.078C287.062 230.325 287.099 230.511 287.173 230.636C287.247 230.759 287.342 230.842 287.459 230.888C287.578 230.93 287.707 230.952 287.847 230.952C287.949 230.952 288.038 230.945 288.115 230.93C288.192 230.916 288.251 230.905 288.294 230.896L288.524 231.949C288.45 231.977 288.345 232.006 288.209 232.034C288.072 232.065 287.902 232.082 287.697 232.085C287.362 232.091 287.05 232.031 286.76 231.906C286.47 231.781 286.236 231.588 286.057 231.327C285.878 231.065 285.788 230.737 285.788 230.342V223.886Z" fill="black" fill-opacity="0.8"/>
<path d="M384.938 232V221.99H386.198V230.838H391.448V232H384.938ZM395.343 232.196C393.187 232.196 391.843 230.488 391.843 228.388C391.843 226.288 393.187 224.58 395.343 224.58C397.513 224.58 398.829 226.288 398.829 228.388C398.829 230.488 397.513 232.196 395.343 232.196ZM395.343 231.244C396.883 231.244 397.667 229.984 397.667 228.388C397.667 226.792 396.883 225.518 395.343 225.518C393.803 225.518 393.005 226.792 393.005 228.388C393.005 229.984 393.803 231.244 395.343 231.244ZM403.053 232.196C400.897 232.196 399.553 230.488 399.553 228.388C399.553 226.288 400.897 224.58 403.053 224.58C404.761 224.58 405.895 225.56 406.147 227.1H404.999C404.831 226.12 404.145 225.518 403.053 225.518C401.513 225.518 400.715 226.792 400.715 228.388C400.715 229.984 401.513 231.244 403.053 231.244C404.229 231.244 404.929 230.572 405.027 229.452H406.147C405.993 231.188 404.859 232.196 403.053 232.196ZM413.04 232.07C412.298 232.07 411.906 231.734 411.794 230.992H411.78C411.346 231.552 410.604 232.14 409.372 232.14C408 232.14 406.922 231.496 406.922 230.124C406.922 228.416 408.266 228.066 410.072 227.786C411.094 227.632 411.808 227.534 411.808 226.75C411.808 225.938 411.22 225.476 410.184 225.476C409.008 225.476 408.42 225.98 408.378 227.072H407.286C407.328 225.672 408.252 224.622 410.17 224.622C411.71 224.622 412.844 225.196 412.844 226.918V230.362C412.844 230.95 412.984 231.272 413.614 231.132H413.656V231.958C413.516 232.014 413.334 232.07 413.04 232.07ZM409.624 231.272C411.136 231.272 411.822 230.166 411.822 229.326V228.094C411.444 228.332 410.786 228.514 410.17 228.626C409.036 228.836 408.126 229.032 408.126 230.096C408.126 231.062 408.882 231.272 409.624 231.272ZM413.894 225.686V224.762H414.944V222.48H416.078V224.762H417.478V225.686H416.078V230.39C416.078 230.894 416.344 231.062 416.806 231.062C417.03 231.062 417.282 231.006 417.408 230.964H417.45V231.944C417.184 232 416.876 232.042 416.54 232.042C415.616 232.042 414.944 231.664 414.944 230.642V225.686H413.894ZM418.649 232V224.762H419.783V232H418.649ZM418.649 223.39V221.99H419.783V223.39H418.649ZM424.423 232.196C422.267 232.196 420.923 230.488 420.923 228.388C420.923 226.288 422.267 224.58 424.423 224.58C426.593 224.58 427.909 226.288 427.909 228.388C427.909 230.488 426.593 232.196 424.423 232.196ZM424.423 231.244C425.963 231.244 426.747 229.984 426.747 228.388C426.747 226.792 425.963 225.518 424.423 225.518C422.883 225.518 422.085 226.792 422.085 228.388C422.085 229.984 422.883 231.244 424.423 231.244ZM430.174 224.762V225.714H430.202C430.72 225.028 431.448 224.594 432.498 224.594C434.01 224.594 434.934 225.42 434.934 226.918V232H433.8V227.016C433.8 226.078 433.184 225.546 432.162 225.546C431.014 225.546 430.174 226.358 430.174 227.548V232H429.04V224.762H430.174Z" fill="black"/>
<path d="M364.009 34.698V32.99H372.059V34.698H369.049V43H367.019V34.698H364.009ZM374.835 32.99V36.756H374.877C375.395 36 375.983 35.622 376.963 35.622C378.447 35.622 379.441 36.742 379.441 38.31V43H377.537V38.59C377.537 37.82 377.089 37.274 376.291 37.274C375.451 37.274 374.835 37.946 374.835 38.926V43H372.931V32.99H374.835ZM383.989 43.21C381.609 43.21 380.265 41.544 380.265 39.402C380.265 37.274 381.707 35.622 383.807 35.622C386.117 35.622 387.349 37.386 387.349 39.948H382.141C382.281 41.054 382.897 41.74 383.975 41.74C384.717 41.74 385.151 41.404 385.361 40.858H387.237C386.971 42.132 385.837 43.21 383.989 43.21ZM383.835 37.092C382.827 37.092 382.337 37.694 382.169 38.632H385.361C385.305 37.722 384.703 37.092 383.835 37.092ZM390.736 43V32.99H392.766V36.98L396.616 32.99H399.136L395.216 36.994L399.388 43H397.008L393.788 38.324L392.766 39.36V43H390.736ZM402.761 43.21C400.381 43.21 399.037 41.544 399.037 39.402C399.037 37.274 400.479 35.622 402.579 35.622C404.889 35.622 406.121 37.386 406.121 39.948H400.913C401.053 41.054 401.669 41.74 402.747 41.74C403.489 41.74 403.923 41.404 404.133 40.858H406.009C405.743 42.132 404.609 43.21 402.761 43.21ZM402.607 37.092C401.599 37.092 401.109 37.694 400.941 38.632H404.133C404.077 37.722 403.475 37.092 402.607 37.092ZM406.951 45.352V43.854H407.623C408.379 43.854 408.687 43.462 408.687 42.874C408.687 42.482 408.547 42.02 408.141 40.928L406.209 35.818H408.211L409.275 39.052C409.499 39.71 409.737 40.62 409.737 40.62H409.765C409.765 40.62 409.961 39.71 410.185 39.052L411.193 35.818H413.111L410.605 43.182C410.059 44.778 409.527 45.352 408.071 45.352H406.951ZM415.501 43L413.401 35.818H415.291L416.159 39.15C416.313 39.738 416.481 40.494 416.481 40.494H416.509C416.509 40.494 416.663 39.724 416.817 39.136L417.713 35.818H419.337L420.275 39.136C420.429 39.738 420.611 40.494 420.611 40.494H420.639C420.639 40.494 420.807 39.738 420.961 39.15L421.871 35.818H423.719L421.577 43H419.841L418.889 39.472C418.735 38.898 418.567 38.226 418.567 38.226H418.539C418.539 38.226 418.357 38.898 418.203 39.472L417.223 43H415.501ZM427.589 43.21C425.363 43.21 423.837 41.558 423.837 39.416C423.837 37.274 425.363 35.622 427.589 35.622C429.815 35.622 431.341 37.274 431.341 39.416C431.341 41.558 429.815 43.21 427.589 43.21ZM427.589 41.754C428.751 41.754 429.409 40.816 429.409 39.416C429.409 38.016 428.751 37.064 427.589 37.064C426.413 37.064 425.769 38.016 425.769 39.416C425.769 40.816 426.413 41.754 427.589 41.754ZM434.06 35.818V36.966H434.102C434.536 36.154 435.026 35.734 435.866 35.734C436.076 35.734 436.202 35.748 436.314 35.79V37.456H436.272C435.026 37.33 434.13 37.988 434.13 39.5V43H432.226V35.818H434.06ZM439.617 43.21C437.811 43.21 436.579 41.74 436.579 39.416C436.579 37.176 437.853 35.622 439.645 35.622C440.653 35.622 441.283 36.084 441.675 36.686H441.717V32.99H443.621V43H441.787V42.062H441.759C441.339 42.748 440.625 43.21 439.617 43.21ZM440.037 41.614C441.171 41.614 441.759 40.774 441.759 39.458C441.759 38.086 441.311 37.162 440.093 37.162C439.043 37.162 438.511 38.086 438.511 39.416C438.511 40.802 439.057 41.614 440.037 41.614Z" fill="black"/>
<path d="M363.757 44.75H444.237V45.45H363.757V44.75Z" fill="black"/>
<path d="M192 136C191.448 136 191 136.448 191 137C191 137.552 191.448 138 192 138V136ZM338.707 52.7071C339.098 52.3166 339.098 51.6834 338.707 51.2929L332.343 44.9289C331.953 44.5384 331.319 44.5384 330.929 44.9289C330.538 45.3195 330.538 45.9526 330.929 46.3431L336.586 52L330.929 57.6569C330.538 58.0474 330.538 58.6805 330.929 59.0711C331.319 59.4616 331.953 59.4616 332.343 59.0711L338.707 52.7071ZM192 138H233V136H192V138ZM258 113V72H256V113H258ZM296.5 53H338V51H296.5V53ZM233 138C246.807 138 258 126.807 258 113H256C256 125.703 245.703 136 233 136V138Z" fill="#A7B0BF"/>
<rect width="45" height="40" transform="translate(251.5 32)" fill="#BDE3FF"/>
<path d="M260.357 56V49.4545H261.631V56H260.357ZM261 48.4446C260.778 48.4446 260.588 48.3707 260.429 48.223C260.273 48.0724 260.195 47.8935 260.195 47.6861C260.195 47.4759 260.273 47.2969 260.429 47.1491C260.588 46.9986 260.778 46.9233 261 46.9233C261.222 46.9233 261.411 46.9986 261.567 47.1491C261.726 47.2969 261.805 47.4759 261.805 47.6861C261.805 47.8935 261.726 48.0724 261.567 48.223C261.411 48.3707 261.222 48.4446 261 48.4446ZM264.487 52.1136V56H263.213V49.4545H264.436V50.5199H264.517C264.667 50.1733 264.903 49.8949 265.224 49.6847C265.548 49.4744 265.956 49.3693 266.447 49.3693C266.893 49.3693 267.284 49.4631 267.619 49.6506C267.954 49.8352 268.214 50.1108 268.399 50.4773C268.584 50.8437 268.676 51.2969 268.676 51.8366V56H267.402V51.9901C267.402 51.5156 267.278 51.1449 267.031 50.8778C266.784 50.608 266.444 50.473 266.013 50.473C265.717 50.473 265.454 50.5369 265.224 50.6648C264.997 50.7926 264.817 50.9801 264.683 51.2273C264.552 51.4716 264.487 51.767 264.487 52.1136ZM270.253 58.4545V49.4545H271.497V50.5156H271.604C271.677 50.3793 271.784 50.2216 271.923 50.0426C272.062 49.8636 272.256 49.7074 272.503 49.5739C272.75 49.4375 273.077 49.3693 273.483 49.3693C274.011 49.3693 274.483 49.5028 274.898 49.7699C275.312 50.0369 275.638 50.4219 275.873 50.9247C276.112 51.4276 276.231 52.0327 276.231 52.7401C276.231 53.4474 276.113 54.054 275.878 54.5597C275.642 55.0625 275.318 55.4503 274.906 55.723C274.494 55.9929 274.024 56.1278 273.496 56.1278C273.098 56.1278 272.773 56.0611 272.52 55.9276C272.27 55.794 272.074 55.6378 271.932 55.4588C271.79 55.2798 271.68 55.1207 271.604 54.9815H271.527V58.4545H270.253ZM271.501 52.7273C271.501 53.1875 271.568 53.5909 271.702 53.9375C271.835 54.2841 272.028 54.5554 272.281 54.7514C272.534 54.9446 272.844 55.0412 273.21 55.0412C273.591 55.0412 273.909 54.9403 274.165 54.7386C274.42 54.5341 274.613 54.2571 274.744 53.9077C274.878 53.5582 274.944 53.1648 274.944 52.7273C274.944 52.2955 274.879 51.9077 274.748 51.5639C274.621 51.2202 274.427 50.9489 274.169 50.75C273.913 50.5511 273.594 50.4517 273.21 50.4517C272.841 50.4517 272.528 50.5469 272.273 50.7372C272.02 50.9276 271.828 51.1932 271.697 51.5341C271.567 51.875 271.501 52.2727 271.501 52.7273ZM281.673 53.2855V49.4545H282.952V56H281.699V54.8665H281.631C281.48 55.2159 281.239 55.5071 280.906 55.7401C280.577 55.9702 280.166 56.0852 279.675 56.0852C279.254 56.0852 278.882 55.9929 278.558 55.8082C278.237 55.6207 277.984 55.3438 277.8 54.9773C277.618 54.6108 277.527 54.1577 277.527 53.6179V49.4545H278.801V53.4645C278.801 53.9105 278.925 54.2656 279.172 54.5298C279.419 54.794 279.74 54.9261 280.135 54.9261C280.374 54.9261 280.611 54.8665 280.847 54.7472C281.085 54.6278 281.283 54.4474 281.439 54.206C281.598 53.9645 281.676 53.6577 281.673 53.2855ZM287.587 49.4545V50.4773H284.012V49.4545H287.587ZM284.971 47.8864H286.245V54.0781C286.245 54.3253 286.282 54.5114 286.356 54.6364C286.429 54.7585 286.525 54.8423 286.641 54.8878C286.76 54.9304 286.89 54.9517 287.029 54.9517C287.131 54.9517 287.221 54.9446 287.297 54.9304C287.374 54.9162 287.434 54.9048 287.476 54.8963L287.706 55.9489C287.633 55.9773 287.527 56.0057 287.391 56.0341C287.255 56.0653 287.084 56.0824 286.88 56.0852C286.544 56.0909 286.232 56.0312 285.942 55.9062C285.652 55.7812 285.418 55.5881 285.239 55.3267C285.06 55.0653 284.971 54.7372 284.971 54.3423V47.8864Z" fill="black" fill-opacity="0.8"/>
<path d="M474 231C473.448 231 473 231.448 473 232C473 232.552 473.448 233 474 233V231ZM587.707 138.207C588.098 137.817 588.098 137.183 587.707 136.793L581.343 130.429C580.953 130.038 580.319 130.038 579.929 130.429C579.538 130.819 579.538 131.453 579.929 131.843L585.586 137.5L579.929 143.157C579.538 143.547 579.538 144.181 579.929 144.571C580.319 144.962 580.953 144.962 581.343 144.571L587.707 138.207ZM474 233H480V231H474V233ZM505 208V161.5H503V208H505ZM528 138.5H587V136.5H528V138.5ZM505 161.5C505 148.797 515.297 138.5 528 138.5V136.5C514.193 136.5 503 147.693 503 161.5H505ZM480 233C493.807 233 505 221.807 505 208H503C503 220.703 492.703 231 480 231V233Z" fill="#B3B3B3"/>
</svg>