<svg width="237" height="237" viewBox="0 0 237 237" fill="none" xmlns="http://www.w3.org/2000/svg">
<circle cx="118.5" cy="118.5" r="118.5" fill="#DEE9F8"/>
<path d="M132.13 72.112C130.24 72.112 128.728 70.894 128.406 69.102L129.61 68.71C129.806 70.082 130.856 70.978 132.158 70.978C133.502 70.978 134.37 70.348 134.37 69.368C134.37 66.75 128.798 68.122 128.798 64.65C128.798 63.124 130.17 62.088 132.102 62.088C133.894 62.088 135.28 63.054 135.532 64.51L134.37 64.958C134.174 63.894 133.334 63.222 132.102 63.222C130.842 63.222 130.086 63.768 130.086 64.65C130.086 66.89 135.686 65.434 135.686 69.354C135.686 71.02 134.272 72.112 132.13 72.112ZM137.085 62.088H138.457V63.6H137.085V62.088ZM137.169 72V64.944H138.359V72H137.169ZM144.038 71.944C143.688 72.07 143.31 72.112 142.932 72.112C141.728 72.112 140.846 71.44 140.846 69.886V65.994H139.53V64.944H140.846V62.802H142.036V64.944H143.926V65.994H142.036V69.928C142.036 70.67 142.456 71.034 143.072 71.034C143.352 71.034 143.674 70.992 143.954 70.852L144.038 71.944ZM151.491 64.944V72H150.301V70.67C149.811 71.51 148.957 72.112 147.879 72.112C146.409 72.112 145.359 71.118 145.359 69.62V64.944H146.549V69.396C146.549 70.348 147.151 71.034 148.145 71.034C149.461 71.034 150.301 69.9 150.301 68.038V64.944H151.491ZM156.057 64.832C157.765 64.832 158.955 65.84 158.955 67.478V72H157.779V70.796C157.373 71.608 156.449 72.112 155.427 72.112C154.013 72.112 153.047 71.244 153.047 70.026C153.047 68.668 154.153 67.926 156.407 67.702L157.779 67.548V67.408C157.779 66.442 157.093 65.826 156.057 65.826C155.091 65.826 154.405 66.4 154.307 67.352L153.201 67.142C153.411 65.742 154.573 64.832 156.057 64.832ZM155.609 71.132C156.981 71.132 157.779 70.222 157.779 68.808V68.472L156.407 68.626C154.979 68.78 154.237 69.27 154.237 70.012C154.237 70.67 154.797 71.132 155.609 71.132ZM164.601 71.944C164.251 72.07 163.873 72.112 163.495 72.112C162.291 72.112 161.409 71.44 161.409 69.886V65.994H160.093V64.944H161.409V62.802H162.599V64.944H164.489V65.994H162.599V69.928C162.599 70.67 163.019 71.034 163.635 71.034C163.915 71.034 164.237 70.992 164.517 70.852L164.601 71.944ZM165.905 62.088H167.277V63.6H165.905V62.088ZM165.989 72V64.944H167.179V72H165.989ZM172.285 72.112C170.185 72.112 168.701 70.586 168.701 68.472C168.701 66.358 170.185 64.832 172.285 64.832C174.371 64.832 175.883 66.358 175.883 68.472C175.883 70.586 174.371 72.112 172.285 72.112ZM172.285 71.048C173.699 71.048 174.651 69.984 174.651 68.472C174.651 66.96 173.699 65.896 172.285 65.896C170.871 65.896 169.919 66.96 169.919 68.472C169.919 69.984 170.871 71.048 172.285 71.048ZM177.405 72V64.944H178.595V66.274C179.085 65.434 179.939 64.832 181.017 64.832C182.487 64.832 183.537 65.826 183.537 67.324V72H182.347V67.548C182.347 66.596 181.745 65.91 180.751 65.91C179.435 65.91 178.595 67.044 178.595 68.906V72H177.405Z" fill="#1E1E1E"/>
<path d="M35.022 96V86.2H38.746C40.65 86.2 41.882 87.32 41.882 89.042C41.882 90.764 40.65 91.884 38.746 91.884H36.296V96H35.022ZM36.296 90.736H38.704C39.866 90.736 40.566 90.106 40.566 89.042C40.566 87.978 39.866 87.334 38.704 87.334H36.296V90.736ZM47.3265 90.106C47.0605 89.994 46.7245 89.938 46.4165 89.938C45.2965 89.938 44.3865 91.016 44.3865 93.312V96H43.1965V88.944H44.3865V90.372C44.7925 89.476 45.7165 88.832 46.5845 88.832C46.8785 88.832 47.1585 88.874 47.3965 88.958L47.3265 90.106ZM51.4057 96.112C49.3057 96.112 47.8217 94.586 47.8217 92.472C47.8217 90.358 49.3057 88.832 51.4057 88.832C53.4917 88.832 55.0037 90.358 55.0037 92.472C55.0037 94.586 53.4917 96.112 51.4057 96.112ZM51.4057 95.048C52.8197 95.048 53.7717 93.984 53.7717 92.472C53.7717 90.96 52.8197 89.896 51.4057 89.896C49.9917 89.896 49.0397 90.96 49.0397 92.472C49.0397 93.984 49.9917 95.048 51.4057 95.048ZM60.1828 95.944C59.8328 96.07 59.4548 96.112 59.0768 96.112C57.8728 96.112 56.9908 95.44 56.9908 93.886V89.994H55.6748V88.944H56.9908V86.802H58.1808V88.944H60.0708V89.994H58.1808V93.928C58.1808 94.67 58.6008 95.034 59.2168 95.034C59.4968 95.034 59.8188 94.992 60.0988 94.852L60.1828 95.944ZM67.7777 92.15C67.7777 92.318 67.7637 92.57 67.7497 92.696H62.1777C62.2617 94.124 63.1577 95.062 64.4317 95.062C65.5097 95.062 66.2517 94.558 66.4617 93.676L67.5817 93.942C67.2317 95.314 66.0557 96.112 64.4317 96.112C62.3177 96.112 60.9877 94.474 60.9877 92.472C60.9877 90.47 62.2757 88.832 64.4037 88.832C66.4897 88.832 67.7777 90.33 67.7777 92.15ZM62.2477 91.702H66.5177C66.4057 90.624 65.6497 89.826 64.4037 89.826C63.2977 89.826 62.4857 90.526 62.2477 91.702ZM72.4038 96.112C70.3038 96.112 68.9038 94.656 68.9038 92.472C68.9038 90.288 70.3038 88.832 72.4038 88.832C74.0418 88.832 75.2458 89.728 75.4978 91.128L74.3218 91.366C74.1678 90.512 73.4258 89.896 72.4318 89.896C71.0458 89.896 70.1498 90.918 70.1498 92.472C70.1498 94.026 71.0458 95.048 72.4318 95.048C73.4258 95.048 74.1538 94.502 74.3498 93.564L75.5118 93.802C75.2038 95.258 74.0278 96.112 72.4038 96.112ZM80.6496 95.944C80.2996 96.07 79.9216 96.112 79.5436 96.112C78.3396 96.112 77.4576 95.44 77.4576 93.886V89.994H76.1416V88.944H77.4576V86.802H78.6476V88.944H80.5376V89.994H78.6476V93.928C78.6476 94.67 79.0676 95.034 79.6836 95.034C79.9636 95.034 80.2856 94.992 80.5656 94.852L80.6496 95.944ZM81.9543 86.088H83.3263V87.6H81.9543V86.088ZM82.0383 96V88.944H83.2283V96H82.0383ZM88.3335 96.112C86.2335 96.112 84.7495 94.586 84.7495 92.472C84.7495 90.358 86.2335 88.832 88.3335 88.832C90.4195 88.832 91.9315 90.358 91.9315 92.472C91.9315 94.586 90.4195 96.112 88.3335 96.112ZM88.3335 95.048C89.7475 95.048 90.6995 93.984 90.6995 92.472C90.6995 90.96 89.7475 89.896 88.3335 89.896C86.9195 89.896 85.9675 90.96 85.9675 92.472C85.9675 93.984 86.9195 95.048 88.3335 95.048ZM93.4543 96V88.944H94.6443V90.274C95.1343 89.434 95.9883 88.832 97.0663 88.832C98.5363 88.832 99.5863 89.826 99.5863 91.324V96H98.3963V91.548C98.3963 90.596 97.7943 89.91 96.8003 89.91C95.4843 89.91 94.6443 91.044 94.6443 92.906V96H93.4543Z" fill="#1E1E1E"/>
<path d="M91.334 202.112C88.87 202.112 86.574 200.474 86.574 197.1C86.574 193.726 88.884 192.088 91.334 192.088C93.476 192.088 95.058 193.292 95.464 195.182L94.204 195.462C93.896 194.048 92.846 193.222 91.32 193.222C89.332 193.222 87.89 194.594 87.89 197.1C87.89 199.606 89.332 200.964 91.32 200.964C92.846 200.964 93.84 200.18 94.19 198.822L95.464 199.088C94.974 200.936 93.448 202.112 91.334 202.112ZM100.138 202.112C98.0381 202.112 96.5541 200.586 96.5541 198.472C96.5541 196.358 98.0381 194.832 100.138 194.832C102.224 194.832 103.736 196.358 103.736 198.472C103.736 200.586 102.224 202.112 100.138 202.112ZM100.138 201.048C101.552 201.048 102.504 199.984 102.504 198.472C102.504 196.96 101.552 195.896 100.138 195.896C98.7241 195.896 97.7721 196.96 97.7721 198.472C97.7721 199.984 98.7241 201.048 100.138 201.048ZM105.259 202V194.944H106.449V196.274C106.939 195.434 107.793 194.832 108.871 194.832C110.341 194.832 111.391 195.826 111.391 197.324V202H110.201V197.548C110.201 196.596 109.599 195.91 108.605 195.91C107.289 195.91 106.449 197.044 106.449 198.906V202H105.259ZM116.321 202.112C114.123 202.112 112.919 200.544 112.919 198.472C112.919 196.4 114.123 194.832 116.307 194.832C117.245 194.832 118.169 195.294 118.617 195.952V192.088H119.807V202H118.617V200.978C118.295 201.622 117.357 202.112 116.321 202.112ZM116.433 201.048C117.819 201.048 118.729 200.026 118.729 198.472C118.729 196.918 117.819 195.896 116.433 195.896C115.047 195.896 114.137 196.918 114.137 198.472C114.137 200.026 115.047 201.048 116.433 201.048ZM121.65 192.088H123.022V193.6H121.65V192.088ZM121.734 202V194.944H122.924V202H121.734ZM128.603 201.944C128.253 202.07 127.875 202.112 127.497 202.112C126.293 202.112 125.411 201.44 125.411 199.886V195.994H124.095V194.944H125.411V192.802H126.601V194.944H128.491V195.994H126.601V199.928C126.601 200.67 127.021 201.034 127.637 201.034C127.917 201.034 128.239 200.992 128.519 200.852L128.603 201.944ZM129.907 192.088H131.279V193.6H129.907V192.088ZM129.991 202V194.944H131.181V202H129.991ZM136.287 202.112C134.187 202.112 132.703 200.586 132.703 198.472C132.703 196.358 134.187 194.832 136.287 194.832C138.373 194.832 139.885 196.358 139.885 198.472C139.885 200.586 138.373 202.112 136.287 202.112ZM136.287 201.048C137.701 201.048 138.653 199.984 138.653 198.472C138.653 196.96 137.701 195.896 136.287 195.896C134.873 195.896 133.921 196.96 133.921 198.472C133.921 199.984 134.873 201.048 136.287 201.048ZM141.407 202V194.944H142.597V196.274C143.087 195.434 143.941 194.832 145.019 194.832C146.489 194.832 147.539 195.826 147.539 197.324V202H146.349V197.548C146.349 196.596 145.747 195.91 144.753 195.91C143.437 195.91 142.597 197.044 142.597 198.906V202H141.407Z" fill="#1E1E1E"/>
<path d="M149.13 119.112C147.24 119.112 145.728 117.894 145.406 116.102L146.61 115.71C146.806 117.082 147.856 117.978 149.158 117.978C150.502 117.978 151.37 117.348 151.37 116.368C151.37 113.75 145.798 115.122 145.798 111.65C145.798 110.124 147.17 109.088 149.102 109.088C150.894 109.088 152.28 110.054 152.532 111.51L151.37 111.958C151.174 110.894 150.334 110.222 149.102 110.222C147.842 110.222 147.086 110.768 147.086 111.65C147.086 113.89 152.686 112.434 152.686 116.354C152.686 118.02 151.272 119.112 149.13 119.112ZM156.801 111.832C158.509 111.832 159.699 112.84 159.699 114.478V119H158.523V117.796C158.117 118.608 157.193 119.112 156.171 119.112C154.757 119.112 153.791 118.244 153.791 117.026C153.791 115.668 154.897 114.926 157.151 114.702L158.523 114.548V114.408C158.523 113.442 157.837 112.826 156.801 112.826C155.835 112.826 155.149 113.4 155.051 114.352L153.945 114.142C154.155 112.742 155.317 111.832 156.801 111.832ZM156.353 118.132C157.725 118.132 158.523 117.222 158.523 115.808V115.472L157.151 115.626C155.723 115.78 154.981 116.27 154.981 117.012C154.981 117.67 155.541 118.132 156.353 118.132ZM162.088 119V112.994H160.884V111.944H162.088V111.286C162.088 109.732 162.97 108.906 164.174 108.906C164.496 108.906 164.832 108.934 165.126 109.018L165.07 110.082C164.818 109.984 164.566 109.942 164.328 109.942C163.698 109.942 163.278 110.432 163.278 111.188V111.944H165.084V112.994H163.278V119H162.088ZM172.434 115.15C172.434 115.318 172.42 115.57 172.406 115.696H166.834C166.918 117.124 167.814 118.062 169.088 118.062C170.166 118.062 170.908 117.558 171.118 116.676L172.238 116.942C171.888 118.314 170.712 119.112 169.088 119.112C166.974 119.112 165.644 117.474 165.644 115.472C165.644 113.47 166.932 111.832 169.06 111.832C171.146 111.832 172.434 113.33 172.434 115.15ZM166.904 114.702H171.174C171.062 113.624 170.306 112.826 169.06 112.826C167.954 112.826 167.142 113.526 166.904 114.702ZM177.622 118.944C177.272 119.07 176.894 119.112 176.516 119.112C175.312 119.112 174.43 118.44 174.43 116.886V112.994H173.114V111.944H174.43V109.802H175.62V111.944H177.51V112.994H175.62V116.928C175.62 117.67 176.04 118.034 176.656 118.034C176.936 118.034 177.258 117.992 177.538 117.852L177.622 118.944ZM183.659 111.944H184.877L181.181 121.548H179.963L180.985 118.902L178.227 111.944H179.515L181.587 117.348L183.659 111.944Z" fill="#1E1E1E"/>
<path d="M122.728 160L121.762 157.508H117.408L116.442 160H115.126L119.004 150.2H120.166L124.058 160H122.728ZM117.842 156.374H121.328L119.592 151.88L117.842 156.374ZM125.154 160V150.088H126.344V160H125.154ZM132.023 159.944C131.673 160.07 131.295 160.112 130.917 160.112C129.713 160.112 128.831 159.44 128.831 157.886V153.994H127.515V152.944H128.831V150.802H130.021V152.944H131.911V153.994H130.021V157.928C130.021 158.67 130.441 159.034 131.057 159.034C131.337 159.034 131.659 158.992 131.939 158.852L132.023 159.944ZM139.618 156.15C139.618 156.318 139.604 156.57 139.59 156.696H134.018C134.102 158.124 134.998 159.062 136.272 159.062C137.35 159.062 138.092 158.558 138.302 157.676L139.422 157.942C139.072 159.314 137.896 160.112 136.272 160.112C134.158 160.112 132.828 158.474 132.828 156.472C132.828 154.47 134.116 152.832 136.244 152.832C138.33 152.832 139.618 154.33 139.618 156.15ZM134.088 155.702H138.358C138.246 154.624 137.49 153.826 136.244 153.826C135.138 153.826 134.326 154.526 134.088 155.702ZM145.28 154.106C145.014 153.994 144.678 153.938 144.37 153.938C143.25 153.938 142.34 155.016 142.34 157.312V160H141.15V152.944H142.34V154.372C142.746 153.476 143.67 152.832 144.538 152.832C144.832 152.832 145.112 152.874 145.35 152.958L145.28 154.106ZM146.509 160V152.944H147.699V154.274C148.189 153.434 149.043 152.832 150.121 152.832C151.591 152.832 152.641 153.826 152.641 155.324V160H151.451V155.548C151.451 154.596 150.849 153.91 149.855 153.91C148.539 153.91 147.699 155.044 147.699 156.906V160H146.509ZM157.207 152.832C158.915 152.832 160.105 153.84 160.105 155.478V160H158.929V158.796C158.523 159.608 157.599 160.112 156.577 160.112C155.163 160.112 154.197 159.244 154.197 158.026C154.197 156.668 155.303 155.926 157.557 155.702L158.929 155.548V155.408C158.929 154.442 158.243 153.826 157.207 153.826C156.241 153.826 155.555 154.4 155.457 155.352L154.351 155.142C154.561 153.742 155.723 152.832 157.207 152.832ZM156.759 159.132C158.131 159.132 158.929 158.222 158.929 156.808V156.472L157.557 156.626C156.129 156.78 155.387 157.27 155.387 158.012C155.387 158.67 155.947 159.132 156.759 159.132ZM165.751 159.944C165.401 160.07 165.023 160.112 164.645 160.112C163.441 160.112 162.559 159.44 162.559 157.886V153.994H161.243V152.944H162.559V150.802H163.749V152.944H165.639V153.994H163.749V157.928C163.749 158.67 164.169 159.034 164.785 159.034C165.065 159.034 165.387 158.992 165.667 158.852L165.751 159.944ZM167.056 150.088H168.428V151.6H167.056V150.088ZM167.14 160V152.944H168.33V160H167.14ZM172.049 160L169.473 152.944H170.691L172.651 158.614L174.625 152.944H175.857L173.267 160H172.049ZM183.163 156.15C183.163 156.318 183.149 156.57 183.135 156.696H177.562C177.647 158.124 178.543 159.062 179.817 159.062C180.895 159.062 181.637 158.558 181.847 157.676L182.967 157.942C182.617 159.314 181.441 160.112 179.817 160.112C177.703 160.112 176.373 158.474 176.373 156.472C176.373 154.47 177.66 152.832 179.789 152.832C181.875 152.832 183.163 154.33 183.163 156.15ZM177.633 155.702H181.903C181.791 154.624 181.035 153.826 179.789 153.826C178.683 153.826 177.87 154.526 177.633 155.702Z" fill="#1E1E1E"/>
<path d="M44.732 144.112C42.506 144.112 41.022 142.796 41.022 140.612V134.2H42.268V140.682C42.268 142.11 43.248 142.964 44.732 142.964C46.23 142.964 47.224 142.11 47.224 140.682V134.2H48.456V140.612C48.456 142.796 46.972 144.112 44.732 144.112ZM54.5569 138.106C54.2909 137.994 53.9549 137.938 53.6469 137.938C52.5269 137.938 51.6169 139.016 51.6169 141.312V144H50.4269V136.944H51.6169V138.372C52.0229 137.476 52.9469 136.832 53.8149 136.832C54.1089 136.832 54.3889 136.874 54.6269 136.958L54.5569 138.106ZM60.6662 136.944H61.8422V143.664C61.8422 145.442 60.4982 146.66 58.5522 146.66C56.9142 146.66 55.6402 145.792 55.4302 144.518L56.5782 144.322C56.6482 145.106 57.4742 145.652 58.5522 145.652C59.7982 145.652 60.6662 144.896 60.6662 143.79V142.81C60.3442 143.412 59.4202 143.818 58.4122 143.818C56.2422 143.818 55.0522 142.32 55.0522 140.332C55.0522 138.33 56.2422 136.832 58.3842 136.832C59.3222 136.832 60.2462 137.28 60.6662 137.896V136.944ZM58.5242 142.754C59.8822 142.754 60.7642 141.802 60.7642 140.332C60.7642 138.848 59.8822 137.896 58.5242 137.896C57.1522 137.896 56.2702 138.848 56.2702 140.332C56.2702 141.802 57.1522 142.754 58.5242 142.754ZM70.1547 140.15C70.1547 140.318 70.1407 140.57 70.1267 140.696H64.5547C64.6387 142.124 65.5347 143.062 66.8087 143.062C67.8867 143.062 68.6287 142.558 68.8387 141.676L69.9587 141.942C69.6087 143.314 68.4327 144.112 66.8087 144.112C64.6947 144.112 63.3647 142.474 63.3647 140.472C63.3647 138.47 64.6527 136.832 66.7807 136.832C68.8667 136.832 70.1547 138.33 70.1547 140.15ZM64.6247 139.702H68.8947C68.7827 138.624 68.0267 137.826 66.7807 137.826C65.6747 137.826 64.8627 138.526 64.6247 139.702ZM71.6867 144V136.944H72.8767V138.274C73.3667 137.434 74.2207 136.832 75.2987 136.832C76.7687 136.832 77.8187 137.826 77.8187 139.324V144H76.6287V139.548C76.6287 138.596 76.0267 137.91 75.0327 137.91C73.7167 137.91 72.8767 139.044 72.8767 140.906V144H71.6867ZM82.8471 144.112C80.7471 144.112 79.3471 142.656 79.3471 140.472C79.3471 138.288 80.7471 136.832 82.8471 136.832C84.4851 136.832 85.6891 137.728 85.9411 139.128L84.7651 139.366C84.6111 138.512 83.8691 137.896 82.8751 137.896C81.4891 137.896 80.5931 138.918 80.5931 140.472C80.5931 142.026 81.4891 143.048 82.8751 143.048C83.8691 143.048 84.5971 142.502 84.7931 141.564L85.9551 141.802C85.6471 143.258 84.4711 144.112 82.8471 144.112ZM91.866 136.944H93.084L89.388 146.548H88.17L89.192 143.902L86.434 136.944H87.722L89.794 142.348L91.866 136.944Z" fill="#1E1E1E"/>
<path d="M94.022 40V30.2H95.436L100.378 37.998V30.2H101.624V40H100.21L95.268 32.23V40H94.022ZM110.002 36.15C110.002 36.318 109.988 36.57 109.974 36.696H104.402C104.486 38.124 105.382 39.062 106.656 39.062C107.734 39.062 108.476 38.558 108.686 37.676L109.806 37.942C109.456 39.314 108.28 40.112 106.656 40.112C104.542 40.112 103.212 38.474 103.212 36.472C103.212 34.47 104.5 32.832 106.628 32.832C108.714 32.832 110.002 34.33 110.002 36.15ZM104.472 35.702H108.742C108.63 34.624 107.874 33.826 106.628 33.826C105.522 33.826 104.71 34.526 104.472 35.702ZM117.918 36.15C117.918 36.318 117.904 36.57 117.89 36.696H112.318C112.402 38.124 113.298 39.062 114.572 39.062C115.65 39.062 116.392 38.558 116.602 37.676L117.722 37.942C117.372 39.314 116.196 40.112 114.572 40.112C112.458 40.112 111.128 38.474 111.128 36.472C111.128 34.47 112.416 32.832 114.544 32.832C116.63 32.832 117.918 34.33 117.918 36.15ZM112.388 35.702H116.658C116.546 34.624 115.79 33.826 114.544 33.826C113.438 33.826 112.626 34.526 112.388 35.702ZM122.446 40.112C120.248 40.112 119.044 38.544 119.044 36.472C119.044 34.4 120.248 32.832 122.432 32.832C123.37 32.832 124.294 33.294 124.742 33.952V30.088H125.932V40H124.742V38.978C124.42 39.622 123.482 40.112 122.446 40.112ZM122.558 39.048C123.944 39.048 124.854 38.026 124.854 36.472C124.854 34.918 123.944 33.896 122.558 33.896C121.172 33.896 120.262 34.918 120.262 36.472C120.262 38.026 121.172 39.048 122.558 39.048ZM130.225 40.112C128.517 40.112 127.593 39.048 127.285 38.054L128.307 37.606C128.573 38.432 129.133 39.104 130.225 39.104C131.093 39.104 131.653 38.6 131.653 38.026C131.653 36.22 127.593 37.382 127.593 34.708C127.593 33.588 128.559 32.832 130.071 32.832C131.317 32.832 132.395 33.532 132.689 34.568L131.695 35.002C131.499 34.274 130.799 33.812 130.043 33.812C129.245 33.812 128.741 34.134 128.741 34.694C128.741 36.206 132.829 35.1 132.815 38.012C132.815 39.244 131.779 40.112 130.225 40.112Z" fill="#1E1E1E"/>
</svg>
