<svg width="237" height="237" viewBox="0 0 237 237" fill="none" xmlns="http://www.w3.org/2000/svg">
<circle cx="118.5" cy="118.5" r="118.5" fill="#C5D8E1"/>
<path d="M89.022 42V32.2H90.296V40.852H95.154V42H89.022ZM96.2375 32.088H97.6095V33.6H96.2375V32.088ZM96.3215 42V34.944H97.5115V42H96.3215ZM100.139 42V35.994H98.9347V34.944H100.139V34.286C100.139 32.732 101.021 31.906 102.225 31.906C102.547 31.906 102.883 31.934 103.177 32.018L103.121 33.082C102.869 32.984 102.617 32.942 102.379 32.942C101.749 32.942 101.329 33.432 101.329 34.188V34.944H103.135V35.994H101.329V42H100.139ZM110.485 38.15C110.485 38.318 110.471 38.57 110.457 38.696H104.885C104.969 40.124 105.865 41.062 107.139 41.062C108.217 41.062 108.959 40.558 109.169 39.676L110.289 39.942C109.939 41.314 108.763 42.112 107.139 42.112C105.025 42.112 103.695 40.474 103.695 38.472C103.695 36.47 104.983 34.832 107.111 34.832C109.197 34.832 110.485 36.33 110.485 38.15ZM104.955 37.702H109.225C109.113 36.624 108.357 35.826 107.111 35.826C106.005 35.826 105.193 36.526 104.955 37.702ZM114.314 42.112C112.606 42.112 111.682 41.048 111.374 40.054L112.396 39.606C112.662 40.432 113.222 41.104 114.314 41.104C115.182 41.104 115.742 40.6 115.742 40.026C115.742 38.22 111.682 39.382 111.682 36.708C111.682 35.588 112.648 34.832 114.16 34.832C115.406 34.832 116.484 35.532 116.778 36.568L115.784 37.002C115.588 36.274 114.888 35.812 114.132 35.812C113.334 35.812 112.83 36.134 112.83 36.694C112.83 38.206 116.918 37.1 116.904 40.012C116.904 41.244 115.868 42.112 114.314 42.112ZM122.072 41.944C121.722 42.07 121.344 42.112 120.966 42.112C119.762 42.112 118.88 41.44 118.88 39.886V35.994H117.564V34.944H118.88V32.802H120.07V34.944H121.96V35.994H120.07V39.928C120.07 40.67 120.49 41.034 121.106 41.034C121.386 41.034 121.708 40.992 121.988 40.852L122.072 41.944ZM128.108 34.944H129.326L125.63 44.548H124.412L125.434 41.902L122.676 34.944H123.964L126.036 40.348L128.108 34.944ZM130.474 42V32.088H131.664V42H130.474ZM139.975 38.15C139.975 38.318 139.961 38.57 139.947 38.696H134.375C134.459 40.124 135.355 41.062 136.629 41.062C137.707 41.062 138.449 40.558 138.659 39.676L139.779 39.942C139.429 41.314 138.253 42.112 136.629 42.112C134.515 42.112 133.185 40.474 133.185 38.472C133.185 36.47 134.473 34.832 136.601 34.832C138.687 34.832 139.975 36.33 139.975 38.15ZM134.445 37.702H138.715C138.603 36.624 137.847 35.826 136.601 35.826C135.495 35.826 134.683 36.526 134.445 37.702Z" fill="#1E1E1E"/>
<path d="M135.022 77V67.2H141.294V68.334H136.296V71.33H140.384V72.478H136.296V77H135.022ZM142.648 67.088H144.02V68.6H142.648V67.088ZM142.732 77V69.944H143.922V77H142.732ZM145.849 77V69.944H147.039V71.274C147.529 70.434 148.383 69.832 149.461 69.832C150.931 69.832 151.981 70.826 151.981 72.324V77H150.791V72.548C150.791 71.596 150.189 70.91 149.195 70.91C147.879 70.91 147.039 72.044 147.039 73.906V77H145.849ZM156.547 69.832C158.255 69.832 159.445 70.84 159.445 72.478V77H158.269V75.796C157.863 76.608 156.939 77.112 155.917 77.112C154.503 77.112 153.537 76.244 153.537 75.026C153.537 73.668 154.643 72.926 156.897 72.702L158.269 72.548V72.408C158.269 71.442 157.583 70.826 156.547 70.826C155.581 70.826 154.895 71.4 154.797 72.352L153.691 72.142C153.901 70.742 155.063 69.832 156.547 69.832ZM156.099 76.132C157.471 76.132 158.269 75.222 158.269 73.808V73.472L156.897 73.626C155.469 73.78 154.727 74.27 154.727 75.012C154.727 75.67 155.287 76.132 156.099 76.132ZM161.38 77V69.944H162.57V71.274C163.06 70.434 163.914 69.832 164.992 69.832C166.462 69.832 167.512 70.826 167.512 72.324V77H166.322V72.548C166.322 71.596 165.72 70.91 164.726 70.91C163.41 70.91 162.57 72.044 162.57 73.906V77H161.38ZM172.54 77.112C170.44 77.112 169.04 75.656 169.04 73.472C169.04 71.288 170.44 69.832 172.54 69.832C174.178 69.832 175.382 70.728 175.634 72.128L174.458 72.366C174.304 71.512 173.562 70.896 172.568 70.896C171.182 70.896 170.286 71.918 170.286 73.472C170.286 75.026 171.182 76.048 172.568 76.048C173.562 76.048 174.29 75.502 174.486 74.564L175.648 74.802C175.34 76.258 174.164 77.112 172.54 77.112ZM183.514 73.15C183.514 73.318 183.5 73.57 183.486 73.696H177.914C177.998 75.124 178.894 76.062 180.168 76.062C181.246 76.062 181.988 75.558 182.198 74.676L183.318 74.942C182.968 76.314 181.792 77.112 180.168 77.112C178.054 77.112 176.724 75.474 176.724 73.472C176.724 71.47 178.012 69.832 180.14 69.832C182.226 69.832 183.514 71.33 183.514 73.15ZM177.984 72.702H182.254C182.142 71.624 181.386 70.826 180.14 70.826C179.034 70.826 178.222 71.526 177.984 72.702Z" fill="#1E1E1E"/>
<path d="M135.666 121V114.994H134.462V113.944H135.666V113.286C135.666 111.732 136.548 110.906 137.752 110.906C138.074 110.906 138.41 110.934 138.704 111.018L138.648 112.082C138.396 111.984 138.144 111.942 137.906 111.942C137.276 111.942 136.856 112.432 136.856 113.188V113.944H138.662V114.994H136.856V121H135.666ZM142.806 121.112C140.706 121.112 139.222 119.586 139.222 117.472C139.222 115.358 140.706 113.832 142.806 113.832C144.892 113.832 146.404 115.358 146.404 117.472C146.404 119.586 144.892 121.112 142.806 121.112ZM142.806 120.048C144.22 120.048 145.172 118.984 145.172 117.472C145.172 115.96 144.22 114.896 142.806 114.896C141.392 114.896 140.44 115.96 140.44 117.472C140.44 118.984 141.392 120.048 142.806 120.048ZM147.927 121V113.944H149.117V115.274C149.467 114.434 150.167 113.832 151.245 113.832C152.393 113.832 153.289 114.364 153.541 115.316C153.919 114.476 154.759 113.832 155.823 113.832C157.335 113.832 158.287 114.784 158.287 116.268V121H157.097V116.506C157.097 115.54 156.551 114.882 155.557 114.882C154.353 114.882 153.695 115.96 153.695 117.458V121H152.505V116.506C152.505 115.54 151.959 114.882 150.979 114.882C149.775 114.882 149.117 115.96 149.117 117.458V121H147.927ZM163.396 121.112C161.296 121.112 159.812 119.586 159.812 117.472C159.812 115.358 161.296 113.832 163.396 113.832C165.482 113.832 166.994 115.358 166.994 117.472C166.994 119.586 165.482 121.112 163.396 121.112ZM163.396 120.048C164.81 120.048 165.762 118.984 165.762 117.472C165.762 115.96 164.81 114.896 163.396 114.896C161.982 114.896 161.03 115.96 161.03 117.472C161.03 118.984 161.982 120.048 163.396 120.048Z" fill="#1E1E1E"/>
<path d="M38.022 98V88.2H41.746C43.65 88.2 44.882 89.32 44.882 91.042C44.882 92.764 43.65 93.884 41.746 93.884H39.296V98H38.022ZM39.296 92.736H41.704C42.866 92.736 43.566 92.106 43.566 91.042C43.566 89.978 42.866 89.334 41.704 89.334H39.296V92.736ZM46.1965 98V88.088H47.3865V98H46.1965ZM55.6977 94.15C55.6977 94.318 55.6837 94.57 55.6697 94.696H50.0977C50.1817 96.124 51.0777 97.062 52.3517 97.062C53.4297 97.062 54.1717 96.558 54.3817 95.676L55.5017 95.942C55.1517 97.314 53.9757 98.112 52.3517 98.112C50.2377 98.112 48.9077 96.474 48.9077 94.472C48.9077 92.47 50.1957 90.832 52.3237 90.832C54.4097 90.832 55.6977 92.33 55.6977 94.15ZM50.1677 93.702H54.4377C54.3257 92.624 53.5697 91.826 52.3237 91.826C51.2177 91.826 50.4057 92.526 50.1677 93.702ZM59.7933 90.832C61.5013 90.832 62.6913 91.84 62.6913 93.478V98H61.5153V96.796C61.1093 97.608 60.1853 98.112 59.1633 98.112C57.7493 98.112 56.7833 97.244 56.7833 96.026C56.7833 94.668 57.8893 93.926 60.1433 93.702L61.5153 93.548V93.408C61.5153 92.442 60.8293 91.826 59.7933 91.826C58.8273 91.826 58.1413 92.4 58.0433 93.352L56.9373 93.142C57.1473 91.742 58.3093 90.832 59.7933 90.832ZM59.3453 97.132C60.7173 97.132 61.5153 96.222 61.5153 94.808V94.472L60.1433 94.626C58.7153 94.78 57.9733 95.27 57.9733 96.012C57.9733 96.67 58.5333 97.132 59.3453 97.132ZM66.9922 98.112C65.2842 98.112 64.3602 97.048 64.0522 96.054L65.0742 95.606C65.3402 96.432 65.9002 97.104 66.9922 97.104C67.8602 97.104 68.4202 96.6 68.4202 96.026C68.4202 94.22 64.3602 95.382 64.3602 92.708C64.3602 91.588 65.3262 90.832 66.8382 90.832C68.0842 90.832 69.1622 91.532 69.4562 92.568L68.4622 93.002C68.2662 92.274 67.5662 91.812 66.8102 91.812C66.0122 91.812 65.5082 92.134 65.5082 92.694C65.5082 94.206 69.5962 93.1 69.5822 96.012C69.5822 97.244 68.5462 98.112 66.9922 98.112ZM77.225 90.944V98H76.035V96.67C75.545 97.51 74.691 98.112 73.613 98.112C72.143 98.112 71.093 97.118 71.093 95.62V90.944H72.283V95.396C72.283 96.348 72.885 97.034 73.879 97.034C75.195 97.034 76.035 95.9 76.035 94.038V90.944H77.225ZM83.2894 92.106C83.0234 91.994 82.6874 91.938 82.3794 91.938C81.2594 91.938 80.3494 93.016 80.3494 95.312V98H79.1594V90.944H80.3494V92.372C80.7554 91.476 81.6794 90.832 82.5474 90.832C82.8414 90.832 83.1214 90.874 83.3594 90.958L83.2894 92.106ZM90.5746 94.15C90.5746 94.318 90.5606 94.57 90.5466 94.696H84.9746C85.0586 96.124 85.9546 97.062 87.2286 97.062C88.3066 97.062 89.0486 96.558 89.2586 95.676L90.3786 95.942C90.0286 97.314 88.8526 98.112 87.2286 98.112C85.1146 98.112 83.7846 96.474 83.7846 94.472C83.7846 92.47 85.0726 90.832 87.2006 90.832C89.2866 90.832 90.5746 92.33 90.5746 94.15ZM85.0446 93.702H89.3146C89.2026 92.624 88.4466 91.826 87.2006 91.826C86.0946 91.826 85.2826 92.526 85.0446 93.702Z" fill="#1E1E1E"/>
<path d="M28.022 139V129.2H29.436L34.378 136.998V129.2H35.624V139H34.21L29.268 131.23V139H28.022ZM44.0023 135.15C44.0023 135.318 43.9883 135.57 43.9743 135.696H38.4023C38.4863 137.124 39.3823 138.062 40.6563 138.062C41.7343 138.062 42.4763 137.558 42.6863 136.676L43.8063 136.942C43.4563 138.314 42.2803 139.112 40.6563 139.112C38.5423 139.112 37.2123 137.474 37.2123 135.472C37.2123 133.47 38.5003 131.832 40.6283 131.832C42.7143 131.832 44.0023 133.33 44.0023 135.15ZM38.4723 134.702H42.7423C42.6303 133.624 41.8743 132.826 40.6283 132.826C39.5223 132.826 38.7103 133.526 38.4723 134.702ZM48.6284 139.112C46.5284 139.112 45.1284 137.656 45.1284 135.472C45.1284 133.288 46.5284 131.832 48.6284 131.832C50.2664 131.832 51.4704 132.728 51.7224 134.128L50.5464 134.366C50.3924 133.512 49.6504 132.896 48.6564 132.896C47.2704 132.896 46.3744 133.918 46.3744 135.472C46.3744 137.026 47.2704 138.048 48.6564 138.048C49.6504 138.048 50.3784 137.502 50.5744 136.564L51.7364 136.802C51.4284 138.258 50.2524 139.112 48.6284 139.112ZM59.602 135.15C59.602 135.318 59.588 135.57 59.574 135.696H54.002C54.086 137.124 54.982 138.062 56.256 138.062C57.334 138.062 58.076 137.558 58.286 136.676L59.406 136.942C59.056 138.314 57.88 139.112 56.256 139.112C54.142 139.112 52.812 137.474 52.812 135.472C52.812 133.47 54.1 131.832 56.228 131.832C58.314 131.832 59.602 133.33 59.602 135.15ZM54.072 134.702H58.342C58.23 133.624 57.474 132.826 56.228 132.826C55.122 132.826 54.31 133.526 54.072 134.702ZM63.4316 139.112C61.7236 139.112 60.7996 138.048 60.4916 137.054L61.5136 136.606C61.7796 137.432 62.3396 138.104 63.4316 138.104C64.2996 138.104 64.8596 137.6 64.8596 137.026C64.8596 135.22 60.7996 136.382 60.7996 133.708C60.7996 132.588 61.7656 131.832 63.2776 131.832C64.5236 131.832 65.6016 132.532 65.8956 133.568L64.9016 134.002C64.7056 133.274 64.0056 132.812 63.2496 132.812C62.4516 132.812 61.9476 133.134 61.9476 133.694C61.9476 135.206 66.0356 134.1 66.0216 137.012C66.0216 138.244 64.9856 139.112 63.4316 139.112ZM69.8984 139.112C68.1904 139.112 67.2664 138.048 66.9584 137.054L67.9804 136.606C68.2464 137.432 68.8064 138.104 69.8984 138.104C70.7664 138.104 71.3264 137.6 71.3264 137.026C71.3264 135.22 67.2664 136.382 67.2664 133.708C67.2664 132.588 68.2324 131.832 69.7444 131.832C70.9904 131.832 72.0684 132.532 72.3624 133.568L71.3684 134.002C71.1724 133.274 70.4724 132.812 69.7164 132.812C68.9184 132.812 68.4144 133.134 68.4144 133.694C68.4144 135.206 72.5024 134.1 72.4884 137.012C72.4884 138.244 71.4524 139.112 69.8984 139.112ZM73.9152 129.088H75.2872V130.6H73.9152V129.088ZM73.9992 139V131.944H75.1892V139H73.9992ZM80.8684 138.944C80.5184 139.07 80.1404 139.112 79.7624 139.112C78.5584 139.112 77.6764 138.44 77.6764 136.886V132.994H76.3604V131.944H77.6764V129.802H78.8664V131.944H80.7564V132.994H78.8664V136.928C78.8664 137.67 79.2864 138.034 79.9024 138.034C80.1824 138.034 80.5044 137.992 80.7844 137.852L80.8684 138.944ZM86.905 131.944H88.123L84.427 141.548H83.209L84.231 138.902L81.473 131.944H82.761L84.833 137.348L86.905 131.944Z" fill="#1E1E1E"/>
<path d="M89.022 207V197.2H95.196V198.334H90.296V201.218H94.272V202.366H90.296V205.852H95.35V207H89.022ZM96.9094 207V199.944H98.0994V201.274C98.4494 200.434 99.1494 199.832 100.227 199.832C101.375 199.832 102.271 200.364 102.523 201.316C102.901 200.476 103.741 199.832 104.805 199.832C106.317 199.832 107.269 200.784 107.269 202.268V207H106.079V202.506C106.079 201.54 105.533 200.882 104.539 200.882C103.335 200.882 102.677 201.96 102.677 203.458V207H101.487V202.506C101.487 201.54 100.941 200.882 99.9614 200.882C98.7574 200.882 98.0994 201.96 98.0994 203.458V207H96.9094ZM112.378 207.112C110.278 207.112 108.794 205.586 108.794 203.472C108.794 201.358 110.278 199.832 112.378 199.832C114.464 199.832 115.976 201.358 115.976 203.472C115.976 205.586 114.464 207.112 112.378 207.112ZM112.378 206.048C113.792 206.048 114.744 204.984 114.744 203.472C114.744 201.96 113.792 200.896 112.378 200.896C110.964 200.896 110.012 201.96 110.012 203.472C110.012 204.984 110.964 206.048 112.378 206.048ZM121.156 206.944C120.806 207.07 120.428 207.112 120.05 207.112C118.846 207.112 117.964 206.44 117.964 204.886V200.994H116.648V199.944H117.964V197.802H119.154V199.944H121.044V200.994H119.154V204.928C119.154 205.67 119.574 206.034 120.19 206.034C120.47 206.034 120.792 205.992 121.072 205.852L121.156 206.944ZM122.46 197.088H123.832V198.6H122.46V197.088ZM122.544 207V199.944H123.734V207H122.544ZM128.839 207.112C126.739 207.112 125.255 205.586 125.255 203.472C125.255 201.358 126.739 199.832 128.839 199.832C130.925 199.832 132.437 201.358 132.437 203.472C132.437 205.586 130.925 207.112 128.839 207.112ZM128.839 206.048C130.253 206.048 131.205 204.984 131.205 203.472C131.205 201.96 130.253 200.896 128.839 200.896C127.425 200.896 126.473 201.96 126.473 203.472C126.473 204.984 127.425 206.048 128.839 206.048ZM133.96 207V199.944H135.15V201.274C135.64 200.434 136.494 199.832 137.572 199.832C139.042 199.832 140.092 200.826 140.092 202.324V207H138.902V202.548C138.902 201.596 138.3 200.91 137.306 200.91C135.99 200.91 135.15 202.044 135.15 203.906V207H133.96Z" fill="#1E1E1E"/>
<path d="M109.022 160V150.2H112.564C114.412 150.2 115.56 151.124 115.56 152.72C115.56 153.63 114.93 154.358 114.272 154.638C115.266 154.988 115.994 155.772 115.994 157.144C115.994 158.908 114.79 160 112.774 160H109.022ZM110.282 154.232H112.508C113.67 154.232 114.3 153.742 114.3 152.762C114.3 151.782 113.67 151.292 112.508 151.292H110.282V154.232ZM110.282 158.852H112.564C113.992 158.852 114.72 158.25 114.72 157.116C114.72 155.968 113.992 155.352 112.564 155.352H110.282V158.852ZM123.922 156.15C123.922 156.318 123.908 156.57 123.894 156.696H118.322C118.406 158.124 119.302 159.062 120.576 159.062C121.654 159.062 122.396 158.558 122.606 157.676L123.726 157.942C123.376 159.314 122.2 160.112 120.576 160.112C118.462 160.112 117.132 158.474 117.132 156.472C117.132 154.47 118.42 152.832 120.548 152.832C122.634 152.832 123.922 154.33 123.922 156.15ZM118.392 155.702H122.662C122.55 154.624 121.794 153.826 120.548 153.826C119.442 153.826 118.63 154.526 118.392 155.702ZM125.454 160V150.088H126.644V154.33C127.162 153.322 128.016 152.832 129.052 152.832C130.648 152.832 131.698 153.826 131.698 155.352V160H130.508V155.576C130.508 154.54 129.864 153.91 128.786 153.91C127.484 153.91 126.644 155.086 126.644 156.976V160H125.454ZM136.262 152.832C137.97 152.832 139.16 153.84 139.16 155.478V160H137.984V158.796C137.578 159.608 136.654 160.112 135.632 160.112C134.218 160.112 133.252 159.244 133.252 158.026C133.252 156.668 134.358 155.926 136.612 155.702L137.984 155.548V155.408C137.984 154.442 137.298 153.826 136.262 153.826C135.296 153.826 134.61 154.4 134.512 155.352L133.406 155.142C133.616 153.742 134.778 152.832 136.262 152.832ZM135.814 159.132C137.186 159.132 137.984 158.222 137.984 156.808V156.472L136.612 156.626C135.184 156.78 134.442 157.27 134.442 158.012C134.442 158.67 135.002 159.132 135.814 159.132ZM142.654 160L140.078 152.944H141.296L143.256 158.614L145.23 152.944H146.462L143.872 160H142.654ZM147.532 150.088H148.904V151.6H147.532V150.088ZM147.616 160V152.944H148.806V160H147.616ZM153.912 160.112C151.812 160.112 150.328 158.586 150.328 156.472C150.328 154.358 151.812 152.832 153.912 152.832C155.998 152.832 157.51 154.358 157.51 156.472C157.51 158.586 155.998 160.112 153.912 160.112ZM153.912 159.048C155.326 159.048 156.278 157.984 156.278 156.472C156.278 154.96 155.326 153.896 153.912 153.896C152.498 153.896 151.546 154.96 151.546 156.472C151.546 157.984 152.498 159.048 153.912 159.048ZM165.164 152.944V160H163.974V158.67C163.484 159.51 162.63 160.112 161.552 160.112C160.082 160.112 159.032 159.118 159.032 157.62V152.944H160.222V157.396C160.222 158.348 160.824 159.034 161.818 159.034C163.134 159.034 163.974 157.9 163.974 156.038V152.944H165.164ZM171.229 154.106C170.963 153.994 170.627 153.938 170.319 153.938C169.199 153.938 168.289 155.016 168.289 157.312V160H167.099V152.944H168.289V154.372C168.695 153.476 169.619 152.832 170.487 152.832C170.781 152.832 171.061 152.874 171.299 152.958L171.229 154.106Z" fill="#1E1E1E"/>
</svg>
